<svg width="2128" height="1848" viewBox="0 0 2128 1848" fill="none" xmlns="http://www.w3.org/2000/svg">
<g clip-path="url(#clip0_4039_151)">
<path d="M311.599 1687.42C727.215 1901 1400.85 1901 1816.56 1687.42C2232.27 1473.84 2232.18 1127.53 1816.56 913.913C1400.94 700.291 727.307 700.337 311.599 913.913C-104.11 1127.49 -103.788 1473.84 311.599 1687.42Z" fill="#F5F5F5"/>
<path d="M1782.92 1115.26C1783.42 1086.72 1813.3 1012.08 1843.58 975.499C1873.87 938.915 1920.89 912.671 1953.89 924.575C1984.54 935.651 1980.5 976.004 1942.63 1002.16C1904.76 1028.31 1847.95 1060.98 1830.71 1106.99L1795.23 1163.25L1782.92 1115.26Z" fill="#35BC88"/>
<path opacity="0.1" d="M1782.92 1115.26C1783.42 1086.72 1813.3 1012.08 1843.58 975.499C1873.87 938.915 1920.89 912.671 1953.89 924.575C1984.54 935.651 1980.5 976.004 1942.63 1002.16C1904.76 1028.31 1847.95 1060.98 1830.71 1106.99L1795.23 1163.25L1782.92 1115.26Z" fill="black"/>
<path d="M1788.34 1138.43C1788.78 1138.4 1789.21 1138.23 1789.55 1137.94C1789.89 1137.65 1790.13 1137.25 1790.22 1136.82C1811.04 1039.66 1891.34 961.803 1938.77 945.119C1939.03 945.031 1939.27 944.892 1939.48 944.71C1939.68 944.528 1939.85 944.306 1939.97 944.057C1940.09 943.809 1940.16 943.539 1940.17 943.264C1940.19 942.988 1940.15 942.713 1940.05 942.453C1939.96 942.196 1939.82 941.959 1939.63 941.758C1939.45 941.556 1939.23 941.392 1938.98 941.277C1938.73 941.161 1938.46 941.096 1938.19 941.085C1937.92 941.074 1937.64 941.117 1937.39 941.213C1888.99 958.218 1807.27 1037.31 1786.13 1135.95C1786.04 1136.49 1786.15 1137.04 1786.45 1137.5C1786.75 1137.97 1787.21 1138.3 1787.74 1138.43H1788.34Z" fill="white"/>
<path d="M1801.76 1201.07C1806.63 1185.12 1826.72 1158.97 1858.8 1137.65C1894.28 1114.07 1938.86 1103.73 1949.43 1085.02C1962.11 1062.64 1943.41 1040.9 1907.33 1044.76C1871.25 1048.62 1807 1096.65 1795.6 1170.51L1801.76 1201.07Z" fill="#35BC88"/>
<path d="M1795.1 1184.11C1795.5 1184.08 1795.88 1183.94 1796.2 1183.71C1796.53 1183.47 1796.78 1183.15 1796.93 1182.78C1828.28 1099.82 1892.48 1071.6 1922.04 1068.29C1922.31 1068.26 1922.57 1068.18 1922.81 1068.05C1923.05 1067.92 1923.27 1067.74 1923.44 1067.53C1923.61 1067.31 1923.73 1067.07 1923.81 1066.8C1923.88 1066.54 1923.91 1066.27 1923.88 1065.99C1923.85 1065.72 1923.77 1065.45 1923.65 1065.21C1923.52 1064.97 1923.34 1064.75 1923.12 1064.58C1922.91 1064.41 1922.66 1064.28 1922.39 1064.21C1922.13 1064.13 1921.85 1064.12 1921.58 1064.16C1888.9 1067.79 1825.06 1096.6 1792.89 1181.31C1792.69 1181.82 1792.71 1182.39 1792.94 1182.89C1793.16 1183.39 1793.57 1183.78 1794.08 1183.97C1794.39 1184.14 1794.75 1184.19 1795.1 1184.11Z" fill="white"/>
<path d="M388.673 1385.23L423.465 1365.33C423.465 1365.33 440.149 1273.41 427.693 1194.36C410.137 1083.23 334.487 1044.9 307.003 1055.97C279.518 1067.05 273.038 1099.91 322.675 1164.12C351.951 1202.04 389.639 1282.14 388.673 1385.23Z" fill="#35BC88"/>
<g opacity="0.1">
<path d="M388.673 1385.23L423.465 1365.33C423.465 1365.33 440.149 1273.41 427.693 1194.36C410.137 1083.23 334.487 1044.9 307.003 1055.97C279.518 1067.05 273.038 1099.91 322.675 1164.12C351.951 1202.04 389.639 1282.14 388.673 1385.23Z" fill="black"/>
</g>
<path d="M401.267 1341.11H400.945C400.619 1341.07 400.305 1340.97 400.021 1340.8C399.737 1340.64 399.488 1340.42 399.291 1340.16C399.094 1339.9 398.951 1339.6 398.872 1339.28C398.793 1338.96 398.779 1338.63 398.831 1338.31C413.216 1234.3 371.255 1120.32 324.375 1074.36C324.142 1074.13 323.956 1073.86 323.83 1073.56C323.703 1073.26 323.638 1072.94 323.638 1072.61C323.638 1072.29 323.703 1071.96 323.83 1071.66C323.956 1071.36 324.142 1071.09 324.375 1070.87C324.84 1070.41 325.468 1070.15 326.122 1070.15C326.776 1070.15 327.404 1070.41 327.868 1070.87C375.759 1117.65 418.364 1233.47 403.794 1339.04C403.686 1339.63 403.372 1340.16 402.909 1340.54C402.446 1340.92 401.864 1341.12 401.267 1341.11Z" fill="white"/>
<path d="M292.157 1440.98C286.688 1444.15 275.336 1437.26 271.016 1434.32C263.573 1429.26 257.558 1422.38 253.551 1414.32C248.991 1405.19 247.385 1394.86 248.955 1384.77C249.826 1379.47 251.07 1374.23 252.678 1369.1L257.274 1353.84C259.047 1348.93 259.798 1343.7 259.48 1338.49C258.147 1328.06 248.909 1320.75 240.498 1314.45C231.306 1307.47 221.517 1298.28 221.563 1285.73C222.249 1276 226.127 1266.78 232.593 1259.49C238.614 1251.9 245.738 1245.19 250.977 1237.15C255.293 1231.63 257.596 1224.8 257.504 1217.8C256.947 1213.49 255.507 1209.35 253.275 1205.62C248.165 1197.85 243.707 1189.67 239.947 1181.17C236.868 1172.39 237.327 1161.5 244.175 1155.2C247.238 1152.92 250.726 1151.26 254.435 1150.34C258.144 1149.42 261.999 1149.24 265.776 1149.82C272.888 1150.71 279.724 1153.13 285.815 1156.9C305.762 1167.98 317.114 1191.56 338.255 1200.11C346.654 1202.71 355.203 1204.79 363.855 1206.36C368.182 1207.16 372.293 1208.86 375.926 1211.34C379.559 1213.83 382.632 1217.05 384.951 1220.79C392.718 1236.28 378.287 1255.4 383.756 1271.85C388.352 1286.42 402.737 1291.98 410.688 1305.08C413.91 1310.88 415.213 1317.56 414.411 1324.15C413.703 1335.27 410.977 1346.18 406.368 1356.32C401.189 1366.41 395.275 1376.1 388.673 1385.32C388.352 1385.55 292.985 1440.52 292.157 1440.98Z" fill="#35BC88"/>
<path d="M348.642 1410.83C348.316 1410.82 347.996 1410.74 347.699 1410.61C347.403 1410.47 347.136 1410.28 346.914 1410.04C346.692 1409.8 346.519 1409.52 346.406 1409.21C346.292 1408.91 346.24 1408.58 346.252 1408.26C350.343 1309.81 303.923 1201.07 270.189 1169.5C269.739 1169.03 269.488 1168.4 269.488 1167.75C269.488 1167.1 269.739 1166.47 270.189 1166C270.653 1165.54 271.281 1165.28 271.935 1165.28C272.589 1165.28 273.217 1165.54 273.682 1166C308.106 1198.17 355.444 1308.75 351.308 1408.63C351.238 1409.27 350.921 1409.86 350.423 1410.27C349.925 1410.68 349.286 1410.88 348.642 1410.83Z" fill="white"/>
<path d="M333.889 1294.55H333.154C309.823 1288.11 285.858 1284.25 261.686 1283.02C261.36 1283.01 261.04 1282.93 260.743 1282.79C260.446 1282.66 260.179 1282.46 259.957 1282.23C259.735 1281.99 259.563 1281.71 259.449 1281.4C259.336 1281.09 259.284 1280.77 259.296 1280.44C259.302 1280.12 259.374 1279.79 259.507 1279.49C259.641 1279.19 259.834 1278.92 260.074 1278.7C260.314 1278.48 260.597 1278.3 260.906 1278.19C261.215 1278.08 261.542 1278.03 261.87 1278.05C286.475 1279.34 310.868 1283.29 334.625 1289.82C335.173 1290.01 335.637 1290.38 335.937 1290.88C336.237 1291.38 336.353 1291.96 336.266 1292.54C336.178 1293.11 335.893 1293.64 335.459 1294.02C335.024 1294.41 334.469 1294.63 333.889 1294.64V1294.55Z" fill="white"/>
<path d="M304.291 1404.44L805.852 1693.99C812.019 1697.12 818.837 1698.75 825.753 1698.75C832.668 1698.75 839.487 1697.12 845.654 1693.99L1795.33 1145.64C1806.31 1139.3 1806.31 1129.01 1795.33 1122.66L1293.72 833.115C1287.55 829.986 1280.73 828.355 1273.82 828.355C1266.9 828.355 1260.08 829.986 1253.92 833.115L304.291 1381.46C293.306 1387.85 293.306 1398.1 304.291 1404.44Z" fill="#0463CA"/>
<path d="M575.363 1538.97C583.911 1543.3 593.358 1545.55 602.939 1545.55C612.52 1545.55 621.967 1543.3 630.515 1538.97C645.774 1530.14 645.774 1515.99 630.515 1507.07C621.967 1502.74 612.52 1500.49 602.939 1500.49C593.358 1500.49 583.911 1502.74 575.363 1507.07C560.104 1515.9 560.104 1530.33 575.363 1538.97Z" fill="#0487E2"/>
<path d="M805.852 1694.04L304.291 1404.49C294.455 1398.84 293.444 1390.01 301.166 1383.67C296.264 1387.55 292.236 1392.42 289.345 1397.97C286.455 1403.51 284.766 1409.6 284.39 1415.84V1434.55C284.76 1441.45 286.755 1448.18 290.213 1454.17C293.672 1460.15 298.495 1465.24 304.291 1469.02L805.852 1758.57C811.99 1761.76 818.837 1763.34 825.753 1763.16V1698.77C818.825 1698.91 811.976 1697.28 805.852 1694.04Z" fill="#65C2F5"/>
<path d="M1795.33 1210.31C1801.12 1206.53 1805.94 1201.44 1809.39 1195.45C1812.85 1189.46 1814.85 1182.74 1815.23 1175.84V1157.13C1814.84 1150.89 1813.14 1144.8 1810.24 1139.26C1807.34 1133.71 1803.31 1128.84 1798.4 1124.96C1806.17 1131.3 1805.16 1140.13 1795.33 1145.83L845.654 1694.04C839.52 1697.24 832.67 1698.82 825.753 1698.63V1763.35C832.67 1763.54 839.52 1761.95 845.654 1758.75L1795.33 1210.31Z" fill="#0487E2"/>
<path d="M888.534 1634.01L415.146 1360.64C408.528 1356.83 408.528 1350.67 415.146 1346.86L1193.8 897.046C1197.5 895.165 1201.6 894.184 1205.75 894.184C1209.9 894.184 1214 895.165 1217.7 897.046L1691.32 1170.37C1697.94 1174.14 1697.94 1180.34 1691.32 1184.16L912.388 1634.01C908.693 1635.89 904.606 1636.88 900.461 1636.88C896.315 1636.88 892.229 1635.89 888.534 1634.01Z" fill="#FAFAFA"/>
<path d="M765.408 1266.2L1045.44 1427.84L868.68 1529.91C865.589 1531.46 862.183 1532.26 858.729 1532.26C855.276 1532.26 851.869 1531.46 848.779 1529.91L588.645 1379.72C587.445 1379.31 586.402 1378.54 585.664 1377.51C584.925 1376.48 584.528 1375.24 584.528 1373.97C584.528 1372.7 584.925 1371.47 585.664 1370.44C586.402 1369.41 587.445 1368.63 588.645 1368.23L765.408 1266.2Z" fill="#E6E6E6"/>
<path d="M1045.21 1427.84L1012.21 1296.67C1011.46 1293.54 1009.72 1290.73 1007.25 1288.67C1004.75 1286.55 1001.65 1285.25 998.379 1284.95L765.224 1266.2L1045.21 1427.84Z" fill="#E0E0E0"/>
<path d="M1045.21 1427.84L794.592 1417.5C791.591 1417.38 788.73 1416.19 786.524 1414.15C784.317 1412.11 782.909 1409.36 782.551 1406.37L765.178 1266.15L1045.21 1427.84Z" fill="#E0E0E0"/>
<path d="M1045.21 1427.84L794.592 1417.5C791.591 1417.38 788.73 1416.19 786.524 1414.15C784.317 1412.11 782.909 1409.36 782.551 1406.37L765.178 1266.15L796.109 1404.03C796.387 1405.26 797.05 1406.37 798 1407.19C798.951 1408.02 800.139 1408.52 801.394 1408.63L1045.21 1427.84Z" fill="#FAFAFA"/>
<path d="M821.387 1417.08L858.752 1535.66L868.68 1529.91L821.387 1417.08Z" fill="#FAFAFA"/>
<path d="M578.718 1373.97L588.645 1368.23L784.067 1395.53L578.718 1373.97Z" fill="#FAFAFA"/>
<path d="M924.705 1207.23L1147.47 1335.92C1150.56 1337.48 1153.97 1338.29 1157.42 1338.29C1160.88 1338.29 1164.29 1337.48 1167.37 1335.92L1483.53 1153.46C1484.73 1153.05 1485.78 1152.28 1486.51 1151.25C1487.25 1150.22 1487.65 1148.98 1487.65 1147.71C1487.65 1146.44 1487.25 1145.21 1486.51 1144.18C1485.78 1143.15 1484.73 1142.37 1483.53 1141.97L1260.76 1013.28C1257.68 1011.72 1254.27 1010.9 1250.81 1010.9C1247.36 1010.9 1243.95 1011.72 1240.86 1013.28L924.705 1195.74C923.504 1196.15 922.462 1196.92 921.723 1197.95C920.985 1198.98 920.587 1200.22 920.587 1201.48C920.587 1202.75 920.985 1203.99 921.723 1205.02C922.462 1206.05 923.504 1206.82 924.705 1207.23Z" fill="#E6E6E6"/>
<path d="M1101.83 1190.22C1099.18 1186.1 1097.61 1181.37 1097.26 1176.48C1096.92 1171.59 1097.81 1166.69 1099.86 1162.23C1103.99 1153.04 1113 1144.22 1126.84 1136.27C1142 1127.35 1158.75 1121.44 1176.15 1118.85C1193.13 1116.4 1210.41 1117.02 1227.17 1120.69C1244.45 1124.45 1261.03 1130.92 1276.3 1139.85C1291.07 1148.34 1301.12 1157.1 1306.45 1166.14C1309.05 1169.99 1310.61 1174.45 1310.96 1179.09C1311.32 1183.72 1310.46 1188.37 1308.47 1192.57C1304.43 1201.16 1295.92 1209.21 1283.05 1216.65C1270.72 1224.11 1256.83 1228.64 1242.47 1229.89C1230.52 1231.05 1218.49 1228.58 1207.96 1222.81C1206.07 1221.99 1204.38 1220.78 1202.99 1219.26C1201.6 1217.74 1200.55 1215.94 1199.91 1213.99C1199.61 1212.29 1199.76 1210.55 1200.35 1208.94C1200.94 1207.32 1201.94 1205.89 1203.27 1204.79C1195.87 1205.4 1188.41 1204.88 1181.16 1203.28C1174.05 1201.75 1167.23 1199.11 1160.94 1195.46C1150.34 1189.34 1144.79 1182.69 1144.3 1175.52C1143.81 1168.35 1148.88 1161.76 1159.51 1155.75C1172.34 1148.23 1187.02 1144.46 1201.89 1144.86C1217.07 1145.2 1231.92 1149.42 1245 1157.13C1250.41 1160.15 1255.24 1164.12 1259.25 1168.85C1262.43 1172.36 1264.51 1176.72 1265.22 1181.4L1223.86 1205.39C1220.5 1207.32 1218.66 1209.02 1218.39 1210.49C1218.11 1211.96 1219.31 1213.53 1221.93 1215.09C1227.65 1217.87 1234.2 1218.42 1240.31 1216.65C1249.31 1214.55 1257.92 1211.02 1265.82 1206.22C1276.21 1200.24 1282.78 1193.81 1285.54 1187.05C1286.92 1183.78 1287.45 1180.2 1287.07 1176.66C1286.69 1173.13 1285.42 1169.74 1283.38 1166.83C1277.83 1158.91 1270.45 1152.44 1261.87 1147.99C1244.23 1137.55 1224.29 1131.63 1203.82 1130.75C1183.05 1130.17 1162.55 1135.56 1144.76 1146.29C1133.46 1152.81 1126.19 1159.71 1122.98 1166.97C1121.36 1170.35 1120.65 1174.09 1120.91 1177.82C1121.17 1181.56 1122.39 1185.17 1124.45 1188.29C1130.01 1196.49 1137.53 1203.17 1146.32 1207.73C1152.17 1211.08 1158.32 1213.83 1164.71 1215.96C1170.66 1218.02 1176.83 1219.41 1183.09 1220.1C1183.76 1220.15 1184.41 1220.32 1185.02 1220.6C1185.34 1220.6 1185.34 1221.2 1185.02 1221.8L1178.96 1230.3C1178.71 1230.63 1178.41 1230.92 1178.08 1231.17C1177.19 1231.48 1176.22 1231.48 1175.32 1231.17C1167.75 1230.22 1160.29 1228.46 1153.08 1225.93C1145.54 1223.43 1138.28 1220.18 1131.39 1216.24C1117.14 1208.61 1107.3 1199.65 1101.83 1190.22ZM1197.66 1194.22C1204 1195.03 1210.43 1193.82 1216.05 1190.78L1240.08 1176.99C1237.23 1172.16 1233.03 1168.28 1227.99 1165.82C1220.32 1161.32 1211.61 1158.9 1202.72 1158.79C1193.86 1158.63 1185.13 1160.92 1177.48 1165.41C1170.77 1169.27 1167.51 1173.08 1167.7 1176.85C1167.7 1180.62 1171.46 1184.53 1178.5 1188.57C1184.39 1191.84 1190.93 1193.79 1197.66 1194.27V1194.22Z" fill="#FAFAFA"/>
<path d="M1506.01 1001.33C1507.9 1002.3 1509.99 1002.81 1512.12 1002.81C1514.25 1002.81 1516.34 1002.3 1518.23 1001.33C1518.96 1001.07 1519.6 1000.6 1520.04 999.969C1520.49 999.339 1520.73 998.586 1520.73 997.813C1520.73 997.04 1520.49 996.286 1520.04 995.656C1519.6 995.026 1518.96 994.551 1518.23 994.297C1516.33 993.357 1514.24 992.868 1512.12 992.868C1510 992.868 1507.91 993.357 1506.01 994.297C1505.28 994.551 1504.64 995.026 1504.2 995.656C1503.75 996.286 1503.51 997.04 1503.51 997.813C1503.51 998.586 1503.75 999.339 1504.2 999.969C1504.64 1000.6 1505.28 1001.07 1506.01 1001.33Z" fill="#0487E2"/>
<path d="M1525.49 1056.66C1529.27 1058.59 1533.45 1059.59 1537.7 1059.59C1541.94 1059.59 1546.12 1058.59 1549.9 1056.66C1556.65 1052.8 1556.65 1046.46 1549.9 1042.6C1546.12 1040.68 1541.94 1039.67 1537.7 1039.67C1533.45 1039.67 1529.27 1040.68 1525.49 1042.6C1518.6 1046.46 1518.6 1052.8 1525.49 1056.66Z" fill="#0487E2"/>
<path d="M1508.31 1032.17C1512.9 1029.55 1512.58 1025.23 1507.75 1022.47L1427.51 976.096C1424.93 974.715 1422.06 973.969 1419.13 973.921C1416.2 973.873 1413.31 974.525 1410.69 975.821C1406.09 978.394 1406.46 982.761 1411.24 985.518L1491.48 1031.85C1494.07 1033.21 1496.94 1033.95 1499.86 1034C1502.78 1034.06 1505.67 1033.43 1508.31 1032.17Z" fill="#0487E2"/>
<path d="M467.863 447.694C468.117 442.759 469.536 437.953 472.004 433.671C474.473 429.389 477.92 425.753 482.064 423.06L1209.29 3.21529C1213.7 0.971457 1218.57 -0.198242 1223.51 -0.198242C1228.46 -0.198242 1233.33 0.971457 1237.74 3.21529L1253.73 12.4073C1257.87 15.096 1261.31 18.7252 1263.78 22.9984C1266.25 27.2717 1267.67 32.068 1267.93 36.9959V594.491C1267.65 599.42 1266.22 604.214 1263.75 608.492C1261.29 612.769 1257.86 616.41 1253.73 619.125L526.508 1038.97C522.103 1041.19 517.239 1042.35 512.306 1042.35C507.373 1042.35 502.509 1041.19 498.104 1038.97L482.064 1029.78C477.94 1027.06 474.509 1023.42 472.043 1019.14C469.577 1014.87 468.145 1010.07 467.863 1005.14V447.694Z" fill="#35BC88"/>
<path opacity="0.4" d="M471.999 433.677L512.352 456.932L1263.8 23.07C1261.4 18.7454 1257.96 15.094 1253.78 12.4532L1237.69 3.26122C1233.29 1.01778 1228.43 -0.151855 1223.49 -0.151855C1218.55 -0.151855 1213.69 1.01778 1209.29 3.26122L482.11 423.06C477.872 425.656 474.386 429.316 471.999 433.677Z" fill="white"/>
<path opacity="0.1" d="M467.863 447.649V1005.05C468.125 1009.99 469.553 1014.8 472.03 1019.08C474.506 1023.36 477.96 1027 482.11 1029.69L498.104 1038.88C499.341 1039.6 500.65 1040.18 502.011 1040.62C503.91 1041.25 505.865 1041.7 507.848 1041.96C511.583 1042.44 515.373 1042.3 519.062 1041.54C519.995 1041.35 520.916 1041.11 521.82 1040.81C522.406 1040.65 522.976 1040.44 523.52 1040.17C522.445 1040.63 521.288 1040.86 520.119 1040.86C518.95 1040.86 517.793 1040.63 516.718 1040.17C515.229 1039.17 514.036 1037.79 513.268 1036.17C512.499 1034.55 512.182 1032.76 512.352 1030.97V473.248C512.21 470.72 512.843 468.209 514.165 466.05C515.487 463.89 517.436 462.185 519.751 461.161L512.352 456.841L471.999 433.585C469.452 437.847 468.028 442.686 467.863 447.649Z" fill="black"/>
<path opacity="0.2" d="M512.352 456.932L849.147 582.771C860.795 587.103 873.571 587.343 885.373 583.451C897.176 579.558 907.303 571.765 914.088 561.353L968.183 478.625L1266.46 21.5991L978.938 481.613L1267.93 594.72C1267.64 599.769 1266.06 604.659 1263.34 608.922L978.157 482.9L915.283 583.552C908.309 594.723 897.538 603.002 884.95 606.869C872.361 610.736 858.8 609.931 846.757 604.602L802.038 584.839L516.672 1040.12C515.183 1039.12 513.99 1037.74 513.222 1036.12C512.453 1034.51 512.137 1032.71 512.306 1030.93V1021.73L800.613 584.471L512.352 456.932Z" fill="black"/>
<path d="M595.677 326.774L545.948 298.141L545.489 297.865C523.428 285.41 493.186 287.294 459.682 306.597C392.258 345.526 337.612 440.203 337.612 518.013C337.612 556.85 351.4 584.196 373.231 596.973L418.455 622.756L429.256 604.694C441.56 601.896 453.368 597.247 464.278 590.906C531.701 551.978 586.347 457.3 586.347 379.49C586.342 368.987 585.061 358.523 582.533 348.329L595.677 326.774Z" fill="#0463CA"/>
<path d="M506.836 333.76C439.367 372.688 384.721 467.365 384.721 545.176C384.721 622.986 439.367 654.606 506.79 615.678C574.214 576.75 628.906 482.026 628.906 404.262C628.906 326.498 574.26 294.785 506.836 333.76Z" fill="#65C2F5"/>
<path d="M468.873 484.003C468.439 483.553 468.124 483.003 467.956 482.401C467.787 481.799 467.771 481.165 467.908 480.556C468.14 478.898 468.771 477.32 469.747 475.96L507.48 419.935C508.445 418.602 509.364 417.269 510.375 415.982C511.217 414.779 512.296 413.763 513.547 412.995L527.335 405.181C527.792 404.842 528.339 404.645 528.908 404.614C529.477 404.584 530.042 404.723 530.532 405.012C531.023 405.301 531.417 405.729 531.666 406.242C531.915 406.754 532.007 407.329 531.931 407.893V537.224C531.857 538.853 531.367 540.436 530.506 541.82C529.745 543.252 528.619 544.457 527.243 545.313L513.179 553.402C512.711 553.757 512.154 553.975 511.57 554.032C510.986 554.089 510.397 553.982 509.87 553.724C509.389 553.389 509.007 552.93 508.764 552.397C508.521 551.863 508.427 551.274 508.491 550.691V451.831L483.902 488.277C483.09 489.61 481.908 490.68 480.501 491.356C479.992 491.613 479.422 491.723 478.854 491.674C478.286 491.625 477.742 491.42 477.284 491.081L468.873 484.003Z" fill="#FAFAFA"/>
<path d="M1594.94 929.769V921.542H1596.96C1600.01 915.953 1604.65 911.395 1610.29 908.443C1621.79 902.62 1634.49 899.586 1647.38 899.586C1660.27 899.586 1672.97 902.62 1684.47 908.443C1690.11 911.395 1694.75 915.953 1697.8 921.542H1699.82V929.493C1699.82 937.352 1694.86 945.257 1684.47 951.278C1673 957.056 1660.33 960.062 1647.49 960.054C1634.65 960.046 1621.98 957.025 1610.52 951.232C1600 945.349 1594.89 937.444 1594.94 929.769Z" fill="#0487E2"/>
<path d="M1684.47 900.125C1672.98 894.28 1660.27 891.234 1647.38 891.234C1634.49 891.234 1621.78 894.28 1610.29 900.125C1589.79 911.936 1589.79 931.102 1610.29 942.959C1621.79 948.782 1634.49 951.817 1647.38 951.817C1660.27 951.817 1672.97 948.782 1684.47 942.959C1704.97 931.102 1704.97 911.936 1684.47 900.125Z" fill="#65C2F5"/>
<path d="M1661.08 606.532V918.049C1660.97 919.237 1660.54 920.374 1659.85 921.343C1659.15 922.313 1658.21 923.079 1657.12 923.564C1654.17 925.081 1650.89 925.872 1647.56 925.872C1644.24 925.872 1640.96 925.081 1638 923.564C1636.91 923.079 1635.97 922.313 1635.28 921.343C1634.58 920.374 1634.16 919.237 1634.05 918.049V606.532H1661.08Z" fill="#0463CA"/>
<path d="M1633.87 640.451V650.194L1660.89 665.775V656.077L1633.87 640.451Z" fill="#0487E2"/>
<path d="M1806.26 524.034L1803.97 528.63L1779.24 578.175L1767.52 601.936L1727.81 681.585L1723.44 690.363H1722.66C1721.06 690.417 1719.48 690.052 1718.07 689.306L1541.07 586.999C1539.76 586.164 1538.65 585.03 1537.85 583.688C1537.05 582.347 1536.58 580.836 1536.48 579.278V510.889C1536.48 476.787 1558.95 436.158 1586.67 420.164C1599.81 412.581 1611.71 411.983 1620.68 416.993L1806.26 524.034Z" fill="#65C2F5"/>
<path d="M1772.85 527.665C1761.64 531.801 1720.96 565.398 1720.96 618.344C1720.96 662.833 1720.96 685.905 1720.96 690.087H1722.62H1723.4L1727.76 681.309L1767.52 601.936L1779.24 578.404L1781.95 573.027L1772.85 527.665Z" fill="#0463CA"/>
<path d="M1820.83 634.108C1820.39 634.858 1819.76 635.476 1818.99 635.9L1818.53 636.176L1727.12 689.26C1725.98 689.864 1724.73 690.209 1723.44 690.271H1722.66V618.344C1722.89 605.33 1725.59 592.479 1730.61 580.473L1735.21 583.046L1767.61 601.752L1817.89 630.845L1820.47 632.316C1820.74 632.511 1820.94 632.805 1821.01 633.139C1821.07 633.472 1821.01 633.819 1820.83 634.108Z" fill="#0463CA"/>
<path d="M1806.26 524.034C1797.39 519.438 1785.67 520.219 1772.85 527.665C1757.11 537.555 1744.4 551.577 1736.08 568.201C1733.98 572.185 1732.09 576.282 1730.43 580.473C1725.4 592.479 1722.71 605.33 1722.48 618.344V690.225H1723.26C1724.55 690.163 1725.8 689.818 1726.94 689.214L1818.31 636.406L1818.76 636.13C1819.49 635.655 1820.11 635.047 1820.6 634.338C1821.89 632.726 1822.63 630.746 1822.72 628.685V560.572C1822.95 542.188 1816.51 529.457 1806.26 524.034ZM1816.47 631.58L1729.14 682.136C1728.41 682.55 1727.81 682.136 1727.81 681.355V618.344C1728.04 606.228 1730.52 594.259 1735.12 583.047C1735.17 582.803 1735.26 582.569 1735.39 582.357C1737.15 577.919 1739.18 573.591 1741.46 569.396C1749.2 554.129 1760.94 541.247 1775.42 532.123C1781.04 528.562 1787.49 526.548 1794.13 526.286C1797.56 526.248 1800.94 527.07 1803.97 528.676C1812.7 533.272 1817.75 544.624 1817.75 560.388V629.328C1817.73 629.778 1817.6 630.215 1817.38 630.606C1817.15 630.997 1816.84 631.331 1816.47 631.58Z" fill="#65C2F5"/>
<path d="M1817.8 560.572V631.029L1735.07 583.23C1735.12 582.986 1735.22 582.753 1735.35 582.541C1744.22 560.388 1759.15 541.591 1775.38 532.307C1780.99 528.746 1787.44 526.732 1794.08 526.47C1808.75 526.286 1817.8 539.384 1817.8 560.572Z" fill="#0487E2"/>
<path d="M1666.41 595.502L1673.72 591.274C1675.27 590.569 1676.99 590.287 1678.69 590.457C1680.4 590.626 1682.02 591.241 1683.41 592.239C1687.43 594.86 1690.77 598.389 1693.16 602.541C1695.56 606.693 1696.94 611.351 1697.2 616.138C1697.37 617.819 1697.09 619.515 1696.4 621.055C1695.7 622.596 1694.62 623.927 1693.25 624.916L1686.49 628.823L1685.25 626.755C1683.86 626.45 1682.53 625.939 1681.3 625.238C1677.28 622.617 1673.94 619.088 1671.55 614.936C1669.15 610.783 1667.77 606.125 1667.51 601.339C1667.52 600.148 1667.66 598.961 1667.92 597.8L1666.41 595.502Z" fill="#E0E0E0"/>
<path d="M1676.47 596.283C1680.48 598.896 1683.82 602.418 1686.22 606.562C1688.61 610.706 1690 615.357 1690.26 620.136C1690.26 628.96 1684.06 632.499 1676.47 628.133C1672.46 625.51 1669.12 621.98 1666.73 617.828C1664.33 613.676 1662.95 609.02 1662.68 604.234C1662.64 595.456 1668.84 591.871 1676.47 596.283Z" fill="#FAFAFA"/>
<path d="M1676.47 616C1675.41 616 1674.4 615.579 1673.65 614.829C1672.9 614.079 1672.47 613.062 1672.47 612.002V498.894C1672.47 497.834 1672.9 496.816 1673.65 496.067C1674.4 495.317 1675.41 494.896 1676.47 494.896C1677.53 494.896 1678.55 495.317 1679.3 496.067C1680.05 496.816 1680.47 497.834 1680.47 498.894V612.002C1680.47 613.062 1680.05 614.079 1679.3 614.829C1678.55 615.579 1677.53 616 1676.47 616Z" fill="#EBEBEB"/>
<path d="M1672.47 510.062L1632.4 486.944L1644.94 511.073L1632.4 520.725L1672.47 543.889V510.062Z" fill="#35BC88"/>
<mask id="mask0_4039_151" style="mask-type:luminance" maskUnits="userSpaceOnUse" x="1727" y="526" width="91" height="168">
<path d="M1817.8 560.572C1817.8 539.568 1808.61 526.47 1794.13 526.47C1787.49 526.732 1781.04 528.746 1775.42 532.307C1759.2 541.499 1744.26 560.388 1735.39 582.541C1735.26 582.753 1735.17 582.986 1735.12 583.23C1730.52 594.427 1728.04 606.38 1727.81 618.482V693.718L1817.8 641.783V560.572Z" fill="white"/>
</mask>
<g mask="url(#mask0_4039_151)">
<path d="M1796.93 583.552C1796.91 582.937 1796.73 582.338 1796.43 581.803C1796.13 581.268 1795.7 580.812 1795.19 580.473L1704.55 528.17C1704 527.899 1703.4 527.757 1702.78 527.757C1702.17 527.757 1701.57 527.899 1701.02 528.17L1698.99 529.319C1698.48 529.659 1698.05 530.115 1697.75 530.65C1697.45 531.185 1697.27 531.784 1697.25 532.398V601.936C1697.28 602.548 1697.46 603.143 1697.76 603.677C1698.07 604.21 1698.49 604.668 1698.99 605.015L1789.76 657.088C1790.31 657.359 1790.92 657.501 1791.53 657.501C1792.15 657.501 1792.75 657.359 1793.3 657.088L1795.32 655.939C1795.84 655.599 1796.26 655.144 1796.57 654.608C1796.87 654.073 1797.04 653.474 1797.07 652.86L1796.93 583.552Z" fill="#F0F0F0"/>
<path d="M1796.43 581.714L1791.42 584.609L1697.84 530.56C1698.15 530.023 1698.57 529.566 1699.08 529.227L1701.11 528.078C1701.65 527.785 1702.26 527.631 1702.88 527.631C1703.49 527.631 1704.1 527.785 1704.65 528.078L1795.28 580.381C1795.76 580.731 1796.15 581.187 1796.43 581.714Z" fill="#FAFAFA"/>
<path d="M1796.93 583.552V652.997C1796.91 653.612 1796.73 654.211 1796.43 654.746C1796.13 655.281 1795.7 655.737 1795.19 656.077L1793.16 657.226L1792.71 657.455H1791.97C1791.5 657.547 1791.02 657.547 1790.55 657.455H1790.22H1789.99C1790.13 657.524 1790.28 657.56 1790.43 657.56C1790.58 657.56 1790.73 657.524 1790.87 657.455C1791.05 657.332 1791.2 657.16 1791.3 656.957C1791.4 656.755 1791.44 656.53 1791.42 656.306V586.631C1791.43 586.316 1791.34 586.005 1791.17 585.741C1791 585.478 1790.75 585.275 1790.45 585.16L1791.42 584.609L1796.43 581.713C1796.76 582.27 1796.93 582.905 1796.93 583.552Z" fill="#E0E0E0"/>
<path d="M1791.42 584.609L1749.41 600.281C1747.96 600.815 1746.37 600.843 1744.9 600.359C1743.43 599.875 1742.17 598.908 1741.32 597.616L1734.61 587.321L1697.43 530.33L1733.23 587.688L1697.25 601.936C1697.28 602.555 1697.47 603.156 1697.8 603.682L1733.37 587.964L1741.18 600.511C1742.05 601.907 1743.4 602.941 1744.97 603.423C1746.54 603.904 1748.23 603.801 1749.73 603.131L1755.29 600.695L1790.87 657.088C1791.05 656.964 1791.2 656.792 1791.3 656.59C1791.4 656.387 1791.44 656.162 1791.42 655.939V654.79L1755.48 600.281L1791.42 584.609Z" fill="#E0E0E0"/>
</g>
<path d="M1878.15 572.154L1868.54 580.151C1866.03 583.849 1863.28 587.381 1860.31 590.722L1832.74 622.572L1822.99 633.832L1760.3 670.049L1730.34 694.913H1730.02C1729.12 695.06 1728.2 694.915 1727.4 694.5L1724.59 692.891C1724.36 692.755 1724.16 692.568 1724 692.345C1723.85 692.121 1723.74 691.866 1723.7 691.598C1723.66 691.33 1723.67 691.055 1723.75 690.794C1723.82 690.533 1723.95 690.292 1724.13 690.087L1746.01 664.809L1759.8 648.769C1785.41 620.784 1814.8 596.512 1847.12 576.658C1860.08 569.213 1868.17 566.639 1871.07 568.431L1877.64 572.246C1877.64 572.246 1878.1 572.154 1878.15 572.154Z" fill="#65C2F5"/>
<path d="M1867.07 594.675L1848.68 615.678L1848.32 616.138L1831.13 636.039C1830.1 637.162 1828.93 638.137 1827.64 638.934L1731.12 694.546C1730.79 694.736 1730.44 694.861 1730.06 694.913H1730.02L1764.76 654.79L1766.78 652.492C1792.41 624.533 1821.8 600.279 1854.11 580.427C1866.75 573.119 1874.84 570.5 1877.92 572.016C1881.68 574.084 1878.19 581.852 1867.07 594.675Z" fill="#0463CA"/>
</g>
<defs>
<clipPath id="clip0_4039_151">
<rect width="2128" height="1848" fill="white"/>
</clipPath>
</defs>
</svg>
