<svg width="2003" height="1952" viewBox="0 0 2003 1952" fill="none" xmlns="http://www.w3.org/2000/svg">
<g clip-path="url(#clip0_4042_2)">
<path d="M293.669 1779.01C684.742 2009.9 1318.87 2009.9 1709.99 1779.01C2101.1 1548.13 2101.1 1173.8 1709.99 942.958C1318.87 712.12 684.742 712.076 293.626 942.958C-97.4906 1173.84 -97.4473 1548.26 293.669 1779.01Z" fill="#F5F5F5"/>
<path d="M1606.02 1730.62C1711.83 1730.62 1797.61 1681.09 1797.61 1619.99C1797.61 1558.89 1711.83 1509.36 1606.02 1509.36C1500.2 1509.36 1414.43 1558.89 1414.43 1619.99C1414.43 1681.09 1500.2 1730.62 1606.02 1730.62Z" fill="#E0E0E0"/>
<path d="M1485.83 195.846L1519.09 215.057C1518.91 213.618 1518.81 212.17 1518.78 210.72V201.006C1518.78 183.66 1530.84 176.895 1545.67 185.481C1552.05 189.406 1557.52 194.656 1561.71 200.876C1564.14 179.193 1581.04 171.301 1601.59 183.14C1623.79 196.149 1641.79 227.156 1641.79 252.829V267.227C1641.93 272.976 1640.78 278.684 1638.4 283.922L1665.98 299.881C1670.35 302.729 1673.97 306.573 1676.57 311.096C1679.16 315.619 1680.64 320.693 1680.89 325.901C1680.89 335.398 1674.22 339.258 1665.98 334.574L1485.83 230.495C1481.47 227.647 1477.84 223.804 1475.25 219.281C1472.65 214.758 1471.17 209.684 1470.92 204.476C1471.01 194.935 1477.6 190.902 1485.83 195.846Z" fill="#EBEBEB"/>
<path d="M1343.54 292.726L1368.64 307.21C1368.51 306.116 1368.43 305.016 1368.43 303.914V296.629C1368.43 283.619 1377.53 278.458 1388.72 284.92C1393.54 287.871 1397.67 291.837 1400.81 296.542C1402.63 280.28 1415.38 274.208 1430.9 283.142C1439.74 288.907 1447.09 296.674 1452.36 305.814C1457.64 314.954 1460.68 325.208 1461.25 335.745V346.63C1461.37 350.962 1460.49 355.264 1458.69 359.206L1479.5 371.262C1482.78 373.391 1485.51 376.265 1487.47 379.648C1489.43 383.032 1490.56 386.829 1490.78 390.733C1490.78 397.932 1485.75 400.837 1479.5 397.238L1343.54 318.702C1340.27 316.581 1337.55 313.721 1335.59 310.354C1333.63 306.987 1332.49 303.206 1332.27 299.317C1332.27 292.032 1337.34 289.126 1343.54 292.726Z" fill="#EBEBEB"/>
<path d="M230.499 1112.95C228.028 1114.3 182.807 1127.18 165.898 1104.97C148.989 1082.77 176.954 1048.21 161.216 1035.59C145.477 1022.97 101.341 1035.59 90.7186 1008.83C80.0963 982.073 111.573 970.451 93.8836 943.434C82.741 926.435 55.3399 916.894 52.912 901.152C48.9232 874.872 92.4528 862.773 129.739 887.622C167.025 912.471 189.527 901.065 201.364 899.374C213.2 897.683 238.65 901.412 237.826 942.74C237.002 984.068 230.499 1112.95 230.499 1112.95Z" fill="#1BA37D"/>
<path d="M233.49 1053.89C232.902 1053.89 232.332 1053.69 231.885 1053.3C231.439 1052.92 231.146 1052.39 231.062 1051.81C218.056 973.053 126.531 908.915 78.9256 895.168C78.2931 894.99 77.7574 894.567 77.4362 893.994C77.1151 893.421 77.0348 892.743 77.213 892.111C77.3912 891.478 77.8134 890.942 78.3866 890.621C78.9598 890.3 79.6372 890.219 80.2696 890.398C128.959 904.492 222.608 970.191 235.918 1050.85C236.018 1051.5 235.861 1052.15 235.479 1052.68C235.097 1053.21 234.523 1053.56 233.881 1053.67L233.49 1053.89Z" fill="white"/>
<path d="M125.534 987.971C124.988 987.99 124.452 987.825 124.012 987.502C123.572 987.179 123.254 986.717 123.109 986.191C122.963 985.664 123 985.105 123.211 984.601C123.423 984.098 123.798 983.681 124.276 983.418C125.75 982.507 160.956 961.735 195.684 971.535C196.313 971.727 196.845 972.154 197.168 972.727C197.491 973.301 197.58 973.976 197.418 974.614C197.236 975.239 196.816 975.767 196.248 976.083C195.68 976.4 195.01 976.48 194.383 976.306C161.649 967.155 126.964 987.451 126.964 987.668C126.527 987.906 126.03 988.011 125.534 987.971Z" fill="white"/>
<path d="M248.058 1143.22C248.521 1149.53 250.462 1155.64 253.723 1161.05C256.984 1166.47 261.475 1171.04 266.831 1174.4L792.871 1477.97C798.689 1480.92 805.121 1482.46 811.645 1482.46C818.168 1482.46 824.6 1480.92 830.418 1477.97L1550.13 1062.3C1555.8 1059.31 1560.55 1054.82 1563.86 1049.33C1567.18 1043.83 1568.93 1037.54 1568.93 1031.12C1568.93 1024.71 1567.18 1018.41 1563.86 1012.92C1560.55 1007.42 1555.8 1002.94 1550.13 999.941L1024.13 696.378C1018.32 693.425 1011.88 691.887 1005.36 691.887C998.837 691.887 992.405 693.425 986.587 696.378L266.874 1112.04C261.51 1115.4 257.011 1119.97 253.742 1125.38C250.473 1130.8 248.526 1136.91 248.058 1143.22Z" fill="#37474F"/>
<path d="M811.645 1442.02V1482.65C805.12 1482.83 798.658 1481.34 792.872 1478.31L266.831 1174.75C261.332 1171.85 256.698 1167.55 253.404 1162.27C250.11 1157 248.272 1150.95 248.078 1144.73C247.884 1138.52 249.341 1132.36 252.3 1126.89C255.26 1121.43 259.615 1116.84 264.924 1113.6C256.512 1119.63 257.163 1128.48 266.831 1134.07L792.872 1437.64C798.654 1440.67 805.116 1442.18 811.645 1442.02Z" fill="#263238"/>
<path d="M230.455 1112.69C225.221 1109.15 220.898 1104.42 217.839 1098.89C214.78 1093.36 213.072 1087.18 212.853 1080.86V452.963C213.208 446.448 215.094 440.109 218.355 434.458C221.617 428.808 226.163 424.005 231.626 420.439L951.338 4.81771C956.923 1.85878 963.125 0.254324 969.444 0.133798C975.762 0.0132708 982.021 1.38005 987.714 4.12386C992.952 7.67653 997.28 12.4138 1000.35 17.9517C1003.41 23.4895 1005.13 29.672 1005.36 35.998V663.853C1005.01 670.37 1003.13 676.712 999.867 682.364C996.605 688.015 992.055 692.817 986.587 696.378L266.874 1112.04C261.284 1115.01 255.071 1116.62 248.743 1116.73C242.414 1116.84 236.148 1115.46 230.455 1112.69Z" fill="#455A64"/>
<path d="M264.62 1113.17C259.238 1115.6 253.388 1116.81 247.484 1116.73C241.581 1116.65 235.768 1115.27 230.455 1112.69C225.228 1109.14 220.911 1104.41 217.853 1098.88C214.795 1093.35 213.082 1087.18 212.853 1080.86V452.963C213.065 446.433 214.962 440.07 218.359 434.489L253.564 454.785C250.192 460.376 248.298 466.733 248.058 473.259V1101.2C248.058 1112.3 255.298 1117.29 264.62 1113.17Z" fill="#263238"/>
<path d="M248.058 473.302V1101.2C248.058 1113.17 256.469 1118.03 266.831 1112.04L986.543 696.378C992.011 692.817 996.561 688.015 999.823 682.363C1003.09 676.712 1004.97 670.37 1005.32 663.853V35.998C1005.32 24.0289 996.906 19.1719 986.543 25.1564L266.831 440.778C261.37 444.346 256.826 449.149 253.565 454.8C250.303 460.45 248.417 466.788 248.058 473.302Z" fill="#37474F"/>
<path d="M266.831 1133.73L792.872 1437.29C798.689 1440.24 805.121 1441.78 811.645 1441.78C818.169 1441.78 824.6 1440.24 830.418 1437.29L1550.13 1021.62C1560.49 1015.64 1560.49 1005.93 1550.13 999.941L1024.13 696.378C1018.32 693.425 1011.88 691.887 1005.36 691.887C998.837 691.887 992.405 693.425 986.587 696.378L266.874 1112.04C256.469 1118.03 256.469 1127.61 266.831 1133.73Z" fill="#455A64"/>
<path d="M276.933 475.644L970.632 75.0276C976.875 71.4282 981.904 74.3338 981.904 81.5326V625.04C981.696 628.952 980.566 632.758 978.607 636.15C976.648 639.541 973.915 642.421 970.632 644.555L276.933 1045.22C270.689 1048.81 265.66 1045.91 265.66 1038.71V495.159C265.869 491.248 266.998 487.441 268.957 484.05C270.916 480.658 273.649 477.778 276.933 475.644Z" fill="white"/>
<path opacity="0.6" d="M276.933 475.644L970.632 75.0276C976.875 71.4282 981.904 74.3338 981.904 81.5326V625.04C981.696 628.952 980.566 632.758 978.607 636.15C976.648 639.541 973.915 642.421 970.632 644.555L276.933 1045.22C270.689 1048.81 265.66 1045.91 265.66 1038.71V495.159C265.869 491.248 266.998 487.441 268.957 484.05C270.916 480.658 273.649 477.778 276.933 475.644Z" fill="#0487E2"/>
<path d="M622.395 441.255C640.865 430.587 655.866 439.26 655.866 460.596C655.23 472.205 651.869 483.5 646.053 493.566C640.238 503.632 632.133 512.186 622.395 518.533C603.925 529.201 588.967 520.571 588.967 499.235C589.591 487.623 592.943 476.322 598.751 466.248C604.559 456.174 612.659 447.611 622.395 441.255Z" fill="#F0F0F0"/>
<path d="M688.34 555.395C688.34 520.355 663.714 504.786 633.364 522.306L614.418 533.495C584.068 550.841 559.442 593.643 559.442 628.9V638.354L688.34 563.938V555.395Z" fill="#F0F0F0"/>
<path d="M753.504 572.524C752.29 569.705 749.169 569.011 745.657 571.006L520.551 701.104C518.134 702.696 516.123 704.83 514.677 707.338C513.232 709.845 512.393 712.656 512.227 715.545V741.999C512.227 746.335 514.915 748.72 518.557 747.723L519.164 747.506C519.638 747.316 520.102 747.098 520.551 746.856L745.657 616.757C748.083 615.176 750.102 613.044 751.549 610.534C752.996 608.025 753.829 605.209 753.981 602.316V575.993C754.022 574.818 753.86 573.644 753.504 572.524Z" fill="#F0F0F0"/>
<path d="M540.885 704.4C545.221 701.842 548.82 703.923 548.82 708.954C548.68 711.704 547.887 714.381 546.507 716.764C545.128 719.147 543.201 721.167 540.885 722.657C536.55 725.173 532.995 723.134 532.995 718.061C533.137 715.322 533.926 712.656 535.298 710.281C536.669 707.907 538.584 705.891 540.885 704.4Z" fill="#1BA37D"/>
<path d="M567.072 689.266C571.408 686.751 574.963 688.789 574.963 693.863C574.821 696.601 574.032 699.268 572.66 701.642C571.289 704.017 569.374 706.032 567.072 707.523C562.737 710.082 559.138 708 559.138 703.186C559.244 700.399 560.021 697.678 561.402 695.255C562.783 692.832 564.728 690.777 567.072 689.266Z" fill="#1BA37D"/>
<path d="M593.216 674.174C597.552 671.659 601.107 673.697 601.107 678.728C600.972 681.474 600.186 684.149 598.814 686.531C597.442 688.914 595.523 690.936 593.216 692.431C588.881 694.947 585.282 692.908 585.282 687.878C585.422 685.128 586.215 682.45 587.595 680.068C588.974 677.685 590.901 675.664 593.216 674.174Z" fill="#1BA37D"/>
<path d="M619.36 659.256C623.696 656.698 627.294 658.779 627.294 663.593C627.154 666.343 626.361 669.02 624.982 671.403C623.602 673.786 621.675 675.806 619.36 677.297C615.024 679.812 611.469 677.774 611.469 672.96C611.605 670.214 612.391 667.539 613.763 665.156C615.135 662.774 617.053 660.751 619.36 659.256Z" fill="#1BA37D"/>
<path d="M645.504 643.948C649.84 641.433 653.438 643.471 653.438 648.545C653.281 651.291 652.481 653.962 651.103 656.342C649.725 658.722 647.807 660.745 645.504 662.249C641.169 664.764 637.613 662.726 637.613 657.652C637.766 654.91 638.559 652.241 639.929 649.861C641.3 647.481 643.209 645.456 645.504 643.948Z" fill="#1BA37D"/>
<path d="M671.691 628.9C676.027 626.385 679.582 628.423 679.582 633.236C679.447 635.983 678.66 638.657 677.289 641.04C675.917 643.423 673.998 645.445 671.691 646.94C667.355 649.455 663.757 647.417 663.757 642.604C663.897 639.853 664.69 637.176 666.069 634.793C667.449 632.41 669.376 630.39 671.691 628.9Z" fill="#1BA37D"/>
<path d="M697.835 613.765C702.171 611.25 705.726 613.288 705.726 618.318C705.591 621.065 704.805 623.739 703.433 626.122C702.061 628.505 700.142 630.527 697.835 632.022C693.5 634.537 689.944 632.499 689.944 627.469C690.08 624.722 690.866 622.048 692.238 619.665C693.61 617.282 695.528 615.26 697.835 613.765Z" fill="#1BA37D"/>
<path d="M723.979 598.544C728.314 596.028 731.913 598.067 731.913 603.141C731.756 605.887 730.956 608.557 729.577 610.938C728.199 613.318 726.282 615.341 723.979 616.844C719.643 619.359 716.088 617.321 716.088 612.247C716.247 609.507 717.043 606.841 718.413 604.462C719.783 602.083 721.689 600.057 723.979 598.544Z" fill="#1BA37D"/>
<path d="M327.877 1117.46L995.952 731.505C998.862 730.03 1002.08 729.262 1005.34 729.262C1008.6 729.262 1011.82 730.03 1014.73 731.505L1048.89 751.236C1050.02 751.621 1051.01 752.35 1051.7 753.322C1052.4 754.295 1052.77 755.461 1052.77 756.657C1052.77 757.853 1052.4 759.019 1051.7 759.992C1051.01 760.964 1050.02 761.693 1048.89 762.078L380.728 1147.99C377.819 1149.47 374.603 1150.24 371.341 1150.24C368.08 1150.24 364.864 1149.47 361.955 1147.99L327.877 1128.3C326.744 1127.92 325.761 1127.19 325.064 1126.22C324.367 1125.25 323.993 1124.08 323.993 1122.88C323.993 1121.69 324.367 1120.52 325.064 1119.55C325.761 1118.58 326.744 1117.85 327.877 1117.46Z" fill="#37474F"/>
<path d="M415.933 1168.33L1084.01 782.373C1086.92 780.898 1090.13 780.13 1093.39 780.13C1096.66 780.13 1099.87 780.898 1102.78 782.373L1312.97 903.798C1314.1 904.182 1315.09 904.912 1315.79 905.884C1316.48 906.856 1316.86 908.023 1316.86 909.219C1316.86 910.415 1316.48 911.581 1315.79 912.553C1315.09 913.526 1314.1 914.255 1312.97 914.64L645.677 1299.99C642.757 1301.46 639.536 1302.22 636.269 1302.22C633.002 1302.22 629.781 1301.46 626.861 1299.99L415.976 1179.09C414.852 1178.71 413.875 1177.99 413.181 1177.03C412.487 1176.07 412.111 1174.91 412.106 1173.72C412.102 1172.54 412.468 1171.38 413.154 1170.41C413.84 1169.45 414.812 1168.72 415.933 1168.33Z" fill="#263238"/>
<path d="M1014.81 956.097L1035.75 943.998C1036.62 943.478 1036.58 942.611 1035.75 942.09L1011.43 928.126C1010.91 927.86 1010.34 927.721 1009.76 927.721C1009.18 927.721 1008.61 927.86 1008.09 928.126L987.151 940.225C986.283 940.702 986.327 941.57 987.151 942.134L1011.34 956.097C1011.88 956.386 1012.47 956.537 1013.08 956.537C1013.68 956.537 1014.28 956.386 1014.81 956.097ZM973.537 908.091L952.639 920.147C951.729 920.667 951.772 921.535 952.639 922.098L976.832 936.062C977.351 936.319 977.922 936.452 978.501 936.452C979.08 936.452 979.651 936.319 980.17 936.062L1001.11 923.963C1001.98 923.443 1001.94 922.575 1001.11 922.055L976.745 908.178C976.252 907.919 975.707 907.777 975.151 907.762C974.595 907.747 974.043 907.86 973.537 908.091ZM905.944 947.121L870.566 967.546C869.655 968.067 869.742 968.934 870.566 969.498L894.715 983.462C895.234 983.718 895.805 983.851 896.384 983.851C896.963 983.851 897.534 983.718 898.054 983.462L933.476 963.036C934.343 962.516 934.299 961.648 933.476 961.128L909.283 947.121C908.764 946.864 908.193 946.731 907.614 946.731C907.035 946.731 906.464 946.864 905.944 947.121ZM942.971 925.741L922.03 937.84C921.162 938.317 921.206 939.185 922.03 939.748L946.396 953.712C946.915 953.969 947.486 954.102 948.065 954.102C948.644 954.102 949.215 953.969 949.734 953.712L970.632 941.613C971.542 941.093 971.499 940.225 970.632 939.705L946.396 925.828C945.876 925.534 945.291 925.372 944.694 925.357C944.097 925.341 943.505 925.473 942.971 925.741ZM860.897 973.14L840 985.196C839.089 985.717 839.133 986.584 840 987.148L864.192 1001.11C864.709 1001.38 865.281 1001.52 865.862 1001.52C866.442 1001.52 867.015 1001.38 867.531 1001.11L888.472 989.056C889.339 988.535 889.296 987.668 888.472 987.104L864.279 973.14C863.754 972.877 863.175 972.74 862.588 972.74C862.001 972.74 861.422 972.877 860.897 973.14ZM830.331 990.79L809.434 1002.85C808.523 1003.37 808.566 1004.23 809.434 1004.8L833.67 1018.76C834.189 1019.02 834.76 1019.15 835.339 1019.15C835.918 1019.15 836.489 1019.02 837.008 1018.76L857.949 1006.66C858.816 1006.14 858.773 1005.27 857.949 1004.75L833.67 990.877C833.16 990.597 832.592 990.444 832.011 990.428C831.43 990.413 830.854 990.538 830.331 990.79ZM925.455 1047.6L946.396 1035.5C947.263 1034.98 947.22 1034.11 946.396 1033.59L922.203 1019.63C921.687 1019.36 921.115 1019.22 920.534 1019.22C919.953 1019.22 919.381 1019.36 918.865 1019.63L897.967 1031.73C897.056 1032.21 897.143 1033.07 897.967 1033.64L922.116 1047.6C922.632 1047.87 923.205 1048.01 923.786 1048.01C924.366 1048.01 924.939 1047.87 925.455 1047.6ZM895.105 1065.25L916.046 1053.15C916.914 1052.63 916.87 1051.81 916.046 1051.24L891.854 1037.28C891.338 1037.01 890.765 1036.87 890.184 1036.87C889.604 1036.87 889.031 1037.01 888.515 1037.28L867.618 1049.38C866.707 1049.9 866.75 1050.72 867.618 1051.29L891.81 1065.25C892.292 1065.47 892.818 1065.59 893.349 1065.59C893.881 1065.59 894.407 1065.47 894.889 1065.25H895.105ZM864.539 1082.9L885.48 1070.8C886.347 1070.32 886.304 1069.46 885.48 1068.89L861.288 1054.93C860.771 1054.66 860.199 1054.52 859.618 1054.52C859.038 1054.52 858.465 1054.66 857.949 1054.93L836.705 1066.9C835.794 1067.42 835.837 1068.29 836.705 1068.81L860.897 1082.77C861.414 1083.07 861.996 1083.24 862.594 1083.26C863.191 1083.29 863.785 1083.16 864.323 1082.9H864.539ZM834.19 1100.55L855.131 1088.45C855.998 1087.97 855.955 1087.11 855.131 1086.54L830.938 1072.58C830.419 1072.32 829.848 1072.19 829.269 1072.19C828.69 1072.19 828.119 1072.32 827.6 1072.58L806.659 1084.68C805.792 1085.2 805.835 1086.07 806.659 1086.59L830.852 1100.55C831.298 1100.74 831.777 1100.83 832.261 1100.83C832.744 1100.83 833.223 1100.74 833.67 1100.55H834.19ZM984.679 973.747L1005.58 961.648C1006.49 961.128 1006.44 960.304 1005.58 959.74L981.081 945.776C980.565 945.51 979.992 945.371 979.412 945.371C978.831 945.371 978.258 945.51 977.742 945.776L956.801 957.875C955.934 958.396 955.977 959.22 956.801 959.784L981.081 973.661C981.568 973.913 982.105 974.051 982.653 974.066C983.201 974.081 983.746 973.972 984.246 973.747H984.679ZM956.498 1030.12L1002.76 1002.98C1003.63 1002.46 1003.58 1001.59 1002.76 1001.07L943.838 967.156C943.322 966.89 942.749 966.751 942.169 966.751C941.588 966.751 941.015 966.89 940.499 967.156L916.393 981.076C915.483 981.597 915.526 982.464 916.393 983.028L947.523 1000.98C948.477 1001.55 948.52 1002.41 947.523 1002.89L928.23 1014.03C927.319 1014.56 927.406 1015.42 928.23 1015.99L952.422 1029.95C952.98 1030.26 953.606 1030.42 954.243 1030.42C954.88 1030.42 955.506 1030.26 956.064 1029.95L956.498 1030.12ZM800.415 1008.44L779.474 1020.54C778.607 1021.02 778.651 1021.88 779.474 1022.45L803.32 1036.54C803.839 1036.8 804.411 1036.93 804.99 1036.93C805.568 1036.93 806.14 1036.8 806.659 1036.54L827.556 1024.44C828.467 1023.92 828.424 1023.05 827.556 1022.53L803.32 1008.53C802.785 1008.21 802.176 1008.04 801.554 1008.02C800.932 1008.01 800.316 1008.15 799.765 1008.44H800.415ZM769.849 1026.09L748.908 1038.19C748.041 1038.71 748.085 1039.53 748.908 1040.1L773.101 1054.06C773.617 1054.33 774.19 1054.47 774.77 1054.47C775.351 1054.47 775.923 1054.33 776.44 1054.06L797.337 1041.96C798.248 1041.44 798.204 1040.57 797.337 1040.05L773.144 1026.09C772.556 1025.71 771.871 1025.51 771.172 1025.51C770.472 1025.51 769.787 1025.71 769.199 1026.09H769.849ZM617.062 1224.06C617.578 1224.32 618.151 1224.46 618.731 1224.46C619.312 1224.46 619.884 1224.32 620.401 1224.06L641.342 1211.96C642.209 1211.44 642.165 1210.57 641.342 1210.05L617.149 1196.09C616.633 1195.82 616.06 1195.68 615.48 1195.68C614.899 1195.68 614.327 1195.82 613.81 1196.09L592.913 1208.18C592.002 1208.66 592.046 1209.53 592.913 1210.09L617.062 1224.06ZM525.277 1167.33L503.686 1179.65C502.819 1180.13 502.862 1180.99 503.686 1181.56L527.879 1195.52C528.398 1195.78 528.969 1195.91 529.548 1195.91C530.127 1195.91 530.698 1195.78 531.217 1195.52L552.115 1183.42C553.025 1182.9 552.982 1182.04 552.115 1181.51L527.922 1167.55C527.429 1167.26 526.873 1167.09 526.3 1167.05C525.728 1167.01 525.154 1167.11 524.627 1167.33H525.277ZM574.486 1208.75C575.003 1209.01 575.575 1209.15 576.156 1209.15C576.736 1209.15 577.309 1209.01 577.825 1208.75L598.722 1196.65C599.633 1196.13 599.546 1195.26 598.722 1194.74L574.53 1180.78C574.014 1180.51 573.441 1180.37 572.861 1180.37C572.28 1180.37 571.708 1180.51 571.191 1180.78L550.294 1192.88C549.427 1193.4 549.47 1194.22 550.294 1194.78L574.486 1208.75ZM671.041 1234.77L691.982 1222.67C692.849 1222.15 692.805 1221.28 691.982 1220.76L667.789 1206.8C667.273 1206.53 666.7 1206.39 666.12 1206.39C665.539 1206.39 664.967 1206.53 664.45 1206.8L642.902 1218.68C641.992 1219.16 642.035 1220.02 642.902 1220.59L667.095 1234.55C667.589 1234.84 668.142 1235.02 668.713 1235.06C669.284 1235.11 669.857 1235.02 670.39 1234.81L671.041 1234.77ZM637.136 1252.11C637.652 1252.38 638.225 1252.52 638.805 1252.52C639.386 1252.52 639.958 1252.38 640.475 1252.11L661.416 1240.02C662.283 1239.5 662.239 1238.63 661.416 1238.11L637.223 1224.14C636.707 1223.88 636.134 1223.74 635.554 1223.74C634.973 1223.74 634.401 1223.88 633.884 1224.14L612.943 1236.24C612.076 1236.72 612.12 1237.59 612.943 1238.15L637.136 1252.11ZM555.843 1149.42L534.902 1161.48C534.035 1162 534.078 1162.87 534.902 1163.43L559.095 1177.39C559.614 1177.65 560.185 1177.78 560.764 1177.78C561.343 1177.78 561.914 1177.65 562.433 1177.39L583.331 1165.3C584.242 1164.78 584.198 1163.91 583.331 1163.39L559.138 1149.38C558.517 1149.06 557.819 1148.92 557.123 1148.97C556.426 1149.03 555.758 1149.27 555.193 1149.68L555.843 1149.42ZM707.937 1061.39L686.996 1073.49C686.129 1074.01 686.172 1074.88 686.996 1075.4L711.188 1089.36C711.705 1089.63 712.277 1089.77 712.858 1089.77C713.438 1089.77 714.011 1089.63 714.527 1089.36L735.425 1077.26C736.335 1076.79 736.248 1075.92 735.425 1075.35L711.232 1061.39C710.72 1061.13 710.156 1061 709.584 1061C709.012 1061 708.448 1061.13 707.937 1061.39ZM585.759 1131.95L564.861 1144.09C563.951 1144.61 563.994 1145.48 564.861 1146.04L589.054 1160.01C589.57 1160.27 590.143 1160.41 590.723 1160.41C591.304 1160.41 591.876 1160.27 592.393 1160.01L613.334 1147.95C614.201 1147.43 614.157 1146.56 613.334 1146L589.097 1131.95C588.578 1131.69 588.007 1131.56 587.428 1131.56C586.849 1131.56 586.278 1131.69 585.759 1131.95ZM738.633 1043.65L717.692 1055.75C716.825 1056.27 716.868 1057.14 717.692 1057.66L741.885 1071.62C742.401 1071.89 742.973 1072.03 743.554 1072.03C744.135 1072.03 744.707 1071.89 745.223 1071.62L766.121 1059.53C767.031 1059.01 766.944 1058.18 766.121 1057.62L741.928 1043.65C741.411 1043.41 740.843 1043.29 740.27 1043.3C739.698 1043.32 739.137 1043.47 738.633 1043.74V1043.65ZM677.587 1079.04L656.69 1091.14C655.779 1091.66 655.866 1092.53 656.69 1093.05L680.882 1107.01C681.399 1107.28 681.971 1107.42 682.552 1107.42C683.132 1107.42 683.705 1107.28 684.221 1107.01L705.119 1094.96C705.986 1094.44 705.942 1093.57 705.119 1093L680.926 1079.04C680.407 1078.78 679.836 1078.65 679.257 1078.65C678.678 1078.65 678.107 1078.78 677.587 1079.04ZM647.021 1096.73L626.124 1108.79C625.213 1109.31 625.3 1110.18 626.124 1110.7L650.273 1124.71C650.792 1124.96 651.363 1125.09 651.942 1125.09C652.521 1125.09 653.092 1124.96 653.611 1124.71L674.552 1112.65C675.42 1112.13 675.376 1111.26 674.552 1110.7L650.36 1096.73C649.827 1096.45 649.231 1096.29 648.626 1096.29C648.02 1096.29 647.424 1096.45 646.891 1096.73H647.021ZM616.672 1114.38L595.774 1126.44C594.864 1126.96 594.907 1127.83 595.774 1128.39L619.967 1142.36C620.486 1142.61 621.057 1142.74 621.636 1142.74C622.215 1142.74 622.786 1142.61 623.305 1142.36L644.246 1130.3C645.114 1129.78 645.07 1128.91 644.246 1128.35L619.664 1114.6C619.144 1114.34 618.573 1114.21 617.994 1114.21C617.415 1114.21 616.844 1114.34 616.325 1114.6L616.672 1114.38ZM772.754 1135.85L793.652 1123.79C794.562 1123.27 794.476 1122.41 793.652 1121.84L769.459 1107.88C768.943 1107.61 768.371 1107.47 767.79 1107.47C767.209 1107.47 766.637 1107.61 766.121 1107.88L745.18 1119.93C744.313 1120.46 744.356 1121.32 745.18 1121.89L769.372 1135.85C769.88 1136.09 770.436 1136.22 770.998 1136.22C771.561 1136.22 772.116 1136.09 772.624 1135.85H772.754ZM1041.26 869.062L1020.1 881.161C1019.23 881.638 1019.28 882.505 1020.1 883.069L1044.29 897.033C1044.81 897.289 1045.38 897.422 1045.96 897.422C1046.54 897.422 1047.11 897.289 1047.63 897.033L1068.53 884.934C1069.44 884.413 1069.4 883.546 1068.53 883.026L1044.34 869.062C1043.84 868.817 1043.29 868.689 1042.73 868.689C1042.18 868.689 1041.63 868.817 1041.13 869.062H1041.26ZM1004.23 890.441L983.335 902.497C982.425 903.017 982.468 903.885 983.335 904.448L1007.53 918.412C1008.04 918.679 1008.62 918.817 1009.2 918.817C1009.78 918.817 1010.35 918.679 1010.87 918.412L1031.81 906.356C1032.67 905.836 1032.63 904.969 1031.81 904.405L1007.61 890.441C1007.07 890.156 1006.47 890.007 1005.86 890.007C1005.25 890.007 1004.64 890.156 1004.1 890.441H1004.23ZM1071.83 851.412L1050.88 863.467C1050.02 863.988 1050.06 864.855 1050.88 865.419L1075.08 879.383C1075.6 879.639 1076.17 879.772 1076.75 879.772C1077.33 879.772 1077.9 879.639 1078.42 879.383L1099.31 867.284C1100.22 866.763 1100.18 865.896 1099.31 865.375L1075.12 851.368C1074.59 851.105 1074 850.971 1073.4 850.979C1072.81 850.986 1072.22 851.134 1071.7 851.412H1071.83ZM913.445 1014.86L934.386 1002.76C935.253 1002.24 935.21 1001.37 934.386 1000.85L910.193 986.844C909.674 986.588 909.103 986.454 908.524 986.454C907.945 986.454 907.374 986.588 906.855 986.844L885.697 998.64C884.83 999.16 884.873 1000.03 885.697 1000.59L909.89 1014.56C910.411 1014.9 911.009 1015.1 911.629 1015.15C912.25 1015.21 912.873 1015.11 913.445 1014.86ZM1105.6 834.022C1105.08 833.766 1104.51 833.632 1103.93 833.632C1103.35 833.632 1102.78 833.766 1102.26 834.022L1081.36 845.731C1080.45 846.251 1080.5 847.118 1081.36 847.682L1105.56 861.646C1106.07 861.912 1106.64 862.051 1107.23 862.051C1107.81 862.051 1108.38 861.912 1108.89 861.646L1129.84 849.59C1130.7 849.07 1130.66 848.203 1129.84 847.639L1105.6 834.022ZM803.32 1118.2L824.218 1106.14C825.129 1105.62 825.085 1104.76 824.218 1104.19L800.025 1090.23C799.506 1089.97 798.935 1089.84 798.356 1089.84C797.777 1089.84 797.206 1089.97 796.687 1090.23L775.746 1102.33C774.879 1102.85 774.922 1103.72 775.746 1104.24L799.939 1118.24C800.467 1118.5 801.048 1118.63 801.635 1118.62C802.222 1118.61 802.799 1118.47 803.32 1118.2ZM1178.22 901.716L1199.12 889.617C1200.03 889.097 1199.99 888.229 1199.12 887.709L1174.93 873.745C1174.41 873.479 1173.84 873.34 1173.26 873.34C1172.68 873.34 1172.1 873.479 1171.59 873.745L1150.65 885.844C1149.78 886.321 1149.82 887.189 1150.65 887.752L1174.84 901.716C1175.34 901.968 1175.9 902.099 1176.47 902.099C1177.03 902.099 1177.59 901.968 1178.09 901.716H1178.22ZM1113.19 899.418L1134.08 887.319C1135 886.798 1134.95 885.931 1134.08 885.411L1109.89 871.447C1109.38 871.18 1108.8 871.042 1108.22 871.042C1107.64 871.042 1107.07 871.18 1106.55 871.447L1085.14 883.459C1084.27 883.936 1084.31 884.804 1085.14 885.367L1109.33 899.331C1109.87 899.664 1110.5 899.848 1111.14 899.863C1111.78 899.878 1112.41 899.725 1112.97 899.418H1113.19ZM1140.37 853.753C1139.85 853.497 1139.28 853.364 1138.7 853.364C1138.12 853.364 1137.55 853.497 1137.03 853.753L1116.09 865.809C1115.22 866.33 1115.27 867.197 1116.09 867.761L1140.28 881.725C1140.8 881.981 1141.37 882.114 1141.95 882.114C1142.53 882.114 1143.1 881.981 1143.62 881.725L1164.56 869.625C1165.43 869.105 1165.39 868.238 1164.56 867.717L1140.37 853.753ZM1146.79 850.067L1205.54 883.98C1206.05 884.236 1206.63 884.369 1207.2 884.369C1207.78 884.369 1208.36 884.236 1208.87 883.98L1229.82 871.88C1230.68 871.36 1230.64 870.493 1229.82 869.972L1171.07 836.017C1170.55 835.76 1169.98 835.627 1169.4 835.627C1168.82 835.627 1168.25 835.76 1167.73 836.017L1146.83 848.072C1145.57 848.636 1145.83 849.503 1146.57 850.067H1146.79ZM1075.9 889.097L1054.79 901.109C1053.92 901.63 1053.96 902.454 1054.79 903.017L1078.98 916.981C1079.5 917.247 1080.07 917.386 1080.65 917.386C1081.23 917.386 1081.8 917.247 1082.32 916.981L1103.22 904.882C1104.13 904.362 1104.08 903.538 1103.22 902.974L1079.02 889.097C1078.51 888.831 1077.93 888.692 1077.35 888.692C1076.77 888.692 1076.2 888.831 1075.68 889.097H1075.9ZM845.809 1021.97L824.868 1034.07C824.001 1034.59 824.045 1035.41 824.868 1035.98L849.061 1049.94C849.577 1050.21 850.15 1050.35 850.73 1050.35C851.311 1050.35 851.883 1050.21 852.4 1049.94L873.297 1037.84C874.208 1037.32 874.121 1036.5 873.297 1035.93L849.148 1021.97C848.612 1021.65 848.004 1021.48 847.382 1021.46C846.759 1021.45 846.143 1021.59 845.593 1021.88L845.809 1021.97ZM1144.19 919.453C1144.7 919.719 1145.28 919.858 1145.86 919.858C1146.44 919.858 1147.01 919.719 1147.53 919.453L1168.42 907.354C1169.33 906.834 1169.29 906.01 1168.42 905.446L1144.23 891.482C1143.71 891.216 1143.14 891.077 1142.56 891.077C1141.98 891.077 1141.41 891.216 1140.89 891.482L1119.82 903.408C1118.95 903.928 1119 904.752 1119.82 905.316L1144.19 919.453ZM876.159 1004.23L855.348 1016.33C854.481 1016.81 854.524 1017.68 855.348 1018.24L879.541 1032.21C880.057 1032.47 880.629 1032.61 881.21 1032.61C881.79 1032.61 882.363 1032.47 882.879 1032.21L903.777 1020.11C904.687 1019.59 904.644 1018.72 903.777 1018.2L879.584 1004.23C879.057 1003.95 878.469 1003.81 877.871 1003.81C877.274 1003.81 876.686 1003.95 876.159 1004.23ZM646.978 1206.41C647.497 1206.66 648.068 1206.8 648.647 1206.8C649.226 1206.8 649.797 1206.66 650.316 1206.41L671.257 1194.31C672.125 1193.79 672.081 1192.92 671.257 1192.4L647.065 1178.44C646.549 1178.17 645.976 1178.03 645.395 1178.03C644.815 1178.03 644.242 1178.17 643.726 1178.44L622.829 1190.53C621.918 1191.01 621.961 1191.88 622.829 1192.44L646.978 1206.41ZM601.02 1163.04L580.079 1175.31C579.212 1175.79 579.256 1176.66 580.079 1177.22L604.272 1191.19C604.791 1191.44 605.362 1191.57 605.941 1191.57C606.52 1191.57 607.091 1191.44 607.611 1191.19L628.508 1179.09C629.419 1178.57 629.332 1177.7 628.508 1177.18L604.359 1163.21C603.85 1162.93 603.281 1162.78 602.7 1162.77C602.119 1162.75 601.543 1162.87 601.02 1163.13V1163.04ZM680.882 1188.76L701.824 1176.66C702.691 1176.14 702.647 1175.27 701.824 1174.75L677.587 1160.83C677.068 1160.57 676.497 1160.44 675.918 1160.44C675.339 1160.44 674.768 1160.57 674.249 1160.83L653.351 1172.88C652.441 1173.41 652.528 1174.27 653.351 1174.84L677.587 1188.76C678.094 1189.02 678.654 1189.16 679.225 1189.18C679.796 1189.19 680.362 1189.08 680.882 1188.84V1188.76ZM711.492 1171.06L732.39 1159.01C733.257 1158.49 733.213 1157.62 732.39 1157.06L707.937 1143.18C707.418 1142.92 706.846 1142.79 706.268 1142.79C705.689 1142.79 705.117 1142.92 704.598 1143.18L683.701 1155.23C682.79 1155.76 682.877 1156.62 683.701 1157.19L707.893 1171.15C708.457 1171.44 709.085 1171.57 709.716 1171.54C710.347 1171.51 710.959 1171.32 711.492 1170.98V1171.06ZM742.058 1153.41L762.956 1141.36C763.866 1140.84 763.78 1139.97 762.956 1139.41L738.763 1125.44C738.251 1125.19 737.687 1125.05 737.115 1125.05C736.544 1125.05 735.98 1125.19 735.468 1125.44L714.527 1137.5C713.66 1138.02 713.703 1138.89 714.527 1139.45L738.72 1153.63C739.239 1153.89 739.81 1154.02 740.389 1154.02C740.968 1154.02 741.539 1153.89 742.058 1153.63V1153.41ZM631.586 1145.39L610.645 1157.45C609.778 1157.97 609.822 1158.83 610.645 1159.4L634.838 1173.36C635.357 1173.62 635.928 1173.75 636.507 1173.75C637.086 1173.75 637.658 1173.62 638.177 1173.36L659.074 1161.26C659.985 1160.74 659.941 1159.88 659.074 1159.35L634.882 1145.35C634.358 1145.12 633.79 1145.01 633.219 1145.03C632.648 1145.06 632.09 1145.21 631.586 1145.48V1145.39ZM662.153 1127.74L641.212 1139.8C640.344 1140.32 640.388 1141.18 641.212 1141.75L665.404 1155.71C665.92 1155.98 666.493 1156.12 667.074 1156.12C667.654 1156.12 668.227 1155.98 668.743 1155.71L689.64 1143.66C690.551 1143.14 690.508 1142.27 689.64 1141.7L665.448 1127.74C664.928 1127.5 664.361 1127.39 663.79 1127.4C663.219 1127.42 662.659 1127.56 662.153 1127.83V1127.74ZM784.417 1057.1L763.519 1069.2C762.609 1069.72 762.696 1070.58 763.519 1071.1L787.712 1085.07C788.221 1085.33 788.786 1085.47 789.36 1085.47C789.933 1085.47 790.499 1085.33 791.007 1085.07L811.948 1072.97C812.815 1072.49 812.772 1071.62 811.948 1071.06L787.755 1057.1C787.23 1056.85 786.655 1056.74 786.076 1056.75C785.497 1056.77 784.93 1056.91 784.417 1057.18V1057.1ZM754.068 1074.75L733.17 1086.85C732.26 1087.37 732.346 1088.23 733.17 1088.75L757.319 1102.76C757.839 1103.02 758.41 1103.15 758.989 1103.15C759.568 1103.15 760.139 1103.02 760.658 1102.76L781.599 1090.71C782.466 1090.19 782.423 1089.32 781.599 1088.75L757.406 1074.79C756.856 1074.51 756.243 1074.36 755.623 1074.37C755.003 1074.37 754.394 1074.53 753.851 1074.83L754.068 1074.75ZM815.243 1039.45L794.302 1051.55C793.435 1052.07 793.478 1052.93 794.302 1053.45L818.495 1067.42C819.011 1067.68 819.583 1067.82 820.164 1067.82C820.745 1067.82 821.317 1067.68 821.833 1067.42L842.731 1055.32C843.642 1054.84 843.555 1053.97 842.731 1053.41L818.538 1039.45C817.996 1039.16 817.387 1039.01 816.771 1039.03C816.155 1039.04 815.554 1039.22 815.027 1039.53L815.243 1039.45ZM692.719 1110.26L671.821 1122.32C670.911 1122.84 670.954 1123.71 671.821 1124.27L696.014 1138.24C696.533 1138.49 697.104 1138.62 697.683 1138.62C698.262 1138.62 698.833 1138.49 699.352 1138.24L720.293 1126.18C721.16 1125.66 721.117 1124.79 720.293 1124.23L696.057 1110.26C695.538 1110.01 694.967 1109.87 694.388 1109.87C693.809 1109.87 693.238 1110.01 692.719 1110.26ZM723.068 1092.61L702.17 1104.67C701.26 1105.19 701.303 1106.06 702.17 1106.62L726.363 1120.59C726.882 1120.84 727.453 1120.97 728.032 1120.97C728.611 1120.97 729.182 1120.84 729.702 1120.59L750.643 1108.53C751.51 1108.01 751.466 1107.14 750.643 1106.58L726.45 1092.61C725.963 1092.36 725.425 1092.22 724.877 1092.21C724.329 1092.19 723.785 1092.3 723.285 1092.53L723.068 1092.61ZM700.74 1217.25L721.681 1205.15C722.548 1204.63 722.504 1203.76 721.681 1203.24L697.488 1189.23C696.969 1188.98 696.398 1188.84 695.819 1188.84C695.24 1188.84 694.669 1188.98 694.15 1189.23L673.252 1201.33C672.341 1201.85 672.385 1202.72 673.252 1203.28L697.401 1217.25C697.955 1217.53 698.569 1217.67 699.19 1217.65C699.81 1217.64 700.417 1217.47 700.956 1217.16L700.74 1217.25ZM521.505 1199.03L497.356 1185.07C496.84 1184.8 496.267 1184.67 495.687 1184.67C495.106 1184.67 494.533 1184.8 494.017 1185.07L473.12 1197C472.253 1197.47 472.296 1198.34 473.12 1198.9L497.312 1212.87C497.829 1213.13 498.401 1213.27 498.982 1213.27C499.562 1213.27 500.135 1213.13 500.651 1212.87L521.548 1200.77C522.589 1200.42 522.502 1199.56 521.505 1199.03ZM567.333 1212.48L543.183 1198.51C542.667 1198.25 542.095 1198.11 541.514 1198.11C540.933 1198.11 540.361 1198.25 539.845 1198.51L507.675 1217.12C506.807 1217.64 506.851 1218.46 507.675 1219.03L531.867 1232.99C532.383 1233.26 532.956 1233.4 533.536 1233.4C534.117 1233.4 534.69 1233.26 535.206 1232.99L567.376 1214.39C568.373 1213.87 568.33 1213.04 567.376 1212.48H567.333ZM484.436 1172.02L460.286 1157.97C459.767 1157.71 459.196 1157.58 458.617 1157.58C458.038 1157.58 457.467 1157.71 456.948 1157.97L431.194 1172.84C430.284 1173.36 430.37 1174.23 431.194 1174.79L455.344 1188.76C455.863 1189.01 456.434 1189.15 457.013 1189.15C457.592 1189.15 458.163 1189.01 458.682 1188.76L484.436 1173.88C485.476 1173.45 485.433 1172.58 484.479 1172.02H484.436ZM504.163 1160.61C504.679 1160.88 505.251 1161.02 505.832 1161.02C506.413 1161.02 506.985 1160.88 507.501 1160.61L528.399 1148.51C529.309 1147.99 529.223 1147.17 528.399 1146.6L504.163 1132.73C503.647 1132.46 503.074 1132.32 502.493 1132.32C501.913 1132.32 501.34 1132.46 500.824 1132.73L479.883 1144.96C479.016 1145.48 479.059 1146.3 479.883 1146.87L504.163 1160.61ZM609.952 1227.79L585.759 1213.82C585.243 1213.56 584.671 1213.42 584.09 1213.42C583.509 1213.42 582.937 1213.56 582.421 1213.82L542.186 1237.07C541.319 1237.59 541.362 1238.45 542.186 1238.97L566.379 1252.94C566.895 1253.2 567.467 1253.34 568.048 1253.34C568.629 1253.34 569.201 1253.2 569.717 1252.94L609.908 1229.69C610.992 1229.17 610.949 1228.35 609.995 1227.79H609.952ZM630.026 1256.1L605.833 1242.14C605.317 1241.87 604.744 1241.74 604.164 1241.74C603.583 1241.74 603.011 1241.87 602.494 1242.14L576.741 1257.02C575.874 1257.54 575.917 1258.4 576.741 1258.92L600.934 1272.93C601.453 1273.19 602.024 1273.32 602.603 1273.32C603.182 1273.32 603.753 1273.19 604.272 1272.93L629.982 1258.06C631.066 1257.71 631.023 1256.67 629.896 1256.1H630.026ZM731.436 1029.34C731.952 1029.61 732.524 1029.75 733.105 1029.75C733.686 1029.75 734.258 1029.61 734.774 1029.34L755.715 1017.24C756.582 1016.77 756.539 1015.9 755.715 1015.34L731.523 1001.37C731.006 1001.11 730.434 1000.97 729.853 1000.97C729.273 1000.97 728.7 1001.11 728.184 1001.37L707.286 1013.47C706.376 1013.99 706.463 1014.86 707.286 1015.38L731.436 1029.34ZM670.304 1064.69C670.823 1064.94 671.394 1065.08 671.973 1065.08C672.552 1065.08 673.123 1064.94 673.642 1064.69L694.583 1052.63C695.45 1052.11 695.407 1051.24 694.583 1050.68L670.39 1036.72C669.871 1036.46 669.3 1036.33 668.721 1036.33C668.142 1036.33 667.571 1036.46 667.052 1036.72L646.154 1048.81C645.244 1049.33 645.287 1050.2 646.154 1050.72L670.304 1064.69ZM534.729 1142.96C535.245 1143.23 535.817 1143.37 536.398 1143.37C536.979 1143.37 537.551 1143.23 538.067 1142.96L558.965 1130.86C559.875 1130.34 559.832 1129.48 558.965 1128.95L534.772 1114.99C534.256 1114.72 533.684 1114.59 533.103 1114.59C532.522 1114.59 531.95 1114.72 531.434 1114.99L510.493 1127.09C509.626 1127.57 509.669 1128.43 510.493 1129L534.729 1142.96ZM700.87 1046.99C701.386 1047.26 701.958 1047.4 702.539 1047.4C703.12 1047.4 703.692 1047.26 704.208 1046.99L725.149 1034.89C726.016 1034.42 725.973 1033.55 725.149 1032.99L700.87 1019.2C700.351 1018.94 699.779 1018.81 699.2 1018.81C698.622 1018.81 698.05 1018.94 697.531 1019.2L676.634 1031.29C675.723 1031.81 675.766 1032.68 676.634 1033.2L700.87 1046.99ZM639.737 1082.34C640.257 1082.59 640.828 1082.73 641.407 1082.73C641.986 1082.73 642.557 1082.59 643.076 1082.34L664.017 1070.28C664.884 1069.76 664.841 1068.89 664.017 1068.33L639.824 1054.37C639.308 1054.1 638.736 1053.96 638.155 1053.96C637.574 1053.96 637.002 1054.1 636.486 1054.37L615.545 1066.42C614.678 1066.94 614.721 1067.81 615.545 1068.37L639.737 1082.34ZM646.804 1258.36C646.288 1258.09 645.716 1257.95 645.135 1257.95C644.555 1257.95 643.982 1258.09 643.466 1258.36L611.296 1276.92C610.429 1277.44 610.472 1278.31 611.296 1278.87L635.489 1292.84C636.008 1293.09 636.579 1293.23 637.158 1293.23C637.737 1293.23 638.308 1293.09 638.827 1292.84L670.997 1274.27C671.864 1273.75 671.821 1272.89 670.997 1272.32L646.804 1258.36ZM595.904 1107.66C596.421 1107.93 596.993 1108.07 597.574 1108.07C598.154 1108.07 598.727 1107.93 599.243 1107.66L620.184 1095.61C621.051 1095.09 621.008 1094.22 620.184 1093.65L595.861 1079.91C595.342 1079.65 594.771 1079.52 594.192 1079.52C593.613 1079.52 593.042 1079.65 592.523 1079.91L571.625 1091.96C570.714 1092.48 570.758 1093.35 571.625 1093.92L595.904 1107.66ZM565.555 1125.31C566.074 1125.57 566.645 1125.7 567.224 1125.7C567.803 1125.7 568.374 1125.57 568.893 1125.31L589.791 1113.21C590.702 1112.69 590.658 1111.83 589.791 1111.3L565.295 1097.25C564.779 1096.99 564.206 1096.85 563.626 1096.85C563.045 1096.85 562.473 1096.99 561.956 1097.25L541.015 1109.31C540.148 1109.83 540.192 1110.7 541.015 1111.26L565.555 1125.31ZM1213.47 931.292C1212.95 931.036 1212.38 930.903 1211.8 930.903C1211.22 930.903 1210.65 931.036 1210.13 931.292L1158.62 961.041C1157.76 961.562 1157.8 962.429 1158.62 962.993L1182.82 976.957C1183.34 977.213 1183.91 977.346 1184.49 977.346C1185.07 977.346 1185.64 977.213 1186.16 976.957L1237.62 947.207C1238.53 946.73 1238.49 945.863 1237.62 945.299L1213.47 931.292ZM1145.88 970.322C1145.36 970.055 1144.79 969.916 1144.21 969.916C1143.63 969.916 1143.06 970.055 1142.54 970.322L1121.64 982.421C1120.73 982.941 1120.77 983.808 1121.64 984.329L1145.83 998.293C1146.35 998.559 1146.92 998.698 1147.5 998.698C1148.08 998.698 1148.66 998.559 1149.17 998.293L1170.11 986.194C1170.98 985.717 1170.94 984.849 1170.11 984.286L1145.88 970.322ZM731.739 1199.47L752.68 1187.41C753.547 1186.89 753.504 1186.02 752.68 1185.46L728.488 1171.5C727.968 1171.24 727.397 1171.11 726.818 1171.11C726.239 1171.11 725.668 1171.24 725.149 1171.5L704.251 1183.55C703.341 1184.07 703.428 1184.94 704.251 1185.5L728.444 1199.47C728.925 1199.7 729.451 1199.82 729.983 1199.82C730.516 1199.82 731.042 1199.7 731.523 1199.47H731.739ZM1084.75 1005.62C1084.23 1005.36 1083.66 1005.22 1083.08 1005.22C1082.5 1005.22 1081.92 1005.36 1081.41 1005.62L1060.47 1017.68C1059.6 1018.2 1059.64 1019.07 1060.47 1019.63L1084.66 1033.59C1085.18 1033.85 1085.75 1033.98 1086.33 1033.98C1086.91 1033.98 1087.48 1033.85 1088 1033.59L1108.89 1021.54C1109.81 1021.02 1109.76 1020.15 1108.89 1019.59L1084.75 1005.62ZM1244.04 913.642C1243.52 913.376 1242.95 913.237 1242.37 913.237C1241.79 913.237 1241.21 913.376 1240.7 913.642L1219.54 925.654C1218.67 926.175 1218.72 927.042 1219.54 927.563L1243.73 941.526C1244.25 941.793 1244.82 941.932 1245.4 941.932C1245.98 941.932 1246.55 941.793 1247.07 941.526L1267.97 929.427C1268.88 928.95 1268.84 928.083 1267.97 927.519L1244.04 913.642ZM1298.79 909.956L1239.83 876.087C1239.31 875.821 1238.74 875.682 1238.16 875.682C1237.58 875.682 1237.01 875.821 1236.49 876.087L1215.59 888.186C1214.68 888.663 1214.73 889.53 1215.59 890.094L1274.43 923.79C1274.94 924.056 1275.52 924.195 1276.1 924.195C1276.68 924.195 1277.25 924.056 1277.77 923.79L1298.71 911.691C1299.58 911.344 1299.53 910.52 1298.58 909.956H1298.79ZM970.502 1071.58C969.983 1071.33 969.412 1071.19 968.833 1071.19C968.254 1071.19 967.682 1071.33 967.163 1071.58L941.41 1086.46C940.499 1086.93 940.586 1087.8 941.41 1088.36L965.603 1102.33C966.119 1102.59 966.691 1102.73 967.272 1102.73C967.853 1102.73 968.425 1102.59 968.941 1102.33L994.651 1087.45C995.562 1086.93 995.518 1086.07 994.651 1085.55L970.502 1071.58ZM1047.72 1027C1047.2 1026.74 1046.63 1026.61 1046.05 1026.61C1045.47 1026.61 1044.9 1026.74 1044.38 1027L1012.21 1045.61C1011.3 1046.13 1011.39 1046.99 1012.21 1047.51L1036.4 1061.48C1036.92 1061.74 1037.49 1061.88 1038.07 1061.88C1038.65 1061.88 1039.23 1061.74 1039.74 1061.48L1071.91 1042.87C1072.78 1042.4 1072.74 1041.53 1071.91 1040.96L1047.72 1027ZM899.701 1112.48C899.185 1112.21 898.613 1112.07 898.032 1112.07C897.451 1112.07 896.879 1112.21 896.363 1112.48L723.979 1211.83C723.068 1212.35 723.155 1213.22 723.979 1213.78L748.128 1227.74C748.647 1228 749.218 1228.13 749.797 1228.13C750.376 1228.13 750.947 1228 751.466 1227.74L923.634 1128.35C924.544 1127.83 924.501 1126.96 923.634 1126.4L899.701 1112.48ZM717.865 1217.47C717.346 1217.21 716.775 1217.08 716.196 1217.08C715.617 1217.08 715.046 1217.21 714.527 1217.47L688.773 1232.34C687.906 1232.82 687.95 1233.68 688.773 1234.25L712.966 1248.21C713.482 1248.48 714.055 1248.62 714.635 1248.62C715.216 1248.62 715.788 1248.48 716.304 1248.21L742.058 1233.34C742.925 1232.82 742.882 1231.95 742.058 1231.43L717.865 1217.47ZM935.08 1092.05C934.564 1091.78 933.991 1091.65 933.411 1091.65C932.83 1091.65 932.257 1091.78 931.741 1092.05L906.031 1106.92C905.121 1107.45 905.164 1108.31 906.031 1108.83L930.224 1122.84C930.743 1123.1 931.314 1123.23 931.893 1123.23C932.472 1123.23 933.043 1123.1 933.562 1122.84L959.316 1107.97C960.183 1107.45 960.14 1106.62 959.316 1106.06L935.08 1092.05ZM682.487 1237.93C681.971 1237.67 681.398 1237.53 680.817 1237.53C680.237 1237.53 679.664 1237.67 679.148 1237.93L653.395 1252.81C652.484 1253.33 652.571 1254.2 653.395 1254.72L677.587 1268.72C678.099 1268.98 678.663 1269.11 679.235 1269.11C679.807 1269.11 680.371 1268.98 680.882 1268.72L706.636 1253.85C707.547 1253.33 707.503 1252.51 706.636 1251.94L682.487 1237.93ZM1005.88 1051.16C1005.36 1050.9 1004.79 1050.77 1004.21 1050.77C1003.63 1050.77 1003.06 1050.9 1002.54 1051.16L976.745 1065.94C975.878 1066.46 975.921 1067.33 976.745 1067.9L1000.94 1081.86C1001.45 1082.13 1002.03 1082.26 1002.61 1082.26C1003.19 1082.26 1003.76 1082.13 1004.28 1081.86L1030.03 1067.03C1030.9 1066.51 1030.85 1065.64 1030.03 1065.08L1005.88 1051.16ZM1115.31 987.972C1114.79 987.715 1114.22 987.582 1113.64 987.582C1113.06 987.582 1112.49 987.715 1111.97 987.972L1091.03 1000.07C1090.16 1000.59 1090.21 1001.46 1091.03 1001.98L1115.22 1015.99C1115.74 1016.24 1116.32 1016.38 1116.89 1016.38C1117.47 1016.38 1118.04 1016.24 1118.56 1015.99L1139.46 1003.93C1140.37 1003.41 1140.33 1002.54 1139.46 1001.98L1115.31 987.972ZM1182.3 939.315L1203.19 927.216C1204.11 926.739 1204.06 925.871 1203.19 925.308L1179 911.344C1178.49 911.077 1177.91 910.938 1177.33 910.938C1176.75 910.938 1176.18 911.077 1175.66 911.344L1154.51 923.356C1153.64 923.876 1153.68 924.744 1154.51 925.264L1178.7 939.228C1179.21 939.515 1179.79 939.673 1180.38 939.688C1180.97 939.703 1181.55 939.575 1182.08 939.315H1182.3ZM1045.59 938.447L1066.54 926.348C1067.4 925.828 1067.36 924.961 1066.54 924.44L1042.34 910.476C1041.83 910.21 1041.25 910.071 1040.67 910.071C1040.09 910.071 1039.52 910.21 1039 910.476L1018.11 922.532C1017.2 923.052 1017.24 923.92 1018.11 924.484L1042.3 938.447C1042.78 938.664 1043.31 938.776 1043.84 938.776C1044.37 938.776 1044.89 938.664 1045.38 938.447H1045.59ZM976.225 1058.27L1037.36 1022.92C1038.22 1022.45 1038.18 1021.58 1037.36 1021.02L1013.16 1007.05C1012.65 1006.79 1012.08 1006.65 1011.5 1006.65C1010.91 1006.65 1010.34 1006.79 1009.83 1007.05L948.694 1042.35C947.783 1042.87 947.87 1043.74 948.694 1044.3L972.886 1058.27C973.397 1058.5 973.954 1058.62 974.517 1058.61C975.08 1058.61 975.634 1058.47 976.138 1058.22L976.225 1058.27ZM1148.26 956.878C1148.78 957.144 1149.35 957.283 1149.93 957.283C1150.51 957.283 1151.08 957.144 1151.6 956.878L1172.5 944.822C1173.41 944.302 1173.32 943.435 1172.5 942.871L1148.35 928.907C1147.83 928.651 1147.26 928.517 1146.68 928.517C1146.1 928.517 1145.53 928.651 1145.01 928.907L1123.85 941.136C1122.99 941.657 1123.03 942.524 1123.85 943.044L1148.26 956.878ZM1117.05 937.016L1137.94 924.917C1138.85 924.44 1138.81 923.573 1137.94 923.009L1113.79 909.045C1113.28 908.779 1112.71 908.64 1112.12 908.64C1111.54 908.64 1110.97 908.779 1110.46 909.045L1089.47 921.058C1088.6 921.578 1088.65 922.445 1089.47 922.966L1113.66 936.93C1114.17 937.202 1114.73 937.352 1115.3 937.367C1115.87 937.382 1116.44 937.262 1116.96 937.016H1117.05ZM945.615 1075.79L966.556 1063.69C967.423 1063.17 967.38 1062.3 966.556 1061.78L942.06 1047.95C941.544 1047.68 940.972 1047.54 940.391 1047.54C939.81 1047.54 939.238 1047.68 938.722 1047.95L917.824 1060.05C916.914 1060.52 917 1061.39 917.824 1061.95L941.973 1075.92C942.52 1076.21 943.131 1076.36 943.751 1076.36C944.371 1076.36 944.982 1076.21 945.529 1075.92L945.615 1075.79ZM1080.8 995.908C1081.32 996.174 1081.89 996.313 1082.47 996.313C1083.05 996.313 1083.62 996.174 1084.14 995.908L1105.04 983.808C1105.95 983.331 1105.9 982.464 1105.04 981.9L1080.84 967.936C1080.33 967.67 1079.75 967.531 1079.17 967.531C1078.59 967.531 1078.02 967.67 1077.5 967.936L1056.26 980.166C1055.39 980.686 1055.44 981.553 1056.26 982.074L1080.8 995.908ZM792.915 1164.17L813.813 1152.11C814.723 1151.59 814.636 1150.72 813.813 1150.16L789.316 1136.28C788.8 1136.02 788.228 1135.88 787.647 1135.88C787.066 1135.88 786.494 1136.02 785.978 1136.28L765.037 1148.34C764.17 1148.86 764.213 1149.73 765.037 1150.29L789.23 1164.26C789.772 1164.52 790.371 1164.65 790.974 1164.63C791.578 1164.62 792.169 1164.46 792.698 1164.17H792.915ZM823.264 1146.52L844.162 1134.46C845.072 1133.94 845.029 1133.07 844.162 1132.51L819.969 1118.55C819.45 1118.29 818.879 1118.16 818.3 1118.16C817.721 1118.16 817.15 1118.29 816.631 1118.55L795.69 1130.65C794.823 1131.17 794.866 1132.03 795.69 1132.55L819.882 1146.52C820.404 1146.79 820.984 1146.93 821.573 1146.93C822.162 1146.93 822.743 1146.79 823.264 1146.52ZM762.132 1181.82L783.03 1169.76C783.94 1169.24 783.853 1168.37 783.03 1167.81L758.837 1153.85C758.318 1153.59 757.747 1153.46 757.168 1153.46C756.589 1153.46 756.018 1153.59 755.498 1153.85L734.601 1165.9C733.734 1166.42 733.777 1167.29 734.601 1167.85L758.794 1181.82C759.313 1182.07 759.884 1182.21 760.463 1182.21C761.042 1182.21 761.613 1182.07 762.132 1181.82ZM884.396 1111.22L905.337 1099.12C906.205 1098.6 906.161 1097.77 905.337 1097.21L881.145 1083.25C880.629 1082.98 880.056 1082.84 879.475 1082.84C878.895 1082.84 878.322 1082.98 877.806 1083.25L856.909 1095.35C855.998 1095.87 856.041 1096.69 856.909 1097.25L881.101 1111.22C881.612 1111.48 882.176 1111.61 882.749 1111.61C883.321 1111.61 883.886 1111.48 884.396 1111.22ZM854.047 1128.87L874.945 1116.77C875.855 1116.29 875.812 1115.42 874.945 1114.86L850.752 1100.9C850.236 1100.63 849.664 1100.49 849.083 1100.49C848.502 1100.49 847.93 1100.63 847.414 1100.9L826.473 1113C825.605 1113.52 825.649 1114.38 826.473 1114.9L850.665 1128.87C851.159 1129.11 851.7 1129.23 852.248 1129.23C852.796 1129.23 853.337 1129.11 853.83 1128.87H854.047ZM915.179 1093.57L936.12 1081.47C936.987 1080.95 936.944 1080.08 936.12 1079.56L911.711 1065.6C911.195 1065.33 910.622 1065.19 910.042 1065.19C909.461 1065.19 908.889 1065.33 908.372 1065.6L887.475 1077.7C886.564 1078.17 886.608 1079.04 887.475 1079.6L911.667 1093.57C912.178 1093.83 912.742 1093.96 913.315 1093.96C913.887 1093.96 914.452 1093.83 914.963 1093.57H915.179ZM1054.79 832.374C1055.3 832.64 1055.87 832.779 1056.46 832.779C1057.04 832.779 1057.61 832.64 1058.12 832.374L1079.07 820.275C1079.93 819.754 1079.89 818.93 1079.07 818.367L1072.61 814.637C1072.09 814.371 1071.52 814.232 1070.94 814.232C1070.36 814.232 1069.78 814.371 1069.27 814.637L1048.37 826.693C1047.5 827.213 1047.55 828.081 1048.37 828.644L1054.79 832.374ZM904.384 929.514C904.903 929.77 905.474 929.904 906.053 929.904C906.632 929.904 907.203 929.77 907.722 929.514L928.62 917.458C929.53 916.938 929.487 916.071 928.62 915.507L904.47 901.543C903.954 901.277 903.382 901.138 902.801 901.138C902.22 901.138 901.648 901.277 901.132 901.543L880.191 913.599C879.324 914.119 879.367 914.986 880.191 915.55L904.384 929.514ZM965.516 894.171C966.032 894.437 966.604 894.576 967.185 894.576C967.766 894.576 968.338 894.437 968.854 894.171L989.752 882.158C990.662 881.681 990.619 880.814 989.752 880.25L965.559 866.286C965.04 866.03 964.469 865.897 963.89 865.897C963.311 865.897 962.74 866.03 962.221 866.286L941.28 878.385C940.413 878.906 940.456 879.773 941.28 880.293L965.516 894.171ZM867.054 951.067C867.573 951.323 868.144 951.457 868.723 951.457C869.302 951.457 869.873 951.323 870.392 951.067L891.29 939.011C892.2 938.491 892.114 937.623 891.29 937.06L867.141 923.096C866.622 922.84 866.05 922.706 865.471 922.706C864.893 922.706 864.321 922.84 863.802 923.096L842.861 935.152C841.994 935.672 842.037 936.539 842.861 937.103L867.054 951.067ZM934.95 912.037C935.469 912.294 936.04 912.427 936.619 912.427C937.198 912.427 937.769 912.294 938.288 912.037L959.186 899.982C960.096 899.461 960.053 898.594 959.186 898.03L934.993 884.066C934.474 883.81 933.903 883.677 933.324 883.677C932.745 883.677 932.174 883.81 931.655 884.066L910.714 896.165C909.847 896.686 909.89 897.553 910.714 898.074L934.95 912.037ZM805.922 986.541C806.433 986.796 806.997 986.929 807.569 986.929C808.141 986.929 808.705 986.796 809.217 986.541L830.158 974.441C831.025 973.921 830.982 973.054 830.158 972.533L805.878 958.483C805.359 958.226 804.788 958.093 804.209 958.093C803.63 958.093 803.059 958.226 802.54 958.483L781.642 970.452C780.732 970.972 780.818 971.839 781.642 972.403L805.922 986.541ZM836.271 968.89C836.787 969.157 837.36 969.296 837.94 969.296C838.521 969.296 839.093 969.157 839.609 968.89L860.507 956.835C861.418 956.314 861.331 955.447 860.507 954.883L836.314 940.919C835.803 940.664 835.239 940.53 834.667 940.53C834.095 940.53 833.531 940.664 833.019 940.919L812.078 952.975C811.211 953.495 811.255 954.363 812.078 954.927L836.271 968.89ZM993.437 867.847C993.953 868.114 994.526 868.252 995.106 868.252C995.687 868.252 996.26 868.114 996.776 867.847L1017.67 855.748C1018.58 855.271 1018.54 854.404 1017.67 853.84L1011.43 850.067C1010.91 849.811 1010.34 849.678 1009.76 849.678C1009.18 849.678 1008.61 849.811 1008.09 850.067L987.194 862.123C986.283 862.643 986.327 863.511 987.194 864.074L993.437 867.847ZM1085.14 814.897C1085.65 815.164 1086.22 815.302 1086.8 815.302C1087.39 815.302 1087.96 815.164 1088.47 814.897L1109.42 802.798C1110.28 802.278 1110.24 801.41 1109.42 800.89L1103 797.161C1102.48 796.904 1101.91 796.771 1101.33 796.771C1100.75 796.771 1100.18 796.904 1099.66 797.161L1078.72 809.26C1077.85 809.78 1077.9 810.647 1078.72 811.168L1085.14 814.897ZM1135.95 844.256C1136.47 844.512 1137.04 844.646 1137.62 844.646C1138.2 844.646 1138.77 844.512 1139.29 844.256L1160.23 832.2C1161.1 831.68 1161.05 830.813 1160.23 830.249L1136.04 816.285C1135.52 816.029 1134.95 815.895 1134.37 815.895C1133.79 815.895 1133.22 816.029 1132.7 816.285L1111.93 828.384C1111.02 828.905 1111.06 829.772 1111.93 830.336L1135.95 844.256ZM1212.39 921.838L1233.28 909.739C1234.19 909.219 1234.15 908.395 1233.28 907.831L1209.09 893.867C1208.57 893.601 1208 893.462 1207.42 893.462C1206.84 893.462 1206.27 893.601 1205.75 893.867L1184.85 905.706C1183.99 906.226 1184.03 907.05 1184.85 907.614L1209.05 921.578C1209.59 921.903 1210.2 922.082 1210.84 922.097C1211.47 922.112 1212.09 921.963 1212.65 921.665L1212.39 921.838ZM1024.44 850.067C1024.95 850.333 1025.53 850.472 1026.11 850.472C1026.69 850.472 1027.26 850.333 1027.78 850.067L1048.67 837.968C1049.58 837.491 1049.54 836.624 1048.67 836.06L1042.21 832.33C1041.69 832.074 1041.12 831.941 1040.54 831.941C1039.96 831.941 1039.39 832.074 1038.87 832.33L1017.98 844.386C1017.07 844.907 1017.15 845.774 1017.98 846.338L1024.44 850.067ZM775.356 1004.02C775.872 1004.28 776.444 1004.42 777.025 1004.42C777.606 1004.42 778.178 1004.28 778.694 1004.02L799.635 991.918C800.502 991.397 800.459 990.53 799.635 990.01L775.442 976.046C774.926 975.78 774.354 975.641 773.773 975.641C773.192 975.641 772.62 975.78 772.104 976.046L751.293 988.145C750.382 988.622 750.469 989.489 751.293 990.053L775.356 1004.02Z" fill="#455A64"/>
<path d="M910.931 1187.59L1117.35 1068.37C1120.84 1066.6 1124.7 1065.67 1128.62 1065.67C1132.54 1065.67 1136.4 1066.6 1139.89 1068.37L1258.26 1136.72C1264.5 1140.32 1264.5 1146.13 1258.26 1149.73L1051.84 1268.94C1048.35 1270.72 1044.48 1271.64 1040.57 1271.64C1036.65 1271.64 1032.79 1270.72 1029.29 1268.94L910.931 1200.6C904.731 1197 904.731 1191.14 910.931 1187.59Z" fill="#263238"/>
<path d="M1290.56 614.329H1290.3L1255.05 594.034C1253.01 593.123 1250.02 594.034 1246.38 596.722C1213.6 621.788 1169.51 629.594 1133.65 618.145C1131.34 615.98 1129.14 613.692 1127.06 611.293L1126.41 610.556C1125.38 609.358 1124.15 608.346 1122.77 607.564L1122.16 607.217L1086.87 586.965C1082.84 585.057 1079.2 586.965 1076.77 592.949C1042.69 677.644 970.069 763.465 921.64 784.931C917.978 786.575 914.722 789.003 912.101 792.043C908.621 795.824 906.7 800.782 906.725 805.921L913.706 996.081C913.706 1051.03 936.901 1109.05 984.203 1137.28L1020.71 1158.36L1021.36 1158.7C1041.1 1169.79 1063.41 1175.46 1086.05 1175.14C1091.12 1175.14 1096.28 1174.92 1101.61 1174.4C1111.98 1172.7 1121.6 1167.89 1129.19 1160.61C1235.02 1051.29 1286.48 903.321 1286.48 821.446L1293.25 622.308C1293.51 618.015 1292.47 615.37 1290.56 614.329Z" fill="#1BA37D"/>
<path d="M1293.25 622.308L1286.27 821.229C1286.27 903.104 1234.8 1051.07 1128.97 1160.4C1121.38 1167.67 1111.77 1172.48 1101.39 1174.19C1096.06 1174.71 1090.9 1174.92 1085.83 1174.92C1063.2 1175.24 1040.88 1169.57 1021.14 1158.49L1020.49 1158.14L1019.23 1157.36C971.933 1129.13 948.738 1071.1 948.738 1016.16L942.061 825.999C942.036 820.86 943.956 815.902 947.437 812.122C950.057 809.081 953.314 806.653 956.975 805.01C1005.4 783.327 1078.03 697.722 1112.1 613.028C1114.53 607.043 1118.22 605.092 1122.25 607L1122.86 607.347C1124.23 608.128 1125.46 609.141 1126.5 610.339L1127.15 611.076C1163.31 653.185 1234.41 653.141 1281.89 616.801C1285.49 614.069 1288.48 613.201 1290.56 614.112H1290.82C1292.47 615.369 1293.51 618.015 1293.25 622.308Z" fill="#1BA37D"/>
<path opacity="0.4" d="M1290.34 614.069C1288.3 613.158 1285.31 614.069 1281.67 616.757C1236.97 650.973 1171.28 653.011 1133.61 617.885C1169.64 629.377 1213.64 621.571 1246.33 596.462C1249.93 593.73 1252.92 592.863 1255.01 593.773L1290.34 614.069Z" fill="white"/>
<path opacity="0.4" d="M1122.03 606.957C1118 605.049 1114.31 606.957 1111.89 612.985C1077.81 697.679 1005.19 783.5 956.758 804.967C953.097 806.61 949.84 809.038 947.22 812.079C946.311 813.115 945.498 814.233 944.792 815.418L909.587 795.079C910.289 793.916 911.086 792.814 911.972 791.783C912.458 791.217 912.979 790.681 913.532 790.179L914.139 789.572L914.746 789.008C916.75 787.224 919.016 785.762 921.467 784.671C969.895 763.205 1042.52 677.383 1076.59 592.689C1079.02 586.705 1082.66 584.797 1086.7 586.705L1122.03 606.957Z" fill="white"/>
<path d="M913.575 790.092C913.756 789.882 913.96 789.693 914.182 789.528L913.575 790.135C913.575 790.135 913.532 790.092 913.575 790.092Z" fill="#1BA37D"/>
<path opacity="0.15" d="M914.183 789.355L913.576 789.962C913.754 789.737 913.958 789.533 914.183 789.355Z" fill="black"/>
<path opacity="0.15" d="M1021.23 1158.44L1020.58 1158.14L984.073 1137.02C936.771 1108.79 913.575 1050.77 913.575 995.821L906.595 805.66C906.52 801.914 907.561 798.231 909.587 795.079L944.792 815.418C942.797 818.565 941.772 822.23 941.844 825.956L948.824 1016.12C948.824 1071.06 972.02 1128.87 1019.32 1157.32L1020.58 1158.1L1021.23 1158.44Z" fill="black"/>
<path d="M1145.83 983.505L1089.47 1016.03L1098.14 914.076C1091.42 910.52 1087.09 901.76 1087.09 889.14C1087.09 866.72 1100.74 840.614 1117.44 830.9C1134.13 821.186 1147.79 831.507 1147.79 853.927C1147.45 867.232 1143.65 880.22 1136.77 891.612L1145.83 983.505Z" fill="#455A64"/>
<path d="M1145.75 983.505L1094.72 954.016L1089.43 1016.03L1145.75 983.505Z" fill="#37474F"/>
<path d="M1117.61 830.9C1106.55 837.274 1096.97 850.631 1091.6 865.376L1137.16 891.612C1144.04 880.22 1147.84 867.232 1148.18 853.927C1148.05 831.507 1134.43 821.186 1117.61 830.9Z" fill="#37474F"/>
<path d="M412.768 1575.76V1592.67C412.768 1612.62 425.775 1632.52 452.135 1647.74C491.763 1670.6 549.947 1676.19 598.723 1664.53L643.987 1690.55L678.672 1682.65L702.387 1696.4L703.688 1725.07L716.695 1732.48L748.822 1735.3L771.887 1748.31V1764.49L800.893 1781.18H874.598L901.002 1765.96V1748.87L665.405 1629.92C675.399 1620.13 681.238 1606.87 681.707 1592.89V1575.54C678.151 1558.97 664.364 1550.43 642.382 1537.72C589.878 1507.37 504.813 1507.37 452.309 1537.72C428.55 1551.6 415.153 1557.93 412.768 1575.76ZM484.913 1555.94C493.257 1551.71 502.481 1549.5 511.837 1549.5C521.193 1549.5 530.417 1551.71 538.761 1555.94C553.632 1564.61 553.632 1578.45 538.761 1587.03C530.417 1591.26 521.193 1593.47 511.837 1593.47C502.481 1593.47 493.257 1591.26 484.913 1587.03C470.042 1578.62 470.042 1564.52 484.913 1555.94Z" fill="#1BA37D"/>
<path opacity="0.1" d="M412.768 1575.76V1592.67C412.768 1612.62 425.775 1632.52 452.135 1647.74C491.763 1670.6 549.947 1676.19 598.723 1664.53L643.987 1690.55L678.672 1682.65L702.387 1696.4L703.688 1725.07L716.695 1732.48L748.822 1735.3L771.887 1748.31V1764.49L800.893 1781.18H874.598L901.002 1765.96V1748.87L665.405 1629.92C675.399 1620.13 681.238 1606.87 681.707 1592.89V1575.54C678.151 1558.97 664.364 1550.43 642.382 1537.72C589.878 1507.37 504.813 1507.37 452.309 1537.72C428.55 1551.6 415.153 1557.93 412.768 1575.76ZM484.913 1555.94C493.257 1551.71 502.481 1549.5 511.837 1549.5C521.193 1549.5 530.417 1551.71 538.761 1555.94C553.632 1564.61 553.632 1578.45 538.761 1587.03C530.417 1591.26 521.193 1593.47 511.837 1593.47C502.481 1593.47 493.257 1591.26 484.913 1587.03C470.042 1578.62 470.042 1564.52 484.913 1555.94Z" fill="black"/>
<path d="M452.135 1630.66C491.763 1653.56 549.947 1659.15 598.723 1647.44L643.987 1673.46L678.671 1665.61L702.387 1679.31L703.688 1708.02L716.695 1715.4L748.822 1718.21L773.882 1732.18L771.887 1747.27L800.893 1764.01H874.598L901.002 1748.79L665.405 1612.7C693.152 1583.26 685.522 1545.66 642.382 1520.77C589.878 1490.41 504.813 1490.41 452.309 1520.77C399.804 1551.12 399.631 1600.3 452.135 1630.66ZM484.913 1538.85C493.257 1534.62 502.481 1532.41 511.837 1532.41C521.193 1532.41 530.417 1534.62 538.761 1538.85C553.632 1547.53 553.632 1561.36 538.761 1569.95C530.417 1574.18 521.193 1576.38 511.837 1576.38C502.481 1576.38 493.257 1574.18 484.913 1569.95C470.041 1561.27 470.041 1547.4 484.913 1538.81V1538.85Z" fill="#1BA37D"/>
<path opacity="0.3" d="M547.172 1638.46C513.831 1638.46 482.745 1631.09 459.593 1617.74C439.302 1606.03 427.639 1590.72 427.639 1575.76C427.639 1560.8 439.302 1545.4 459.593 1533.73C482.745 1520.38 513.831 1513.01 547.172 1513.01C580.513 1513.01 611.599 1520.38 634.752 1533.73C655.042 1545.49 666.705 1560.75 666.705 1575.76C666.705 1590.76 655.042 1606.11 634.752 1617.74C611.599 1631.09 580.513 1638.46 547.172 1638.46ZM547.172 1518.99C514.872 1518.99 484.826 1526.06 462.541 1538.9C444.158 1549.52 433.622 1562.96 433.622 1575.76C433.622 1588.55 444.158 1601.78 462.541 1612.57C484.826 1625.58 514.872 1632.52 547.172 1632.52C579.473 1632.52 609.518 1625.41 631.803 1612.57C650.186 1601.95 660.722 1588.51 660.722 1575.76C660.722 1563.01 650.186 1549.74 631.803 1538.9C609.518 1526.06 579.473 1518.99 547.172 1518.99Z" fill="black"/>
<path opacity="0.1" d="M498.787 1648V1665.35C531.74 1672.52 565.872 1672.28 598.723 1664.66V1647.57C565.85 1655.09 531.723 1655.23 498.787 1648Z" fill="black"/>
<path opacity="0.1" d="M643.987 1673.55V1690.68L678.758 1682.78V1665.7L643.987 1673.55Z" fill="black"/>
<path opacity="0.1" d="M702.474 1679.4V1696.53L703.775 1725.2V1708.11L702.474 1679.4Z" fill="black"/>
<path opacity="0.1" d="M716.565 1715.48V1732.61L748.692 1735.43V1718.3L716.565 1715.48Z" fill="black"/>
<path opacity="0.1" d="M874.425 1764.1H800.763V1781.23H874.425V1764.1Z" fill="black"/>
<path opacity="0.15" d="M900.829 1748.83V1765.96L874.425 1781.18V1764.1L885.958 1757.42V1764.79L892.374 1761.1V1753.64L900.829 1748.83Z" fill="black"/>
<path d="M892.374 1753.64L885.958 1757.42V1764.79L892.374 1761.1V1753.64Z" fill="#1BA37D"/>
<path opacity="0.15" d="M892.374 1753.64V1761.1L650.75 1621.55L657.123 1617.82L892.374 1753.64Z" fill="black"/>
<path opacity="0.15" d="M657.123 1617.82V1625.28L650.75 1621.55L657.123 1617.82Z" fill="black"/>
<path d="M1707.43 1112.69C1710.51 999.94 1701.44 972.663 1671.36 951.978L1659.74 1017.42C1659.74 1017.42 1673.44 1094.57 1671.96 1120.24C1670.66 1142.83 1668.45 1171.06 1663.29 1189.28C1662.31 1192.51 1660.18 1195.27 1657.31 1197.04C1651.06 1201.45 1645.5 1206.76 1640.79 1212.78C1636.45 1217.51 1632.46 1218.68 1633.03 1220.2C1633.91 1221.85 1635.38 1223.11 1637.15 1223.73C1638.91 1224.35 1640.85 1224.28 1642.57 1223.54C1646.41 1222.04 1650.06 1220.06 1653.41 1217.64C1650.77 1224.58 1647.02 1231.04 1642.31 1236.76C1631.55 1249.77 1631.08 1258.01 1652.76 1258.23C1666.37 1258.23 1677.21 1249.95 1687.44 1220.02C1691.42 1209.06 1694.61 1197.83 1696.98 1186.41C1701.96 1156.8 1706.95 1130.86 1707.43 1112.69Z" fill="#B16668"/>
<path d="M1646.08 943.391C1655.32 941.755 1664.84 943.162 1673.21 947.4C1681.59 951.638 1688.36 958.479 1692.51 966.896C1705.13 989.403 1708.21 1028.17 1709.86 1066.64C1709.86 1066.64 1684.84 1087.58 1654.84 1077.31L1646.08 943.391Z" fill="#1BA37D"/>
<path opacity="0.7" d="M1646.08 943.391C1655.32 941.755 1664.84 943.162 1673.21 947.4C1681.59 951.638 1688.36 958.479 1692.51 966.896C1705.13 989.403 1708.21 1028.17 1709.86 1066.64C1709.86 1066.64 1684.84 1087.58 1654.84 1077.31L1646.08 943.391Z" fill="black"/>
<path d="M1688.31 1564.65C1690.56 1565.52 1691.13 1569.86 1691.47 1578.49C1691.73 1584.99 1693.16 1596.4 1685.49 1598.7C1677.82 1601 1666.63 1599.78 1661.73 1593.62C1655.8 1585.37 1649.46 1577.43 1642.74 1569.81C1635.2 1561.71 1627 1554.07 1623.92 1542.67C1621.19 1532.39 1623.49 1527.92 1630.51 1524.93C1640.18 1520.59 1655.36 1534.25 1662.94 1536.38C1669.45 1538.2 1686.01 1563.79 1688.31 1564.65Z" fill="#263238"/>
<path d="M1688.31 1556.63V1567.26C1684.32 1569.79 1679.73 1571.2 1675.01 1571.32C1670.29 1571.44 1665.62 1570.28 1661.51 1567.95C1661.04 1566.95 1658.74 1552.82 1658.74 1552.82L1688.31 1556.63Z" fill="#B16668"/>
<path d="M1602.46 1625.71C1604.33 1631.41 1605.89 1637.2 1607.14 1643.06C1608.45 1649.48 1610.31 1660.41 1608.1 1665C1605.89 1669.6 1597.09 1672.94 1583.52 1672.85C1574.84 1672.85 1561.06 1678.75 1551.69 1684C1542.33 1689.25 1521.86 1691.54 1511.59 1690.33C1499.53 1688.9 1487.05 1681.92 1485.1 1676.93C1483.15 1671.94 1485.7 1666.74 1514.19 1654.6C1514.45 1654.6 1553.73 1641.59 1567.47 1626.54L1602.46 1625.71Z" fill="#263238"/>
<path d="M1602.46 1614.27V1626.62C1602.46 1630.96 1597.22 1637.81 1583.47 1637.34C1573.85 1636.99 1567.08 1634.39 1567.47 1626.45V1614.96L1602.46 1614.27Z" fill="#B16668"/>
<path d="M1695.2 1416C1692.84 1397.23 1688.65 1378.74 1682.67 1360.79C1682.67 1360.79 1686.44 1313.09 1688.26 1268.03C1690.22 1219.24 1688.26 1157.97 1689.09 1145.78C1689.09 1145.78 1531.75 1113.95 1528.93 1170.33C1526.11 1226.7 1535.17 1370.2 1537.04 1394.96C1538.9 1419.72 1543.15 1441.67 1548.27 1481.69C1553.38 1521.72 1567.47 1614.87 1567.47 1614.87C1572.91 1617.64 1578.95 1619.02 1585.05 1618.9C1591.16 1618.78 1597.14 1617.16 1602.46 1614.18C1602.46 1614.18 1613.56 1501.43 1612.39 1472.85C1611.49 1451.68 1607.85 1430.72 1601.55 1410.49C1601.55 1410.49 1604.54 1364 1607.19 1323.76C1609.83 1283.51 1612.61 1263.87 1613.21 1246.3L1616.6 1244.61C1616.6 1244.61 1620.06 1314.39 1621.93 1339.15C1623.79 1363.91 1627.7 1387.63 1634.94 1433.65C1641.18 1473.59 1659.69 1558.02 1659.69 1558.02C1677.64 1567.73 1688.39 1556.72 1688.39 1556.72C1688.39 1556.72 1700.01 1450.64 1695.2 1416Z" fill="#37474F"/>
<path d="M1613.21 1246.22C1613.21 1246.22 1651.37 1227.35 1670.44 1210.44C1670.44 1210.44 1652.71 1235.42 1629.43 1246.52C1629.43 1246.52 1621.15 1333.25 1621.19 1331.43L1616.38 1246.09L1613.21 1246.22Z" fill="#263238"/>
<path d="M1579.22 925.567L1588.54 976.826L1634.85 973.4L1625.14 915.333L1579.22 925.567Z" fill="#B16668"/>
<path d="M1683.71 969.671C1679.16 955.75 1661.47 940.572 1643.78 943.651C1617.52 948.184 1591.65 954.722 1566.39 963.209C1550.22 968.977 1535.43 982.984 1534.09 1036.28C1534.09 1036.28 1528.67 1160.48 1528.58 1184.51C1562.38 1197.77 1599.2 1201.4 1634.94 1195C1683.58 1184.38 1689.48 1164.17 1689.48 1164.17C1689.48 1164.17 1690.08 1074.83 1688.61 1036.28C1687.31 1003.5 1686.88 979.255 1683.71 969.671Z" fill="#1BA37D"/>
<g opacity="0.15">
<path d="M1683.71 969.671C1679.16 955.75 1661.47 940.572 1643.78 943.651C1617.52 948.184 1591.65 954.722 1566.39 963.209C1550.22 968.977 1535.43 982.984 1534.09 1036.28C1534.09 1036.28 1528.67 1160.48 1528.58 1184.51C1562.38 1197.77 1599.2 1201.4 1634.94 1195C1683.58 1184.38 1689.48 1164.17 1689.48 1164.17C1689.48 1164.17 1690.08 1074.83 1688.61 1036.28C1687.31 1003.5 1686.88 979.255 1683.71 969.671Z" fill="black"/>
</g>
<path d="M1543.54 863.077C1543.54 863.077 1531.79 881.811 1533.22 883.589C1534.65 885.367 1543.63 886.798 1543.63 886.798L1543.54 863.077Z" fill="#9A4A4D"/>
<path d="M1576.1 811.428C1551.65 817.152 1544.8 828.124 1543.37 867.283C1541.85 908.134 1546.32 920.884 1551.78 926.261C1555.51 929.904 1575.62 930.121 1585.73 927.085C1598.34 923.312 1626.83 912.471 1639.79 891.655C1655.05 867.11 1658.48 834.282 1641.27 821.229C1616.99 802.841 1586.07 809.086 1576.1 811.428Z" fill="#B16668"/>
<path d="M1543.63 821.619C1549.24 829.803 1557.17 836.129 1566.39 839.789C1571.07 845.123 1568.51 865.809 1576.75 869.278C1576.75 869.278 1580.31 854.1 1593.05 855.748C1605.8 857.396 1608.01 873.615 1600.16 883.719C1592.32 893.824 1584.73 890.181 1584.73 890.181C1584.73 890.181 1585.6 911.864 1595.44 923.746C1595.44 923.746 1606.36 927.042 1626.31 922.315C1638.53 919.41 1655.57 903.668 1662.51 887.232C1677.21 852.539 1677.56 821.445 1655.4 812.642C1652.67 796.813 1640.01 790.005 1625.7 787.056C1594.87 780.681 1575.02 800.066 1551.3 798.245C1537.73 797.29 1535.22 807.178 1543.63 821.619Z" fill="#263238"/>
<path d="M1655.88 817.933L1670.4 808.956C1669.93 807.777 1669.21 806.715 1668.29 805.845C1667.37 804.974 1666.27 804.316 1665.07 803.917C1663.86 803.518 1662.59 803.388 1661.33 803.536C1660.07 803.683 1658.86 804.105 1657.78 804.771C1656.7 805.438 1655.78 806.333 1655.09 807.393C1654.39 808.453 1653.94 809.653 1653.76 810.908C1653.58 812.162 1653.67 813.442 1654.04 814.655C1654.4 815.869 1655.03 816.988 1655.88 817.933Z" fill="#263238"/>
<path d="M1370.59 1055.49C1378.18 1058.87 1467.88 1125.14 1481.85 1117.42C1495.81 1109.7 1567.56 1025.87 1567.56 1025.87C1573.62 1016.51 1576.85 1005.59 1576.85 994.433C1576.85 983.276 1573.62 972.357 1567.56 962.992C1567.56 962.992 1544.58 967.329 1532.53 985.456C1520.48 1003.58 1468.53 1068.85 1468.53 1068.85C1455.7 1062.43 1442.9 1055.93 1430.12 1049.33C1419.63 1043.87 1409.09 1038.45 1398.82 1032.59C1395.93 1031.26 1393.21 1029.58 1390.71 1027.61C1385.64 1022.58 1386.37 1010.26 1386.64 1003.84C1386.64 1000.76 1386.64 997.685 1387.07 994.606C1387.5 990.833 1388.24 981.596 1381.43 984.545C1380.14 985.16 1379.03 986.084 1378.18 987.234C1377.14 988.645 1376.32 990.211 1375.75 991.874C1374.5 995.864 1374.89 1000.24 1373.71 1004.28C1373.57 1004.87 1373.29 1005.42 1372.89 1005.88C1372.29 1006.35 1371.53 1006.58 1370.77 1006.53C1360.88 1006.23 1351.52 992.351 1346.96 984.849C1345.39 981.271 1342.78 978.25 1339.46 976.175C1334.09 973.617 1327.58 977.26 1324.07 982.117C1319.84 988.501 1318.11 996.221 1319.22 1003.8C1320.13 1014.17 1324.75 1023.87 1332.22 1031.12C1343.52 1041.39 1356.5 1049.63 1370.59 1055.49Z" fill="#B16668"/>
<path d="M1575.06 960.304C1565.18 961.431 1548.74 962.168 1532.62 980.426C1513.63 1001.85 1488.87 1036.54 1488.87 1036.54C1491.4 1046.8 1496.83 1056.11 1504.53 1063.36C1512.22 1070.61 1521.83 1075.48 1532.23 1077.39C1532.23 1077.39 1566.17 1042.7 1575.58 1023.44C1584.99 1004.19 1586.55 973.227 1575.06 960.304Z" fill="#1BA37D"/>
<path opacity="0.7" d="M1575.06 960.304C1565.18 961.431 1548.74 962.168 1532.62 980.426C1513.63 1001.85 1488.87 1036.54 1488.87 1036.54C1491.4 1046.8 1496.83 1056.11 1504.53 1063.36C1512.22 1070.61 1521.83 1075.48 1532.23 1077.39C1532.23 1077.39 1566.17 1042.7 1575.58 1023.44C1584.99 1004.19 1586.55 973.227 1575.06 960.304Z" fill="black"/>
</g>
<defs>
<clipPath id="clip0_4042_2">
<rect width="2003" height="1952" fill="white"/>
</clipPath>
</defs>
</svg>
