<?xml version="1.0" encoding="utf-8"?>
<svg xmlns="http://www.w3.org/2000/svg">
    <defs>
        <!-- PAGES ICONS -->
        <!-- Home -->
        <symbol id="home" viewBox="0 0 24 24">
            <path
                d="M2.5 10.9384C2.5 9.71422 3.06058 8.55744 4.02142 7.79888L9.52142 3.45677C10.9747 2.30948 13.0253 2.30948 14.4786 3.45677L19.9786 7.79888C20.9394 8.55744 21.5 9.71422 21.5 10.9384V17.5C21.5 19.7091 19.7091 21.5 17.5 21.5H16C15.4477 21.5 15 21.0523 15 20.5V17.5C15 16.3954 14.1046 15.5 13 15.5H11C9.89543 15.5 9 16.3954 9 17.5V20.5C9 21.0523 8.55228 21.5 8 21.5H6.5C4.29086 21.5 2.5 19.7091 2.5 17.5L2.5 10.9384Z"
                stroke-width="2" />
        </symbol>

        <!-- FEEDBACK AND STATUS ICONS -->
        <!-- Info -->
        <symbol id="info" viewBox="0 0 24 24">
            <path
                d="M9.14648 9.07361C9.31728 8.54732 9.63015 8.07896 10.0508 7.71948C10.4714 7.36001 10.9838 7.12378 11.5303 7.03708C12.0768 6.95038 12.6362 7.0164 13.1475 7.22803C13.6587 7.43966 14.1014 7.78875 14.4268 8.23633C14.7521 8.68391 14.9469 9.21256 14.9904 9.76416C15.0339 10.3158 14.9238 10.8688 14.6727 11.3618C14.4215 11.8548 14.0394 12.2685 13.5676 12.5576C13.0958 12.8467 12.5533 12.9998 12 12.9998V14.0002M12 21C7.02944 21 3 16.9706 3 12C3 7.02944 7.02944 3 12 3C16.9706 3 21 7.02944 21 12C21 16.9706 16.9706 21 12 21ZM12.0498 17V17.1L11.9502 17.1002V17H12.0498Z"
                stroke-width="2" stroke-linecap="round" stroke-linejoin="round" />
        </symbol>

        <!-- Success -->
        <symbol id="success" viewBox="0 0 24 24">
            <path
                d="M15 10L11 14L9 12M7.33173 3.9375L3.9375 7.33173L3.93442 7.33462C3.59057 7.67847 3.41824 7.85081 3.29492 8.05204C3.18526 8.23098 3.10425 8.4263 3.05526 8.63037C3 8.86055 3 9.10506 3 9.59424V14.4058C3 14.8949 3 15.1395 3.05526 15.3697C3.10425 15.5738 3.18526 15.7688 3.29492 15.9478C3.41857 16.1495 3.59182 16.3228 3.9375 16.6685L7.33173 20.0627C7.67763 20.4086 7.85021 20.5812 8.05204 20.7048C8.23099 20.8145 8.42581 20.8958 8.62988 20.9448C8.85971 21 9.10382 21 9.59151 21H14.4075C14.8952 21 15.1404 21 15.3702 20.9448C15.5743 20.8958 15.7693 20.8145 15.9482 20.7049C16.1501 20.5812 16.323 20.4086 16.6689 20.0627L20.0632 16.6685C20.4091 16.3226 20.5817 16.1496 20.7053 15.9478C20.815 15.7688 20.8953 15.5738 20.9443 15.3697C20.9996 15.1395 21 14.895 21 14.4058V9.59424C21 9.10506 20.9996 8.86055 20.9443 8.63037C20.8953 8.4263 20.815 8.23099 20.7053 8.05205C20.5817 7.85022 20.4091 7.67761 20.0632 7.33173L16.6689 3.9375C16.3233 3.59181 16.15 3.41857 15.9482 3.29492C15.7693 3.18526 15.5743 3.10425 15.3702 3.05526C15.14 3 14.8945 3 14.4053 3H9.59375C9.10457 3 8.86006 3 8.62988 3.05526C8.42581 3.10425 8.23099 3.18526 8.05204 3.29492C7.85204 3.41748 7.68106 3.58847 7.3414 3.92813L7.33173 3.9375Z"
                stroke-width="2" stroke-linecap="round" stroke-linejoin="round" />
        </symbol>

        <!-- Check -->
        <symbol id="check" viewBox="0 0 24 24">
            <path d="M6 12L10.2426 16.2426L18.727 7.75732" stroke-width="2" stroke-linecap="round"
                stroke-linejoin="round" />
        </symbol>

        <!-- Warn -->
        <symbol id="warn" viewBox="0 0 24 24">
            <path
                d="M12 9.00006V13.0001M4.37891 15.1999C3.46947 16.775 3.01489 17.5629 3.08281 18.2092C3.14206 18.7729 3.43792 19.2851 3.89648 19.6182C4.42204 20.0001 5.3309 20.0001 7.14853 20.0001H16.8515C18.6691 20.0001 19.5778 20.0001 20.1034 19.6182C20.5619 19.2851 20.8579 18.7729 20.9172 18.2092C20.9851 17.5629 20.5307 16.775 19.6212 15.1999L14.7715 6.79986C13.8621 5.22468 13.4071 4.43722 12.8135 4.17291C12.2957 3.94236 11.704 3.94236 11.1862 4.17291C10.5928 4.43711 10.1381 5.22458 9.22946 6.79845L4.37891 15.1999ZM12.0508 16.0001V16.1001L11.9502 16.1003V16.0001H12.0508Z"
                stroke-width="2" stroke-linecap="round" stroke-linejoin="round" />
        </symbol>

        <!-- Error -->
        <symbol id="error" viewBox="0 0 24 24">
            <path
                d="M12 8.4502V12.4502M12 21C7.02944 21 3 16.9706 3 12C3 7.02944 7.02944 3 12 3C16.9706 3 21 7.02944 21 12C21 16.9706 16.9706 21 12 21ZM12.0498 15.4502V15.5502L11.9502 15.5498V15.4502H12.0498Z"
                stroke-width="2" stroke-linecap="round" stroke-linejoin="round" />
        </symbol>

        <!-- BUTTON ICONS -->
        <!-- Eye - Show Password Icon -->
        <symbol id="eye" viewBox="0 0 24 24">
            <path fill-rule="evenodd" clip-rule="evenodd"
                d="M8.28769 8.28769C7.30312 9.27226 6.75 10.6076 6.75 12C6.75 13.3924 7.30312 14.7277 8.28769 15.7123C9.27226 16.6969 10.6076 17.25 12 17.25C13.3924 17.25 14.7277 16.6969 15.7123 15.7123C16.6969 14.7277 17.25 13.3924 17.25 12C17.25 10.6076 16.6969 9.27226 15.7123 8.28769C14.7277 7.30312 13.3924 6.75 12 6.75C10.6076 6.75 9.27226 7.30312 8.28769 8.28769ZM9.34835 9.34835C10.0516 8.64509 11.0054 8.25 12 8.25C12.9946 8.25 13.9484 8.64509 14.6517 9.34835C15.3549 10.0516 15.75 11.0054 15.75 12C15.75 12.9946 15.3549 13.9484 14.6517 14.6517C13.9484 15.3549 12.9946 15.75 12 15.75C11.0054 15.75 10.0516 15.3549 9.34835 14.6517C8.64509 13.9484 8.25 12.9946 8.25 12C8.25 11.0054 8.64509 10.0516 9.34835 9.34835Z"
                fill="black" />
            <path fill-rule="evenodd" clip-rule="evenodd"
                d="M12 3.75C19.5 3.75 24 12 24 12C24 12 19.5 20.25 12 20.25C4.5 20.25 0 12 0 12C0 12 4.5 3.75 12 3.75ZM4.2495 8.9355C3.31795 9.87012 2.48367 10.8969 1.7595 12C2.48367 13.1031 3.31645 14.1299 4.248 15.0645C6.1815 16.998 8.8215 18.75 12 18.75C15.1785 18.75 17.8185 16.998 19.752 15.0645C20.7045 14.112 21.447 13.152 21.9495 12.432C22.0585 12.274 22.156 12.13 22.242 12C21.5178 10.8969 20.6836 9.87012 19.752 8.9355C17.8185 7.002 15.18 5.25 12 5.25C8.82 5.25 6.18 7.002 4.2495 8.9355Z"
                fill="black" />
        </symbol>

        <!-- Eye Slash - Hide Password Icon -->
        <symbol id="eye-slash" viewBox="0 0 16 16">
            <path
                d="M13.359 11.238C15.06 9.72 16 8 16 8s-3-5.5-8-5.5a7 7 0 0 0-2.79.588l.77.771A6 6 0 0 1 8 3.5c2.12 0 3.879 1.168 5.168 2.457A13 13 0 0 1 14.828 8q-.086.13-.195.288c-.335.48-.83 1.12-1.465 1.755q-.247.248-.517.486z"
                stroke-width="1" stroke-linecap="round" stroke-linejoin="round" />
            <path
                d="M11.297 9.176a3.5 3.5 0 0 0-4.474-4.474l.823.823a2.5 2.5 0 0 1 2.829 2.829zm-2.943 1.299.822.822a3.5 3.5 0 0 1-4.474-4.474l.823.823a2.5 2.5 0 0 0 2.829 2.829"
                stroke-width="1" stroke-linecap="round" stroke-linejoin="round" />
            <path
                d="M3.35 5.47q-.27.24-.518.487A13 13 0 0 0 1.172 8l.195.288c.335.48.83 1.12 1.465 1.755C4.121 11.332 5.881 12.5 8 12.5c.716 0 1.39-.133 2.02-.36l.77.772A7 7 0 0 1 8 13.5C3 13.5 0 8 0 8s.939-1.721 2.641-3.238l.708.709zm10.296 8.884-12-12 .708-.708 12 12z"
                stroke-width="1" stroke-linecap="round" stroke-linejoin="round" />
        </symbol>


        <!-- MAIL -->
        <symbol id="mail" viewBox="0 0 24 24">
            <path
                d="M4 6L10.1076 10.6123L10.1097 10.614C10.7878 11.1113 11.1271 11.3601 11.4988 11.4562C11.8272 11.5412 12.1725 11.5412 12.501 11.4562C12.8729 11.36 13.2132 11.1105 13.8926 10.6123C13.8926 10.6123 17.8101 7.60594 20 6M3 15.8002V8.2002C3 7.08009 3 6.51962 3.21799 6.0918C3.40973 5.71547 3.71547 5.40973 4.0918 5.21799C4.51962 5 5.08009 5 6.2002 5H17.8002C18.9203 5 19.4796 5 19.9074 5.21799C20.2837 5.40973 20.5905 5.71547 20.7822 6.0918C21 6.5192 21 7.07899 21 8.19691V15.8036C21 16.9215 21 17.4805 20.7822 17.9079C20.5905 18.2842 20.2837 18.5905 19.9074 18.7822C19.48 19 18.921 19 17.8031 19H6.19691C5.07899 19 4.5192 19 4.0918 18.7822C3.71547 18.5905 3.40973 18.2842 3.21799 17.9079C3 17.4801 3 16.9203 3 15.8002Z"
                stroke-width="2" stroke-linecap="round" stroke-linejoin="round" />
        </symbol>

        <!-- MAIL CODE -->
        <symbol id="mail-code" viewBox="0 0 24 24">
            <path
                d="M12 21C16.9706 21 21 16.9706 21 12C21 7.02944 16.9706 3 12 3C7.02944 3 3 7.02944 3 12C3 13.4876 3.36093 14.891 4 16.1272L3 21L7.8728 20C9.10904 20.6391 10.5124 21 12 21Z"
                stroke-width="2" stroke-linecap="round" stroke-linejoin="round" />
            <rect x="7.5" y="12" width="0.01" height="0.01" stroke-width="3" stroke-linejoin="round" />
            <rect x="12" y="12" width="0.01" height="0.01" stroke-width="3" stroke-linejoin="round" />
            <rect x="16.5" y="12" width="0.01" height="0.01" stroke-width="3" stroke-linejoin="round" />
        </symbol>

        <!-- USER -->
        <symbol id="user" viewBox="0 0 24 24">
            <path
                d="M20 21C20 18.2386 16.4183 16 12 16C7.58172 16 4 18.2386 4 21M12 13C9.23858 13 7 10.7614 7 8C7 5.23858 9.23858 3 12 3C14.7614 3 17 5.23858 17 8C17 10.7614 14.7614 13 12 13Z"
                stroke-width="2" stroke-linecap="round" stroke-linejoin="round" />
        </symbol>

        <!-- ARROWS -->
        <!-- Arrow Right -->
        <symbol id="arrow-right" viewBox="0 0 24 24">
            <path d="M19 12L5 12" stroke-width="2" stroke-linecap="round" stroke-linejoin="round" />
            <path d="M12 19L19 12L12 5" stroke-width="2" stroke-linecap="round" stroke-linejoin="round" />
        </symbol>
        <!-- Arrow Left -->
        <symbol id="arrow-left" viewBox="0 0 24 24">
            <path d="M5 12H19" stroke-width="2" stroke-linecap="round" stroke-linejoin="round" />
            <path d="M12 5L5 12L12 19" stroke-width="2" stroke-linecap="round" stroke-linejoin="round" />
        </symbol>
        <!-- Arrow up -->
        <symbol id="arrow-up" viewBox="0 0 24 24">
            <path d="M12 5L12 19" stroke-width="2" stroke-linecap="round" stroke-linejoin="round" />
            <path d="M19 12L12 5L5 12" stroke-width="2" stroke-linecap="round" stroke-linejoin="round" />
        </symbol>
        <!-- Arrow down -->
        <symbol id="arrow-down" viewBox="0 0 24 24">
            <path d="M12 19L12 5" stroke-width="2" stroke-linecap="round" stroke-linejoin="round" />
            <path d="M5 12L12 19L19 12" stroke-width="2" stroke-linecap="round" stroke-linejoin="round" />
        </symbol>

        <!-- SHAPES -->
        <!-- Circle -->
        <symbol id="circle-small" viewBox="0 0 24 24">
            <rect x="16.1516" y="8" width="8.30305" height="8.30305" rx="4.15153" transform="rotate(90 16.1516 8)"
                stroke-width="2" />
        </symbol>


    </defs>
</svg>