<svg width="2560" height="1440" viewBox="0 0 2560 1440" fill="none" xmlns="http://www.w3.org/2000/svg">
<g clip-path="url(#clip0_4006_4)">
<mask id="mask0_4006_4" style="mask-type:luminance" maskUnits="userSpaceOnUse" x="0" y="0" width="2560" height="1440">
<path d="M2560 0H0V1440H2560V0Z" fill="white"/>
</mask>
<g mask="url(#mask0_4006_4)">
<g opacity="0.5">
<path d="M1407.4 -73.618C1403.04 -16.091 1398.68 41.559 1388.94 98.477C1379.99 150.776 1366.45 202.546 1344.54 251.002C1324.68 294.933 1298.19 336.239 1263.88 370.302C1229.51 404.416 1187.56 430.118 1140.83 443.262C1095.12 456.117 1045.53 456.8 1000.53 440.672C956.405 424.855 920.815 393.157 883.911 365.405C865.712 351.719 846.854 338.655 826.244 328.834C805.033 318.726 782.675 313.424 759.455 310.418C734.816 307.228 709.779 306.039 685.604 299.946C662.12 294.027 640.936 282.726 624.812 264.419C590.53 225.494 584.726 171.284 585.404 121.573C586.132 68.166 593 12.964 575.779 -38.768C571.941 -50.298 566.889 -61.38 560.544 -71.748C559.213 -73.923 555.775 -71.939 557.113 -69.752C586.064 -22.438 584.41 35.041 582.414 88.451C580.462 140.679 578.997 195.569 604.966 242.799C615.842 262.58 631.369 279.855 651.2 290.924C672.395 302.755 696.577 307.098 720.396 309.98C745.622 313.032 771.266 314.451 795.822 321.444C818.424 327.881 839.222 339.148 858.655 352.187C897.598 378.317 931.796 411.564 973.697 433.22C1015.8 454.982 1063.8 461.052 1110.43 453.912C1157.62 446.686 1202.49 426.475 1239.87 396.91C1277.98 366.767 1308.49 327.845 1331.8 285.392C1356.5 240.424 1373.2 191.558 1384.46 141.612C1397.24 84.968 1403.31 27.076 1408.03 -30.715C1409.2 -45.009 1410.28 -59.309 1411.37 -73.61C1411.56 -76.158 1407.59 -76.154 1407.4 -73.618Z" fill="url(#paint0_linear_4006_4)"/>
<path d="M1336.96 -48.275C1336.03 -58.617 1334.79 -68.927 1333.27 -79.198C1332.89 -81.716 1329.07 -80.654 1329.44 -78.151C1335.63 -36.324 1336.71 6.22097 1332.9 48.325C1329.08 90.437 1320.34 132.101 1306.98 172.218C1293.62 212.335 1275.6 250.892 1253.19 286.759C1232.41 320.032 1207.17 354.288 1170.61 371.246C1150.04 380.786 1127.26 382.903 1104.84 382.361C1082.66 381.825 1060.3 379.791 1038.29 377.062C1017.02 374.425 995.724 370.269 975.782 362.221C955.268 353.942 938.055 340.786 921.431 326.448C905.32 312.553 889.386 298.73 870.731 288.289C851.796 277.692 831.46 269.908 811.195 262.289C773.924 248.275 734.732 233.791 706.693 204.198C692.735 189.467 683.177 171.505 679.17 151.576C674.812 129.903 676.688 107.386 680.773 85.827C689.287 40.89 708.728 -2.20604 709.105 -48.524C709.195 -59.536 708.072 -70.523 705.584 -81.254C705.007 -83.741 701.178 -82.697 701.755 -80.207C712.847 -32.359 694.12 15.023 682.361 60.799C671.827 101.809 665.504 148.213 688.221 186.449C708.17 220.026 744.29 239.957 779.381 254.271C800.253 262.785 821.671 269.923 842.374 278.857C862.999 287.757 882.198 298.714 899.589 312.987C916.148 326.576 931.556 341.724 949.693 353.278C967.918 364.889 988.577 371.981 1009.63 376.39C1031 380.864 1052.81 382.78 1074.54 384.526C1097.49 386.37 1120.81 387.929 1143.61 383.797C1184.74 376.344 1215.45 347.375 1239.26 314.657C1264.08 280.552 1284.08 242.683 1299.72 203.562C1315.69 163.626 1326.93 121.807 1333.19 79.256C1339.39 37.077 1340.77 -5.80104 1336.96 -48.275Z" fill="url(#paint1_linear_4006_4)"/>
<path d="M1209.78 19.67C1208.59 11.829 1207.34 3.99898 1206.08 -3.83102C1205.67 -6.34602 1201.85 -5.28702 1202.25 -2.78402C1207.32 28.772 1212.39 60.476 1213.04 92.497C1213.61 120.664 1210.61 148.933 1201.18 175.601C1192.94 198.914 1179.94 220.883 1161.67 237.726C1142.14 255.726 1117.29 265.919 1091.2 269.737C1063.37 273.809 1034.91 271.051 1007.47 265.634C992.076 262.595 976.864 258.708 961.773 254.428C947.225 250.302 932.693 245.986 918.322 241.277C905.577 237.101 892.631 231.881 883.064 222.139C874.249 213.163 869.187 201.344 866.118 189.304C862.798 176.28 861.523 162.778 860.52 149.409C859.426 134.808 859.026 120.155 859.309 105.516C859.876 76.194 863.194 46.939 869.194 18.233C875.163 -10.327 883.768 -38.341 894.92 -65.304C897.673 -71.961 900.596 -78.547 903.661 -85.066C904.741 -87.364 901.325 -89.388 900.238 -87.076C887.521 -60.026 877.378 -31.788 870.001 -2.82102C862.625 26.143 857.985 55.815 856.145 85.646C854.344 114.845 854.952 144.529 859.054 173.521C860.864 186.314 863.816 199.199 869.921 210.686C876.161 222.427 885.779 231.312 897.606 237.28C910.434 243.754 924.593 247.465 938.283 251.631C953.629 256.3 969.04 260.786 984.621 264.611C1013.27 271.644 1042.77 276.671 1072.37 275.425C1099.65 274.276 1127.15 267.563 1149.96 252.057C1170.88 237.837 1186.8 217.329 1197.6 194.61C1209.18 170.235 1214.98 143.687 1216.57 116.83C1218.5 84.306 1214.65 51.778 1209.78 19.67Z" fill="url(#paint2_linear_4006_4)"/>
<path d="M1113.62 -84.5301C1109.87 -64.0271 1108.84 -43.1811 1108.14 -22.3891C1107.45 -2.09706 1107.02 18.2439 1104.48 38.4129C1102.11 57.2949 1097.85 76.2679 1089.77 93.5849C1082.9 108.336 1073.35 121.962 1061.01 132.656C1049.25 142.85 1034.86 150.106 1019.34 152.089C1004.57 153.974 988.988 151.53 976.01 144.064C969.513 140.326 963.741 135.336 959.28 129.296C954.151 122.352 950.64 114.406 948.19 106.161C945.678 97.7059 944.194 88.9719 943.079 80.2339C941.775 70.0179 940.791 59.7579 939.996 49.4909C938.368 28.4709 937.645 7.39094 937.423 -13.6881C937.2 -34.8761 937.483 -56.0661 937.865 -77.2511C937.957 -82.3601 938.055 -87.4691 938.153 -92.5771C938.202 -95.1321 934.233 -95.1401 934.184 -92.5851C933.771 -71.0721 933.36 -49.5561 933.376 -28.0381C933.392 -6.54006 933.834 14.9649 935.129 36.4259C935.774 47.1079 936.631 57.7779 937.751 68.4209C938.737 77.7949 939.815 87.1939 941.7 96.4369C945.124 113.222 951.748 130.054 965.2 141.324C977.106 151.298 992.531 156.262 1007.95 156.632C1023.92 157.015 1039.48 152.329 1052.88 143.695C1066.81 134.714 1078.12 122.069 1086.64 107.93C1096.24 91.9879 1102.15 74.1059 1105.7 55.9029C1109.59 35.9049 1110.79 15.5099 1111.52 -4.81306C1112.28 -25.9281 1112.59 -47.1041 1115.12 -68.1041C1115.74 -73.2481 1116.52 -78.3711 1117.45 -83.4681C1117.9 -85.9641 1114.08 -87.0431 1113.62 -84.5301Z" fill="url(#paint3_linear_4006_4)"/>
</g>
</g>
<mask id="mask1_4006_4" style="mask-type:luminance" maskUnits="userSpaceOnUse" x="0" y="0" width="2560" height="1440">
<path d="M2560 0H0V1440H2560V0Z" fill="white"/>
</mask>
<g mask="url(#mask1_4006_4)">
<g opacity="0.5">
<path d="M-99.882 -28.201C-101.921 -26.67 -99.848 -23.251 -97.789 -24.797C-50.904 -59.997 11.885 -69.81 68.094 -54.533C96.667 -46.768 123.06 -32.406 144.692 -12.151C170.194 11.727 188.586 41.851 204.039 72.908C234.939 135.01 256.24 203.157 304.834 254.585C354.975 307.65 422.04 339.372 480.033 382.421C532.548 421.403 580.879 474.588 586.494 542.803C589.251 576.297 578.443 606.048 561.699 634.555C545.788 661.644 527.495 687.362 518.861 717.974C501.893 778.131 517.263 840.765 524.101 901.19C531.001 962.162 529.238 1029.35 483.426 1075.79C432.389 1127.53 356.049 1136.99 287.362 1143.62C219.857 1150.13 147.323 1156.97 92.439 1201.2C80.148 1211.11 69.497 1222.68 60.696 1235.78C59.264 1237.91 62.796 1239.78 64.221 1237.66C106.766 1174.32 187.352 1157.93 258.113 1150.5C327.315 1143.24 400.882 1140.22 460.491 1099.87C486.864 1082.01 507.64 1057.42 518.972 1027.51C529.417 999.948 531.975 970.067 531.098 940.802C529.21 877.766 510.113 815.582 516.518 752.258C518.221 735.417 521.874 718.677 528.13 702.922C534.054 688.003 542.201 674.104 550.568 660.451C567.096 633.481 584.83 606.405 589.517 574.465C598.657 512.178 564.618 452.756 520.883 411.212C466.683 359.726 397.404 328.484 339.797 281.41C310.725 257.654 286.492 229.899 267.694 197.362C249.754 166.311 236.134 133.052 221.394 100.433C194.544 41.015 161.044 -19.109 99.199 -47.496C48.13 -70.939 -13.196 -71.666 -64.624 -48.891C-77.141 -43.348 -88.937 -36.419 -99.882 -28.201Z" fill="url(#paint4_linear_4006_4)"/>
<path d="M-4.15701 62.229C108.084 83.183 180.022 181.422 247.97 264.015C267.283 287.491 287.195 310.42 308.683 331.942C329.549 352.84 351.381 372.74 372.481 393.397C410.725 430.835 447.694 471.795 466.988 522.527C482.518 563.363 487.954 610.732 471.274 652.115C462.26 674.48 446.543 691.399 430.552 708.97C414.758 726.325 401.021 744.974 398.759 769.045C396.521 792.853 403.47 816.274 404.337 839.968C405.252 864.973 397.216 888.625 384.232 909.765C371.321 930.787 354.266 949.124 336.137 965.732C318.16 982.202 298.576 996.89 277.83 1009.69C195.108 1060.73 93.683 1081.8 -2.38101 1065.94C-13.798 1064.05 -25.116 1061.63 -36.316 1058.73C-38.81 1058.08 -39.734 1061.97 -37.243 1062.61C10.297 1074.94 60.015 1078.01 108.771 1072.31C157.031 1066.68 204.24 1052.66 247.731 1030.99C291.508 1009.18 332.17 979.375 364.581 942.605C380.495 924.55 394.444 904.181 402.246 881.252C406.077 869.994 408.245 858.188 408.411 846.289C408.582 834.076 406.817 821.948 405.162 809.879C403.494 797.716 401.838 785.434 402.455 773.128C403.1 760.253 406.842 748.152 413.512 737.122C426.49 715.66 446.801 699.894 461.085 679.389C486.325 643.157 489.885 596.873 480.74 554.67C470.056 505.365 442.756 463.181 409.489 426.005C368.961 380.715 321.469 342.308 281.09 296.849C239.911 250.49 203.877 199.638 160.317 155.381C124.218 118.704 82.175 86.136 33.417 68.364C21.494 64.019 9.24399 60.671 -3.22901 58.343C-5.75201 57.872 -6.69101 61.756 -4.15701 62.229Z" fill="url(#paint5_linear_4006_4)"/>
<path d="M-82.012 44.106C-86.563 88.103 -71.016 131.164 -45.904 166.821C-18.78 205.333 18.41 234.342 58.838 257.829C103.046 283.512 150.426 303.025 195.896 326.262C243.347 350.512 288.49 379.244 330.485 412.052C366.928 440.522 418.684 478.075 407.756 531.084C403.568 551.398 392.352 569.466 381.499 586.821C369.917 605.341 358.883 623.853 350.962 644.296C334.707 686.25 330.324 730.742 335.876 775.234C338.436 795.745 342.136 817.121 337.981 837.671C333.122 861.703 315.904 878.125 293.162 886.022C268.589 894.555 242.092 894.928 216.508 897.989C190.712 901.076 165.103 905.744 139.878 911.961C89.052 924.488 39.764 943.296 -6.481 967.826C-17.76 973.809 -28.844 980.147 -39.744 986.793C-41.94 988.132 -39.85 991.538 -37.651 990.197C8.19201 962.247 57.488 940.165 108.881 924.61C134.379 916.892 160.362 910.771 186.627 906.313C212.933 901.849 239.572 900.586 265.905 896.522C288.672 893.009 313.01 886.171 328.299 867.706C341.053 852.301 344.295 832.45 343.671 812.988C342.985 791.625 338.432 770.608 337.507 749.257C336.5 725.991 338.743 702.625 344.068 679.958C349.393 657.29 357.786 635.368 369.078 615C379.3 596.562 391.866 579.487 401.272 560.584C410.059 542.925 415.682 523.49 412.197 503.688C407.908 479.322 391.132 459.419 373.592 442.997C354.298 424.933 333.178 408.573 311.859 392.987C290.559 377.415 268.543 362.828 245.88 349.315C201.363 322.773 154.021 302.075 107.619 279.184C62.969 257.157 18.666 232.185 -16.319 196.176C-47.976 163.593 -73.155 121.827 -78.018 75.942C-79.144 65.321 -79.115 54.636 -78.016 44.015C-77.752 41.46 -81.751 41.58 -82.012 44.106Z" fill="url(#paint6_linear_4006_4)"/>
<path d="M-141.36 241.744C-76.1401 283.833 -9.30006 323.405 58.9879 360.31C92.4599 378.4 126.507 395.294 160.308 412.744C191.647 428.923 225.454 448.703 240.867 482.06C255.456 513.634 248.159 549.664 241.42 582.24C234.528 615.555 226.267 649.121 210.708 679.588C202.937 694.804 193.322 708.983 181.662 721.494C168.9 735.187 154.114 746.803 138.514 757.086C106.706 778.052 71.8879 794.515 38.0539 811.89C-31.8851 847.806 -102.614 882.659 -176.546 909.686C-185.428 912.933 -194.353 916.06 -203.317 919.071C-205.752 919.889 -204.645 923.73 -202.204 922.91C-164.502 910.246 -127.585 895.383 -91.2661 879.195C-54.8791 862.976 -19.1001 845.43 16.4229 827.409C34.3679 818.305 52.2489 809.079 70.1209 799.834C87.0579 791.072 104.064 782.408 120.565 772.839C152.372 754.393 182.286 732.023 202.838 701.039C221.699 672.605 232.308 639.588 240.132 606.638C244.134 589.78 247.806 572.743 250.496 555.622C253.081 539.171 254.471 522.312 251.953 505.763C249.353 488.678 242.232 472.892 231.346 459.482C220.153 445.692 205.909 434.765 190.936 425.372C175.038 415.397 158.161 407.154 141.407 398.747C123.89 389.956 106.459 380.993 89.118 371.86C54.2669 353.5 19.7749 334.454 -14.3271 314.736C-48.2611 295.115 -81.8101 274.827 -114.947 253.888C-123.149 248.705 -131.325 243.481 -139.478 238.219C-141.637 236.825 -143.512 240.355 -141.36 241.744Z" fill="url(#paint7_linear_4006_4)"/>
<path d="M-337.125 307.582C-311.568 361.015 -251.387 383.478 -197.622 396.749C-168.774 403.87 -139.485 409.532 -111.34 419.226C-83.383 428.855 -57.5191 443.289 -33.826 460.907C-10.541 478.222 10.6659 498.153 30.9969 518.807C41.4179 529.393 51.619 540.193 61.796 551.014C73.076 563.009 84.5 575.016 93.751 588.695C109.073 611.352 118.516 641.524 105.248 667.397C92.384 692.481 64.36 705.895 39.574 716.285C-18.421 740.595 -80.773 751.244 -140.747 769.319C-148.213 771.569 -155.641 773.94 -163.022 776.452C-165.453 777.279 -164.346 781.12 -161.909 780.291C-101.21 759.632 -37.435 749.408 22.769 727.172C36.92 721.946 51 716.182 64.368 709.165C76.311 702.896 87.862 695.341 97.163 685.478C106.166 675.932 112.658 664.147 114.73 651.109C116.793 638.129 114.89 624.751 110.51 612.432C99.966 582.775 75.935 560.107 54.79 537.77C34.369 516.198 13.566 494.894 -9.05603 475.6C-31.277 456.648 -55.352 439.603 -81.765 426.988C-109.041 413.962 -138.392 406.561 -167.702 399.717C-196.79 392.925 -226.237 386.554 -253.788 374.717C-280.286 363.332 -305.842 347.067 -323.031 323.453C-327.143 317.804 -330.706 311.791 -333.721 305.489C-334.829 303.172 -338.225 305.282 -337.125 307.582Z" fill="url(#paint8_linear_4006_4)"/>
</g>
</g>
<mask id="mask2_4006_4" style="mask-type:luminance" maskUnits="userSpaceOnUse" x="0" y="0" width="2560" height="1440">
<path d="M2560 0H0V1440H2560V0Z" fill="white"/>
</mask>
<g mask="url(#mask2_4006_4)">
<g opacity="0.5">
<path d="M2803.4 437.16C2803.17 434.638 2799.2 434.605 2799.43 437.152C2804.71 495.144 2780.23 553.326 2737.99 592.854C2716.52 612.948 2690.61 627.757 2662.2 635.467C2628.71 644.557 2593.66 644.378 2559.35 641.229C2490.74 634.932 2422.03 617.369 2353.21 631.596C2282.2 646.276 2220.39 686.396 2153.75 712.938C2093.4 736.973 2023.23 750.06 1962.66 719.206C1932.91 704.057 1913.41 679.396 1898.06 650.369C1883.47 622.785 1871.28 593.905 1849.92 570.633C1807.94 524.899 1746.99 505.201 1692.35 479.446C1637.23 453.457 1581.37 416.902 1566.03 353.951C1548.94 283.821 1580.79 214.369 1611.03 152.866C1640.76 92.4209 1672.83 27.5559 1664.09 -41.9121C1662.14 -57.4681 1657.92 -72.5061 1651.44 -86.7811C1650.39 -89.1041 1646.96 -87.0961 1648.01 -84.7851C1679.34 -15.7741 1651.13 60.8799 1620.48 124.555C1590.5 186.827 1554.66 250.569 1557.65 322.005C1558.98 353.61 1568.92 384.001 1588.28 409.185C1606.12 432.398 1630.04 450.153 1655.23 464.685C1709.48 495.986 1772 512.3 1822.17 550.761C1835.51 560.989 1847.75 572.813 1857.8 586.321C1867.32 599.113 1874.81 613.251 1881.98 627.447C1896.15 655.49 1909.78 684.606 1934.32 705.236C1982.19 745.466 2050.17 747.711 2108.1 732.433C2179.9 713.499 2242.45 671.258 2312.3 647.142C2347.55 634.971 2383.65 628.978 2420.95 630.072C2456.56 631.116 2491.77 636.963 2527.03 641.53C2591.26 649.849 2659.55 652.915 2715.81 615.467C2762.27 584.544 2794.89 533.098 2802.48 477.752C2804.33 464.283 2804.63 450.699 2803.4 437.16Z" fill="url(#paint9_linear_4006_4)"/>
<path d="M2677.02 470.862C2600.74 554.779 2480.18 564.304 2374.92 578.621C2345 582.691 2315.23 587.552 2285.83 594.479C2257.28 601.206 2229.07 609.27 2200.6 616.322C2149.01 629.103 2095.1 638.969 2042.16 628.797C1999.54 620.61 1956.68 600.483 1930.41 564.79C1916.21 545.5 1910.12 523.389 1903.61 500.705C1897.19 478.301 1888.6 456.96 1869.44 442.486C1850.49 428.17 1827.07 421.82 1806.59 410.187C1784.98 397.911 1769.19 378.776 1758.1 356.771C1747.07 334.889 1740.48 310.907 1735.9 286.919C1731.37 263.132 1729.17 238.917 1729.18 214.704C1729.22 118.16 1764.35 21.453 1827.88 -51.45C1835.44 -60.115 1843.39 -68.414 1851.69 -76.364C1853.54 -78.134 1850.73 -80.944 1848.89 -79.176C1813.66 -45.434 1785.12 -5.01804 1764.49 39.156C1744.07 82.881 1731.27 130.089 1726.89 178.152C1722.48 226.531 1726.44 276.447 1740.6 323.025C1747.56 345.896 1757.49 368.314 1772.8 386.874C1780.31 395.987 1789.16 403.98 1799.12 410.331C1809.36 416.849 1820.53 421.687 1831.59 426.587C1842.74 431.525 1853.98 436.535 1864.06 443.479C1874.6 450.744 1882.88 460.221 1888.72 471.614C1900.08 493.782 1902.81 519.174 1912.68 541.946C1930.13 582.184 1967.38 609.347 2007.82 623.644C2055.06 640.346 2104.95 639.291 2153.73 630.579C2213.16 619.966 2270.4 599.875 2329.89 589.476C2390.56 578.87 2452.33 574.957 2512.47 561.243C2562.3 549.877 2611.77 531.345 2652.23 499.415C2662.12 491.607 2671.35 483.002 2679.82 473.676C2681.54 471.788 2678.75 468.967 2677.02 470.862Z" fill="url(#paint10_linear_4006_4)"/>
<path d="M2732.97 414.527C2698.16 387.72 2653.66 378.386 2610.42 380.999C2563.72 383.822 2519.8 400.112 2478.85 422.019C2434.08 445.975 2392.86 475.831 2349.49 502.13C2304.24 529.575 2256.4 552.729 2206.75 571.097C2163.68 587.036 2104.93 611.176 2065.84 574.277C2050.86 560.137 2041.44 541.229 2032.44 522.999C2022.83 503.546 2012.95 484.56 1999.81 467.198C1972.83 431.566 1937.52 404.643 1897.03 386.116C1878.36 377.575 1858.36 369.546 1843.16 355.31C1825.39 338.662 1820.5 315.542 1825.69 292.202C1831.31 266.983 1844.82 244.396 1855.58 221.178C1866.44 197.767 1875.86 173.69 1883.77 149.128C1899.71 99.6379 1909.53 48.1709 1912.94 -3.7121C1913.77 -16.3651 1914.2 -29.0401 1914.27 -41.7201C1914.28 -44.2741 1910.32 -44.2861 1910.3 -41.7281C1910 11.5989 1902.93 64.7819 1889.26 116.331C1882.47 141.907 1874.08 167.059 1864.14 191.581C1854.19 216.141 1841.35 239.312 1831.04 263.686C1822.13 284.759 1815.21 308.896 1822.83 331.452C1829.2 350.27 1844.28 363.369 1861.05 372.998C1879.46 383.567 1899.6 390.688 1918.13 401.049C1938.31 412.34 1956.89 426.43 1973.27 442.76C1989.64 459.09 2003.79 477.623 2015.11 497.795C2025.36 516.056 2033.23 535.586 2044.29 553.399C2054.63 570.04 2068.12 584.935 2086.67 592.324C2109.5 601.416 2135.08 597.625 2158.11 591.373C2183.44 584.495 2208.29 575.185 2232.59 565.303C2256.86 555.429 2280.68 544.437 2303.93 532.337C2349.59 508.568 2391.78 479.363 2435.35 452.096C2477.26 425.859 2521.49 401.452 2570.17 390.679C2614.23 380.931 2662.67 381.449 2703.98 401.286C2713.54 405.878 2722.56 411.478 2730.96 417.95C2732.98 419.507 2734.97 416.066 2732.97 414.527Z" fill="url(#paint11_linear_4006_4)"/>
<path d="M2596.92 261.23C2527.32 294.381 2458.99 330.214 2392.17 368.663C2359.41 387.509 2327.37 407.465 2294.98 426.922C2264.95 444.962 2230.6 463.209 2194.36 458.826C2160.07 454.677 2133.43 429.707 2109.41 407.012C2084.86 383.801 2060.8 359.303 2043.18 330.255C2034.37 315.747 2027.41 300.222 2022.92 283.84C2018.01 265.909 2015.91 247.352 2015.36 228.803C2014.24 190.982 2018.5 152.966 2021.47 115.306C2027.62 37.458 2035.08 -40.502 2050.82 -117.084C2052.71 -126.284 2054.73 -135.458 2056.86 -144.605C2057.44 -147.089 2053.62 -148.158 2053.04 -145.668C2044.06 -107.198 2037.36 -68.243 2032.08 -29.103C2026.8 10.111 2022.96 49.503 2019.65 88.928C2017.98 108.844 2016.44 128.77 2014.93 148.698C2013.49 167.584 2011.94 186.476 2011.41 205.415C2010.4 241.921 2013.7 278.875 2029.15 312.412C2043.34 343.19 2065.71 369.386 2089.47 393.193C2101.62 405.373 2114.11 417.367 2127.17 428.575C2139.73 439.345 2153.25 449.318 2168.55 455.827C2184.34 462.546 2201.4 464.766 2218.41 462.566C2235.91 460.304 2252.57 453.968 2268.33 446.218C2285.05 437.988 2300.83 428.028 2316.68 418.258C2333.25 408.042 2349.92 397.989 2366.69 388.101C2400.39 368.227 2434.48 349.019 2468.94 330.49C2503.23 312.053 2537.89 294.289 2572.87 277.214C2581.54 272.987 2590.22 268.805 2598.92 264.661C2601.22 263.564 2599.22 260.136 2596.92 261.23Z" fill="url(#paint12_linear_4006_4)"/>
<path d="M2643.45 61.435C2584.96 55.147 2534.57 94.282 2495.29 132.791C2474.22 153.453 2454.15 175.25 2431.27 193.976C2408.54 212.577 2382.85 226.901 2355.59 237.729C2328.81 248.371 2300.9 255.89 2272.83 262.293C2258.45 265.575 2244 268.56 2229.54 271.512C2213.52 274.785 2197.41 278.173 2181.02 278.852C2153.88 279.976 2123.46 272.21 2108.52 247.495C2094.03 223.533 2097.32 192.851 2101.48 166.482C2111.2 104.785 2134.74 46.535 2150.76 -13.581C2152.76 -21.064 2154.63 -28.579 2156.36 -36.128C2156.93 -38.614 2153.1 -39.684 2152.53 -37.191C2138.31 24.886 2113.67 84.116 2101.04 146.597C2098.07 161.283 2095.6 176.189 2094.55 191.149C2093.62 204.513 2093.97 218.218 2097.45 231.225C2100.82 243.814 2107.39 255.452 2117.33 264.007C2127.22 272.524 2139.52 277.898 2152.22 280.625C2182.78 287.192 2214.48 278.714 2244.39 272.502C2273.28 266.502 2302.14 260.04 2330.25 250.992C2357.86 242.104 2384.83 230.655 2409.28 214.917C2434.52 198.665 2456.09 177.723 2477.17 156.526C2498.09 135.489 2518.84 113.929 2543.22 96.823C2566.67 80.372 2593.76 67.263 2622.68 65.061C2629.6 64.534 2636.54 64.661 2643.44 65.402C2645.98 65.677 2645.97 61.706 2643.45 61.435Z" fill="url(#paint13_linear_4006_4)"/>
</g>
</g>
<mask id="mask3_4006_4" style="mask-type:luminance" maskUnits="userSpaceOnUse" x="0" y="0" width="2560" height="1440">
<path d="M2560 0H0V1440H2560V0Z" fill="white"/>
</mask>
<g mask="url(#mask3_4006_4)">
<g opacity="0.5">
<path d="M2547.3 1467.9C2525.88 1401.39 2482.69 1342.72 2425.4 1302.67C2387.84 1276.41 2344.51 1258.93 2299.48 1250.95C2285.74 1243.89 2271.43 1237.87 2256.67 1232.98C2217 1219.82 2174.45 1214.9 2132.89 1219.82C2106.45 1222.95 2080.29 1231.24 2053.45 1229.87C2030.7 1228.71 2006.15 1219.23 1995.49 1197.76C1985.11 1176.86 1988.29 1151.25 1985.29 1128.67C1982.48 1107.47 1977.19 1086.62 1969.68 1066.6C1955.41 1028.57 1933.35 993.535 1905.34 964.13C1877.14 934.516 1842.76 910.585 1804.68 895.522C1781.52 886.363 1756.32 880.386 1731.28 882.375C1710.19 884.051 1690.82 891.985 1673.23 903.511C1654.94 915.503 1638.79 930.382 1621.62 943.856C1604.31 957.439 1585.75 968.809 1565.11 976.588C1525.4 991.556 1482.35 994.071 1440.31 993.403C1359.52 992.12 1272.85 976.205 1195.13 1005.83C1115.81 1036.07 1079.17 1113.21 1027.29 1174.29C998.421 1208.29 964.248 1232.95 921.704 1246.96C878.424 1261.21 832.797 1266.49 789.431 1280.44C750.922 1292.82 715.84 1312.94 691.566 1345.98C668.673 1377.14 656.42 1416.17 657.17 1454.81C657.538 1473.79 661.159 1492.5 667.926 1510.23C668.827 1512.6 672.668 1511.58 671.755 1509.19C641.503 1429.92 678.449 1337.13 753.711 1299.07C829.437 1260.77 922.382 1269.45 991.206 1215.35C1055.35 1164.93 1084.98 1082.5 1151.06 1034.13C1218.68 984.633 1306.6 991.126 1385.76 995.237C1464.42 999.322 1548.71 1002.58 1615.38 953.566C1650.63 927.647 1682.18 891.582 1728.21 886.625C1774.99 881.588 1822.99 903.84 1860.32 930.308C1928.77 978.841 1975.77 1058.07 1982.77 1141.96C1984.48 1162.53 1982.97 1185.13 1994.09 1203.48C2003.52 1219.05 2020.5 1228.11 2037.89 1231.82C2060.51 1236.63 2083.58 1232.26 2105.94 1228.16C2128.69 1223.98 2151.27 1221.28 2174.45 1222.08C2212.99 1223.41 2251.24 1232.76 2286.37 1248.89C2260.24 1245.35 2233.67 1244.99 2207.44 1247.96C2126.46 1257.11 2055.65 1306.57 1974.19 1312.05C1941.83 1314.23 1903.76 1307.13 1882.05 1280.85C1853.67 1246.5 1870.93 1199.81 1881.57 1162.13C1889.94 1132.51 1896.11 1095.42 1877.47 1068.26C1859.05 1041.44 1823.69 1037.06 1793.99 1042.99C1773.04 1047.16 1753.36 1055.74 1733.18 1062.47C1711.75 1069.63 1689.62 1074 1667.12 1075.96C1623.39 1079.76 1579.46 1075.33 1535.98 1070.61C1460.97 1062.46 1380.71 1052.95 1309.01 1082.91C1241.27 1111.23 1205.97 1174.58 1160.68 1228.16C1135.8 1257.58 1106.77 1281.05 1072.36 1298.51C1037.91 1315.99 1001.05 1327.97 964.834 1341.16C902.481 1363.87 835.266 1394.47 800.081 1454.1C792.052 1467.71 786.372 1482.43 783.11 1497.88C782.584 1500.37 786.407 1501.44 786.935 1498.94C801.701 1429 866.841 1385.28 928.722 1359.31C995.937 1331.11 1070.57 1315.3 1127.67 1267.37C1180.91 1222.66 1210.43 1156.03 1265.28 1112.97C1326.36 1065.03 1408.27 1062.75 1482.31 1069.04C1564.87 1076.06 1650.14 1093.53 1731.19 1067.31C1767.37 1055.6 1805.86 1035.68 1844.55 1048.69C1885.43 1062.44 1889.59 1106.53 1882.15 1143.1C1875.03 1178.05 1857.87 1212.57 1863.76 1249.07C1868.7 1279.69 1891.69 1300.59 1920.27 1309.92C1991.53 1333.17 2066.64 1291.99 2132.6 1269.61C2186.85 1251.21 2243.69 1245.59 2298.98 1255.05C2336.28 1274.35 2369.48 1301.47 2394.95 1334.88C2449.06 1405.85 2464.88 1502.8 2440.51 1588.17C2434.58 1608.92 2426.25 1628.83 2415.72 1647.65C2414.47 1649.89 2417.89 1651.9 2419.14 1649.66C2462 1573.07 2467.02 1477.73 2434.3 1396.45C2410.41 1337.12 2366.16 1288.81 2311.42 1257.45C2329.51 1261.32 2347.4 1266.81 2364.94 1274.06C2432.65 1302.03 2488.93 1354.63 2522.82 1419.43C2531.13 1435.31 2537.98 1451.88 2543.48 1468.94C2544.25 1471.36 2548.09 1470.34 2547.3 1467.9Z" fill="url(#paint14_linear_4006_4)"/>
<path d="M2423.97 1457.09C2395.7 1414.73 2363.04 1367.94 2314.28 1347.75C2289.16 1337.36 2262 1336.61 2235.82 1343.29C2207.22 1350.58 2181.01 1364.86 2154.55 1377.51C2125.79 1391.26 2096.43 1402.09 2064.48 1405.13C2032.82 1408.13 2000.59 1404.52 1970.43 1394.43C1914.88 1375.84 1868.34 1334.45 1842.08 1282.23C1829.55 1257.32 1824.39 1230.37 1815.47 1204.19C1807.69 1181.36 1795.47 1159.27 1772.75 1148.6C1746.65 1136.34 1716.37 1140.62 1688.83 1144.24C1652.48 1149.02 1616.14 1153.8 1579.79 1158.58C1510.06 1167.74 1440.13 1176.01 1370.56 1186.38C1308.51 1195.62 1245.62 1209.04 1190.72 1240.73C1139.11 1270.53 1097.75 1314.59 1061.21 1361.03C1042.58 1384.72 1024.26 1408.95 1007.3 1433.87C993.349 1454.37 981.696 1481.16 997.759 1503.95C1003.62 1512.26 1012.16 1517.6 1022.4 1518.02C1024.96 1518.12 1024.96 1514.15 1022.41 1514.05C1007.53 1513.44 997.422 1500.39 994.553 1486.66C991.411 1471.63 997.852 1456.55 1005.51 1443.92C1020.57 1419.1 1039.34 1395.81 1057.04 1372.81C1092.78 1326.38 1132.65 1281.66 1182.66 1250.22C1235.16 1217.22 1296.09 1202.26 1356.68 1192.51C1424.14 1181.66 1492.22 1174.06 1559.96 1165.15C1594.89 1160.56 1629.82 1155.97 1664.75 1151.38C1694.13 1147.51 1725.98 1140.35 1755.46 1146.93C1813.7 1159.93 1813.97 1228.65 1833.58 1273.46C1854.53 1321.31 1892.38 1361.76 1938.94 1385.51C1990.17 1411.65 2051.46 1417.19 2106.64 1401.06C2161.38 1385.06 2209.92 1343.17 2268.8 1342.74C2325.26 1342.33 2367.31 1385.3 2398.58 1427.57C2406.19 1437.86 2413.42 1448.44 2420.53 1459.09C2421.94 1461.2 2425.39 1459.23 2423.97 1457.09Z" fill="url(#paint15_linear_4006_4)"/>
<path d="M1886.9 1449.39C1867.88 1426.73 1843.26 1409.91 1819.2 1393.09C1806.47 1384.19 1793.75 1375.23 1781.86 1365.21C1770.25 1355.43 1759.5 1344.69 1749.03 1333.71C1728.39 1312.07 1708.66 1289.25 1684.94 1270.87C1663.14 1253.97 1637.73 1240.45 1610.01 1237.17C1580.34 1233.65 1552.57 1244.61 1526.41 1257.4C1512.81 1264.05 1499.37 1270.98 1485.52 1277.1C1471.28 1283.4 1456.81 1289.15 1442.35 1294.91C1414.13 1306.13 1385.76 1317.36 1359.27 1332.34C1315.39 1357.15 1273.79 1396.53 1263.24 1447.73C1262.02 1453.63 1261.26 1459.63 1260.92 1465.65C1260.78 1468.2 1264.75 1468.2 1264.89 1465.66C1267.8 1414.06 1305.04 1371.67 1346.59 1344.64C1396.32 1312.29 1454.77 1297.12 1507.68 1271.12C1533.83 1258.27 1560.42 1243.03 1590.08 1240.71C1618.05 1238.53 1645.08 1248.82 1668.24 1263.83C1692.52 1279.56 1712.53 1300.62 1732.19 1321.61C1752.4 1343.18 1772.77 1364.12 1796.57 1381.78C1840.25 1414.2 1896.59 1444.42 1910.54 1501.69C1912.13 1508.2 1912.95 1514.82 1913.06 1521.52C1913.1 1524.07 1917.07 1524.08 1917.03 1521.53C1916.6 1494.5 1903.99 1469.75 1886.9 1449.39Z" fill="url(#paint16_linear_4006_4)"/>
</g>
</g>
</g>
<defs>
<linearGradient id="paint0_linear_4006_4" x1="556.809" y1="190.619" x2="1411.37" y2="190.619" gradientUnits="userSpaceOnUse">
<stop stop-color="#65C2F5"/>
<stop offset="1" stop-color="#0463CA"/>
</linearGradient>
<linearGradient id="paint1_linear_4006_4" x1="672.821" y1="151.868" x2="1339.08" y2="151.868" gradientUnits="userSpaceOnUse">
<stop stop-color="#65C2F5"/>
<stop offset="1" stop-color="#0463CA"/>
</linearGradient>
<linearGradient id="paint2_linear_4006_4" x1="855.186" y1="93.7589" x2="1217.08" y2="93.7589" gradientUnits="userSpaceOnUse">
<stop stop-color="#65C2F5"/>
<stop offset="1" stop-color="#0463CA"/>
</linearGradient>
<linearGradient id="paint3_linear_4006_4" x1="933.376" y1="31.0782" x2="1117.48" y2="31.0782" gradientUnits="userSpaceOnUse">
<stop stop-color="#65C2F5"/>
<stop offset="1" stop-color="#0463CA"/>
</linearGradient>
<linearGradient id="paint4_linear_4006_4" x1="-100.719" y1="586.53" x2="591.01" y2="586.53" gradientUnits="userSpaceOnUse">
<stop stop-color="#65C2F5"/>
<stop offset="1" stop-color="#0463CA"/>
</linearGradient>
<linearGradient id="paint5_linear_4006_4" x1="-38.7119" y1="566.688" x2="485.323" y2="566.688" gradientUnits="userSpaceOnUse">
<stop stop-color="#65C2F5"/>
<stop offset="1" stop-color="#0463CA"/>
</linearGradient>
<linearGradient id="paint6_linear_4006_4" x1="-82.8009" y1="516.329" x2="413.243" y2="516.329" gradientUnits="userSpaceOnUse">
<stop stop-color="#65C2F5"/>
<stop offset="1" stop-color="#0463CA"/>
</linearGradient>
<linearGradient id="paint7_linear_4006_4" x1="-204.681" y1="580.461" x2="253.28" y2="580.461" gradientUnits="userSpaceOnUse">
<stop stop-color="#65C2F5"/>
<stop offset="1" stop-color="#0463CA"/>
</linearGradient>
<linearGradient id="paint8_linear_4006_4" x1="-337.341" y1="542.446" x2="115.563" y2="542.446" gradientUnits="userSpaceOnUse">
<stop stop-color="#65C2F5"/>
<stop offset="1" stop-color="#0463CA"/>
</linearGradient>
<linearGradient id="paint9_linear_4006_4" x1="1557.48" y1="326.676" x2="2804.14" y2="326.676" gradientUnits="userSpaceOnUse">
<stop stop-color="#65C2F5"/>
<stop offset="1" stop-color="#0463CA"/>
</linearGradient>
<linearGradient id="paint10_linear_4006_4" x1="1725.18" y1="278.517" x2="2680.36" y2="278.517" gradientUnits="userSpaceOnUse">
<stop stop-color="#65C2F5"/>
<stop offset="1" stop-color="#0463CA"/>
</linearGradient>
<linearGradient id="paint11_linear_4006_4" x1="1819.56" y1="277.047" x2="2733.8" y2="277.047" gradientUnits="userSpaceOnUse">
<stop stop-color="#65C2F5"/>
<stop offset="1" stop-color="#0463CA"/>
</linearGradient>
<linearGradient id="paint12_linear_4006_4" x1="2011.25" y1="158.151" x2="2599.94" y2="158.151" gradientUnits="userSpaceOnUse">
<stop stop-color="#65C2F5"/>
<stop offset="1" stop-color="#0463CA"/>
</linearGradient>
<linearGradient id="paint13_linear_4006_4" x1="2094.11" y1="122.196" x2="2645.34" y2="122.195" gradientUnits="userSpaceOnUse">
<stop stop-color="#65C2F5"/>
<stop offset="1" stop-color="#0463CA"/>
</linearGradient>
<linearGradient id="paint14_linear_4006_4" x1="657.137" y1="1266.31" x2="2547.41" y2="1266.31" gradientUnits="userSpaceOnUse">
<stop stop-color="#65C2F5"/>
<stop offset="1" stop-color="#0463CA"/>
</linearGradient>
<linearGradient id="paint15_linear_4006_4" x1="989.987" y1="1329.24" x2="2424.3" y2="1329.24" gradientUnits="userSpaceOnUse">
<stop stop-color="#65C2F5"/>
<stop offset="1" stop-color="#0463CA"/>
</linearGradient>
<linearGradient id="paint16_linear_4006_4" x1="1260.92" y1="1379.97" x2="1917.03" y2="1379.97" gradientUnits="userSpaceOnUse">
<stop stop-color="#65C2F5"/>
<stop offset="1" stop-color="#0463CA"/>
</linearGradient>
<clipPath id="clip0_4006_4">
<rect width="2560" height="1440" fill="white"/>
</clipPath>
</defs>
</svg>
