<svg width="1080" height="1080" viewBox="0 0 1080 1080" fill="none" xmlns="http://www.w3.org/2000/svg">
<path d="M1080 540C1080 1080 1080 1080 540 1080C0 1080 0 1080 0 540C0 6.10352e-05 0 0 540 0C1080 0 1080 0 1080 540Z" fill="url(#paint0_linear_4003_33)"/>
<path fill-rule="evenodd" clip-rule="evenodd" d="M302 539H423.565C423.017 560.034 431.028 579.313 438.637 590.751C447.977 604.793 461.572 616.017 474.974 624.476C475.597 624.96 476.265 625.401 476.976 625.795L478.402 626.583C480.184 627.651 481.957 628.669 483.709 629.638L528.51 654.422L528.53 654.433L528.55 654.444L528.569 654.455L528.622 654.484L528.653 654.501L528.667 654.509L528.681 654.517L528.695 654.524L528.707 654.531L528.719 654.538L528.731 654.544L528.761 654.561L528.77 654.566L528.779 654.571L528.787 654.575L528.794 654.579L528.808 654.587L528.82 654.593L528.825 654.596L528.83 654.599L528.834 654.601L528.842 654.606L528.845 654.607L528.848 654.609L528.851 654.611L528.854 654.612L528.856 654.613L528.858 654.614L528.859 654.615L528.861 654.616L528.862 654.617L528.864 654.618L528.865 654.619L528.867 654.619L528.868 654.62L528.87 654.621L528.872 654.622L528.873 654.623L528.874 654.623L528.876 654.624L528.878 654.625L528.88 654.627L528.883 654.628L528.885 654.63L528.888 654.631L528.9 654.638L528.904 654.64L528.909 654.643L528.914 654.646L528.926 654.652L528.932 654.656L528.955 654.668L528.964 654.673L528.992 654.689L529.003 654.695L529.015 654.701L529.026 654.708L529.081 654.738L529.146 654.774L529.165 654.784L571.713 678.322C576.939 681.505 581.781 685.024 586.55 689.208H518.367C512.706 689.208 508.118 693.797 508.118 699.457C508.118 705.117 512.706 709.706 518.367 709.706H605.393C610.239 716.49 615.016 725.378 619.119 734.047H495.307C489.647 734.047 485.058 738.635 485.058 744.296C485.058 749.956 489.647 754.544 495.307 754.544H627.898C628.179 755.273 628.415 755.894 628.603 756.395C628.787 756.884 628.925 757.257 629.015 757.5L629.06 757.625L629.111 757.765L629.131 757.82L629.133 757.823L629.133 757.826L629.134 757.828C632.008 765.815 640.812 769.961 648.8 767.089C656.789 764.217 660.938 755.412 658.066 747.422L643.599 752.623C658.066 747.422 658.065 747.42 658.065 747.419L658.063 747.414L658.047 747.371L658.009 747.266L657.92 747.021L657.875 746.899C657.825 746.763 657.765 746.6 657.696 746.413C657.654 746.302 657.61 746.181 657.561 746.052C657.506 745.904 657.447 745.745 657.383 745.575C656.958 744.444 656.341 742.83 655.553 740.843C653.982 736.876 651.717 731.382 648.93 725.25C643.518 713.341 635.551 697.687 626.311 686.477C614.899 672.631 604.009 662.593 591.284 654.315C590.557 653.713 589.764 653.17 588.908 652.697L587.115 651.705C585.501 650.732 583.856 649.783 582.176 648.853L537.154 623.948L537.077 623.905L537.071 623.901L537.06 623.895L537.05 623.89L537.046 623.888L537.042 623.886L537.039 623.884L537.033 623.881L537.029 623.878L537.025 623.876L537.023 623.875L537.02 623.874L537.019 623.873L537.017 623.872L537.016 623.871L537.015 623.871L537.013 623.87L537.012 623.869L537.01 623.868L537.007 623.866L537.004 623.865L537.002 623.863L536.999 623.862L536.993 623.858L536.975 623.849L536.97 623.846L536.965 623.843L536.952 623.836L536.945 623.832L536.929 623.823L536.921 623.819L536.912 623.813L536.881 623.797L536.87 623.79L493.77 599.948C481.745 592.689 470.883 583.715 464.236 573.723C463.999 573.365 463.763 573 463.529 572.629H590.107C595.767 572.629 600.356 568.04 600.356 562.38C600.356 556.72 595.767 552.131 590.107 552.131H455.423C454.575 547.879 454.178 543.448 454.401 539H628.091C628.688 548.283 626.853 557.953 620.992 566.488C616.241 573.406 608.534 581.913 601.538 589.075C598.129 592.565 595.047 595.576 592.82 597.712C591.709 598.778 590.816 599.621 590.208 600.19C589.905 600.475 589.673 600.691 589.52 600.832L589.353 600.986L589.313 601.024L589.312 601.025C583.062 606.77 582.652 616.494 588.397 622.745C594.142 628.997 603.867 629.407 610.118 623.662L599.715 612.343C610.118 623.662 610.119 623.661 610.12 623.66L610.122 623.658L610.128 623.652L610.209 623.577L610.43 623.374C610.618 623.199 610.888 622.948 611.231 622.626C611.917 621.983 612.898 621.058 614.104 619.901C616.511 617.591 619.839 614.34 623.533 610.559C630.741 603.178 640.009 593.109 646.337 583.894C656.43 569.195 659.584 553.525 658.914 539H778V378C778 246.556 671.444 140 540 140C408.556 140 302 246.556 302 378V539ZM810 702C810 851.117 689.117 972 540 972C390.883 972 270 851.117 270 702V378C270 228.883 390.883 108 540 108C689.117 108 810 228.883 810 378V702ZM658.914 539H628.091C627.381 527.944 623.22 517.436 618.302 510.042C611.656 500.05 600.794 491.076 588.768 483.817L545.587 459.929L545.58 459.926L545.568 459.919L545.558 459.913L545.554 459.911L545.55 459.909L545.546 459.907L545.542 459.905L545.537 459.902L545.534 459.9L545.532 459.899L545.53 459.898L545.528 459.897L545.527 459.896L545.526 459.895L545.522 459.894L545.521 459.893L545.52 459.892L545.518 459.891L545.516 459.89L545.515 459.89L545.512 459.888L545.51 459.887L545.505 459.884L545.502 459.883L545.496 459.879L545.492 459.877L545.488 459.875L545.484 459.872L500.363 434.911C498.682 433.982 497.037 433.033 495.424 432.06L493.63 431.068C492.774 430.595 491.981 430.051 491.254 429.45C478.529 421.172 467.639 411.133 456.228 397.288C446.988 386.078 439.02 370.424 433.608 358.515C430.822 352.382 428.556 346.889 426.985 342.922C426.198 340.935 425.581 339.321 425.156 338.19C424.943 337.624 424.778 337.178 424.663 336.866C424.606 336.71 424.561 336.587 424.529 336.499L424.491 336.394L424.474 336.346C424.473 336.345 424.473 336.343 438.939 331.142L424.473 336.343C421.601 328.353 425.749 319.548 433.739 316.675C441.727 313.804 450.53 317.95 453.404 325.937L453.405 325.938L453.405 325.939L453.406 325.942L453.407 325.944L453.427 326L453.478 326.14L453.524 326.265C453.613 326.507 453.751 326.88 453.935 327.37C454.304 328.35 454.856 329.795 455.57 331.599C457.002 335.213 459.069 340.226 461.6 345.795C466.823 357.289 473.431 369.819 479.953 377.733C490.491 390.518 499.802 398.73 510.826 405.443L553.583 429.097L553.599 429.105L553.606 429.109L553.613 429.113L553.619 429.116L553.634 429.125L553.639 429.127L553.647 429.132L553.653 429.135L553.656 429.137L553.661 429.139L553.664 429.141L553.666 429.142L553.667 429.143L553.669 429.144L553.672 429.146L553.673 429.146L553.674 429.147L553.676 429.148L553.679 429.15L553.681 429.151L553.683 429.152L553.693 429.157L553.697 429.159L553.719 429.172L598.83 454.127C600.581 455.096 602.354 456.114 604.136 457.182L605.562 457.97C606.274 458.364 606.941 458.805 607.564 459.289C620.966 467.747 634.562 478.972 643.902 493.014C650.809 503.398 658.049 520.245 658.914 539ZM454.401 539C454.634 534.366 455.541 529.714 457.314 525.228H590.107C595.767 525.228 600.356 520.64 600.356 514.979C600.356 509.319 595.767 504.731 590.107 504.731H471.616C474.672 501.29 477.906 497.859 481.001 494.69C484.41 491.2 487.492 488.188 489.718 486.053C490.829 484.987 491.722 484.144 492.33 483.575C492.634 483.29 492.866 483.074 493.018 482.933L493.185 482.779L493.222 482.745L493.226 482.741L493.227 482.74C499.477 476.995 499.887 467.27 494.142 461.02C488.397 454.768 478.672 454.358 472.421 460.103L482.823 471.422C472.421 460.103 472.42 460.104 472.419 460.105L472.416 460.107L472.329 460.188L472.241 460.269L472.109 460.391C471.921 460.566 471.651 460.817 471.307 461.139C470.621 461.782 469.641 462.707 468.435 463.864C466.027 466.174 462.699 469.425 459.006 473.206C451.797 480.587 442.53 490.656 436.202 499.871C427.431 512.643 423.9 526.149 423.565 539H454.401ZM583.555 411.326C589.077 417.775 598.782 418.527 605.231 413.004C612.393 406.871 619.13 399.839 625.984 391.523C635.224 380.313 643.191 364.659 648.603 352.75C651.39 346.618 653.655 341.124 655.227 337.157C656.014 335.17 656.631 333.556 657.056 332.425C657.269 331.859 657.434 331.413 657.548 331.101C657.583 331.006 657.614 330.923 657.639 330.853L657.682 330.734L657.732 330.597L657.736 330.586L657.738 330.581C657.738 330.58 657.739 330.578 643.272 325.377L657.739 330.578C660.611 322.588 656.463 313.783 648.473 310.911C640.484 308.039 631.68 312.186 628.807 320.174L628.806 320.177L628.805 320.18L628.784 320.235C628.765 320.29 628.732 320.378 628.688 320.5C628.603 320.731 628.474 321.079 628.303 321.534H495.307C489.647 321.534 485.058 326.122 485.058 331.783C485.058 337.443 489.647 342.031 495.307 342.031H619.693C615.764 350.501 611.143 359.349 606.4 366.372H518.367C512.706 366.372 508.118 370.961 508.118 376.621C508.118 382.281 512.706 386.87 518.367 386.87H588.358C587.316 387.832 586.275 388.758 585.233 389.65C578.784 395.173 578.032 404.877 583.555 411.326ZM474.419 664.72C480.868 659.198 490.573 659.949 496.095 666.399C501.617 672.848 500.866 682.552 494.417 688.075C488.867 692.826 483.359 698.517 477.391 705.757C476.614 706.701 475.835 707.71 475.057 708.775C469.313 716.644 463.638 727.571 459.038 737.695C456.507 743.264 454.44 748.277 453.008 751.891C452.294 753.694 451.742 755.139 451.373 756.12C451.189 756.609 451.051 756.982 450.962 757.225C450.917 757.346 450.885 757.435 450.865 757.49L450.843 757.551C447.97 765.539 439.165 769.686 431.177 766.814C423.187 763.942 419.038 755.137 421.911 747.147L436.377 752.348C421.911 747.147 421.911 747.145 421.912 747.143L421.913 747.139L421.929 747.096L421.967 746.991C421.99 746.928 422.019 746.847 422.055 746.749L422.101 746.624C422.216 746.312 422.381 745.866 422.594 745.3C423.019 744.169 423.636 742.555 424.423 740.568C425.994 736.601 428.259 731.107 431.046 724.975C436.458 713.066 444.426 697.412 453.666 686.202C460.52 677.886 467.257 670.854 474.419 664.72Z" fill="white"/>
<defs>
<linearGradient id="paint0_linear_4003_33" x1="162.277" y1="539.999" x2="943.151" y2="539.999" gradientUnits="userSpaceOnUse">
<stop stop-color="#35BC88"/>
<stop offset="1" stop-color="#0B7E7F"/>
</linearGradient>
</defs>
</svg>
