<svg width="180" height="180" viewBox="0 0 180 180" fill="none" xmlns="http://www.w3.org/2000/svg">
<path d="M180 90C180 139.706 139.706 180 90 180C40.2944 180 0 139.706 0 90C0 40.2944 40.2944 0 90 0C139.706 0 180 40.2944 180 90Z" fill="url(#paint0_linear_4003_34)"/>
<path fill-rule="evenodd" clip-rule="evenodd" d="M50.3333 90H70.5942C70.5028 93.5056 71.8381 96.7189 73.1061 98.6252C74.6628 100.965 76.9287 102.836 79.1624 104.246C79.2662 104.327 79.3775 104.4 79.4961 104.466L79.7336 104.597C80.0307 104.775 80.3262 104.945 80.6181 105.106L88.085 109.237L88.0884 109.239L88.0949 109.242L88.1036 109.247L88.1088 109.25L88.1113 109.252L88.1136 109.253L88.1158 109.254L88.1179 109.255L88.1199 109.256L88.1218 109.257L88.1268 109.26L88.1284 109.261L88.1298 109.262L88.1311 109.263L88.1324 109.263L88.1346 109.264L88.1366 109.266L88.1403 109.268L88.1414 109.268L88.1426 109.269L88.1437 109.269L88.1467 109.271L88.1481 109.272L88.1499 109.273L88.1515 109.274L88.1543 109.275L88.1554 109.276L88.1592 109.278L88.1606 109.279L88.1654 109.281L88.1672 109.282L88.1691 109.284L88.1711 109.285L88.1801 109.29L88.1911 109.296L88.1941 109.297L95.2855 113.22C96.1566 113.751 96.9635 114.337 97.7584 115.035H86.3944C85.4511 115.035 84.6863 115.8 84.6863 116.743C84.6863 117.686 85.4511 118.451 86.3944 118.451H100.899C101.707 119.582 102.503 121.063 103.187 122.508H82.5512C81.6078 122.508 80.8431 123.273 80.8431 124.216C80.8431 125.159 81.6078 125.924 82.5512 125.924H104.65C104.697 126.045 104.736 126.149 104.767 126.232C104.798 126.314 104.821 126.376 104.836 126.417L104.843 126.438L104.852 126.461L104.855 126.47L104.856 126.471C105.335 127.802 106.802 128.494 108.133 128.015C109.465 127.536 110.156 126.069 109.678 124.737L107.267 125.604C109.678 124.737 109.678 124.737 109.678 124.737L109.677 124.736L109.675 124.728L109.668 124.711L109.653 124.67L109.646 124.65C109.638 124.627 109.628 124.6 109.616 124.569C109.609 124.55 109.602 124.53 109.594 124.509C109.584 124.484 109.574 124.458 109.564 124.429C109.493 124.241 109.39 123.972 109.259 123.64C108.997 122.979 108.619 122.064 108.155 121.042C107.253 119.057 105.925 116.448 104.385 114.579C102.483 112.272 100.668 110.599 98.5474 109.219C98.4262 109.119 98.294 109.028 98.1514 108.949L97.8525 108.784C97.5836 108.622 97.3094 108.464 97.0293 108.309L89.5128 104.151L89.5118 104.15L89.5099 104.149L89.5084 104.148L89.5071 104.148L89.5055 104.147L89.5042 104.146L89.5032 104.145L89.5022 104.145L89.5011 104.144L89.4998 104.144L89.4988 104.143L89.4959 104.141L89.495 104.141L89.4941 104.14L89.492 104.139L89.4908 104.139L89.4882 104.137L89.4868 104.136L89.4853 104.136L89.4802 104.133L89.4783 104.132L82.295 100.158C80.2908 98.9482 78.4805 97.4524 77.3727 95.7871C77.3331 95.7275 77.2938 95.6667 77.2548 95.6048H98.3512C99.2946 95.6048 100.059 94.84 100.059 93.8966C100.059 92.9533 99.2946 92.1885 98.3512 92.1885H75.9039C75.7625 91.4798 75.6963 90.7413 75.7336 90H104.682C104.781 91.5472 104.476 93.1588 103.499 94.5814C102.707 95.7344 101.422 97.1521 100.256 98.3458C99.6882 98.9275 99.1745 99.4294 98.8034 99.7853C98.6182 99.963 98.4694 100.103 98.3681 100.198C98.3175 100.246 98.2788 100.282 98.2534 100.305L98.2256 100.331L98.2188 100.337C97.1771 101.295 97.1086 102.916 98.0661 103.958C99.0236 104.999 100.644 105.068 101.686 104.11L99.9526 102.224C101.686 104.11 101.686 104.11 101.686 104.11L101.688 104.109L101.702 104.096L101.738 104.062C101.77 104.033 101.815 103.991 101.872 103.938C101.986 103.831 102.15 103.676 102.351 103.484C102.752 103.099 103.307 102.557 103.922 101.926C105.124 100.696 106.668 99.0181 107.723 97.4823C109.405 95.0326 109.931 92.4209 109.819 90H129.667V63.1667C129.667 41.2594 111.907 23.5 90 23.5C68.0927 23.5 50.3333 41.2594 50.3333 63.1667V90ZM135 117.167C135 142.019 114.853 162.167 90 162.167C65.1472 162.167 45 142.019 45 117.167V63.1667C45 38.3139 65.1472 18.1667 90 18.1667C114.853 18.1667 135 38.3139 135 63.1667V117.167ZM109.819 90H104.682C104.563 88.1573 103.87 86.4059 103.05 85.1737C101.943 83.5084 100.132 82.0126 98.128 80.8028L90.9311 76.8215L90.93 76.8209L90.928 76.8198L90.9264 76.8189L90.9238 76.8175L90.9217 76.8163L90.9194 76.815L90.9183 76.8145L90.9171 76.8138L90.916 76.8132L90.9147 76.8125L83.3938 72.6519C83.1137 72.497 82.8396 72.3388 82.5707 72.1767L82.2718 72.0114C82.1291 71.9324 81.9969 71.8419 81.8757 71.7416C79.7548 70.3619 77.9399 68.6889 76.038 66.3814C74.498 64.513 73.17 61.904 72.2681 59.9192C71.8036 58.8971 71.4261 57.9815 71.1642 57.3204C71.033 56.9892 70.9302 56.7201 70.8593 56.5316C70.8238 56.4373 70.7963 56.363 70.7772 56.3109C70.7677 56.2849 70.7602 56.2645 70.7549 56.2499L70.7485 56.2324L70.7457 56.2244C70.7456 56.2241 70.7455 56.2238 73.1566 55.357L70.7457 56.2244C70.267 54.8928 70.9582 53.4246 72.2898 52.9459C73.6211 52.4673 75.0884 53.1583 75.5674 54.4894L75.5712 54.5L75.5797 54.5233L75.5873 54.5441C75.6022 54.5846 75.6252 54.6467 75.6559 54.7284C75.7173 54.8917 75.8093 55.1326 75.9284 55.4331C76.167 56.0355 76.5115 56.8709 76.9333 57.7991C77.8038 59.7148 78.9051 61.8032 79.9922 63.1221C81.7486 65.253 83.3003 66.6216 85.1377 67.7406L92.2665 71.6842L92.2677 71.6849L92.2688 71.6855L92.2724 71.6875L92.2755 71.6892L92.2778 71.6905L92.2798 71.6916L92.2822 71.6929L99.805 75.8545C100.097 76.016 100.392 76.1857 100.689 76.3636L100.927 76.495C101.046 76.5606 101.157 76.6342 101.261 76.7148C103.494 78.1246 105.76 79.9954 107.317 82.3356C108.468 84.0663 109.675 86.8741 109.819 90ZM75.7336 90C75.7724 89.2277 75.9235 88.4524 76.219 87.7047H98.3512C99.2946 87.7047 100.059 86.9399 100.059 85.9966C100.059 85.0532 99.2946 84.2884 98.3512 84.2884H78.6027C79.112 83.715 79.651 83.1431 80.1668 82.615C80.7349 82.0334 81.2486 81.5314 81.6197 81.1755C81.8049 80.9979 81.9537 80.8574 82.055 80.7625C82.1056 80.715 82.1443 80.679 82.1697 80.6555L82.1975 80.6298L82.2036 80.6241L82.2045 80.6233C83.2462 79.6658 83.3145 78.0451 82.357 77.0033C81.3995 75.9614 79.7786 75.893 78.7368 76.8505L80.4705 78.737C78.7368 76.8505 78.7369 76.8504 78.7368 76.8505L78.7215 76.8646L78.7069 76.8781L78.6848 76.8986C78.6535 76.9277 78.6084 76.9695 78.5512 77.0231C78.4369 77.1303 78.2735 77.2845 78.0725 77.4773C77.6712 77.8623 77.1166 78.4041 76.501 79.0344C75.2995 80.2644 73.755 81.9427 72.7003 83.4786C71.2385 85.6072 70.6501 87.8582 70.5942 90H75.7336ZM97.2591 68.7211C98.1795 69.7959 99.7969 69.9211 100.872 69.0007C102.065 67.9786 103.188 66.8065 104.331 65.4205C105.871 63.5522 107.199 60.9432 108.101 58.9584C108.565 57.9363 108.943 57.0207 109.204 56.3596C109.336 56.0283 109.438 55.7593 109.509 55.5708C109.545 55.4765 109.572 55.4022 109.591 55.3501C109.597 55.3343 109.602 55.3205 109.607 55.3089L109.614 55.289L109.622 55.2661L109.623 55.2643C109.623 55.264 109.623 55.263 107.212 54.3962L109.623 55.263C110.102 53.9314 109.41 52.4638 108.079 51.9851C106.747 51.5064 105.28 52.1977 104.801 53.529L104.797 53.5392C104.794 53.5483 104.789 53.5631 104.781 53.5833C104.767 53.6218 104.746 53.6799 104.717 53.7557H82.5512C81.6078 53.7557 80.8431 54.5204 80.8431 55.4638C80.8431 56.4072 81.6078 57.1719 82.5512 57.1719H103.282C102.627 58.5835 101.857 60.0581 101.067 61.2287H86.3944C85.4511 61.2287 84.6863 61.9935 84.6863 62.9368C84.6863 63.8802 85.4511 64.645 86.3944 64.645H98.0597C97.8859 64.8054 97.7125 64.9597 97.5388 65.1084C96.464 66.0288 96.3387 67.6462 97.2591 68.7211ZM79.0698 110.953C80.1447 110.033 81.7621 110.158 82.6825 111.233C83.6028 112.308 83.4776 113.925 82.4028 114.846C81.4779 115.638 80.5598 116.586 79.5652 117.793C79.4356 117.95 79.3058 118.118 79.1762 118.296C78.2188 119.607 77.273 121.429 76.5063 123.116C76.0845 124.044 75.74 124.879 75.5013 125.482C75.3823 125.782 75.2903 126.023 75.2288 126.187C75.1982 126.268 75.1752 126.33 75.1603 126.371C75.1529 126.391 75.1475 126.406 75.1442 126.415L75.1405 126.425C74.6616 127.756 73.1942 128.448 71.8628 127.969C70.5311 127.49 69.8397 126.023 70.3184 124.691L72.7295 125.558C70.3184 124.691 70.3183 124.691 70.3184 124.691L70.3189 124.69L70.3215 124.683L70.3279 124.665C70.3317 124.655 70.3366 124.641 70.3426 124.625L70.3502 124.604C70.3693 124.552 70.3968 124.478 70.4323 124.383C70.5031 124.195 70.606 123.926 70.7372 123.595C70.9991 122.934 71.3766 122.018 71.841 120.996C72.743 119.011 74.071 116.402 75.6109 114.534C76.7533 113.148 77.8761 111.976 79.0698 110.953Z" fill="white"/>
<defs>
<linearGradient id="paint0_linear_4003_34" x1="27.0462" y1="89.9998" x2="157.192" y2="89.9998" gradientUnits="userSpaceOnUse">
<stop stop-color="#35BC88"/>
<stop offset="1" stop-color="#0B7E7F"/>
</linearGradient>
</defs>
</svg>
