<svg width="1080" height="1080" viewBox="0 0 1080 1080" fill="none" xmlns="http://www.w3.org/2000/svg">
<path fill-rule="evenodd" clip-rule="evenodd" d="M423.565 540H302V379C302 247.556 408.556 141 540 141C671.444 141 778 247.556 778 379V540H658.914C658.049 521.245 650.809 504.398 643.902 494.014C634.562 479.972 620.966 468.748 607.564 460.289C606.941 459.805 606.274 459.364 605.562 458.97L604.136 458.182C602.354 457.114 600.581 456.096 598.83 455.127L553.737 430.182L553.731 430.178L553.719 430.172L553.714 430.169L553.709 430.166L553.7 430.161L553.697 430.159L553.693 430.157L553.687 430.154L553.685 430.153L553.683 430.152L553.681 430.151L553.679 430.15L553.676 430.148L553.674 430.147L553.673 430.146L553.672 430.146L553.669 430.144L553.667 430.143L553.666 430.142L553.664 430.141L553.661 430.139L553.658 430.138L553.656 430.137L553.653 430.135L553.647 430.132L553.643 430.13L553.639 430.127L553.634 430.125L553.613 430.113L553.606 430.109L553.599 430.105L510.826 406.444C499.802 399.73 490.491 391.518 479.953 378.733C473.431 370.819 466.823 358.289 461.6 346.795C459.069 341.226 457.002 336.213 455.57 332.599C454.856 330.796 454.304 329.35 453.935 328.37C453.751 327.88 453.613 327.507 453.524 327.265L453.478 327.14L453.427 327L453.407 326.945L453.406 326.942L453.405 326.939L453.404 326.937C450.53 318.95 441.727 314.804 433.739 317.676C425.749 320.548 421.601 329.353 424.473 337.343L438.939 332.142C424.473 337.343 424.474 337.346 424.474 337.346L424.491 337.394L424.529 337.499C424.546 337.544 424.566 337.599 424.589 337.662C424.611 337.722 424.635 337.79 424.663 337.866C424.778 338.178 424.943 338.624 425.156 339.19C425.581 340.321 426.198 341.935 426.985 343.922C428.556 347.889 430.822 353.383 433.608 359.515C439.02 371.424 446.988 387.078 456.228 398.288C467.639 412.133 478.529 422.172 491.254 430.45C491.981 431.051 492.774 431.595 493.63 432.068L495.424 433.06C497.037 434.033 498.682 434.982 500.363 435.912L545.479 460.87L545.484 460.872L545.488 460.875L545.492 460.877L545.496 460.879L545.502 460.883L545.505 460.884L545.51 460.887L545.512 460.888L545.514 460.889L545.515 460.89L545.516 460.89L545.518 460.891L545.52 460.892L545.521 460.893L545.522 460.894L545.526 460.895L545.527 460.896L545.528 460.897L545.53 460.898L545.532 460.899L545.534 460.9L545.537 460.902L545.542 460.905L545.546 460.907L545.55 460.909L545.554 460.911L545.558 460.914L545.568 460.919L545.58 460.926L545.587 460.929L588.768 484.817C600.794 492.076 611.656 501.05 618.302 511.042C623.22 518.436 627.381 528.944 628.091 540H454.401C454.634 535.366 455.541 530.714 457.314 526.228H590.107C595.768 526.228 600.356 521.64 600.356 515.979C600.356 510.319 595.768 505.731 590.107 505.731H471.616C474.672 502.29 477.906 498.859 481.001 495.69C484.409 492.2 487.492 489.189 489.718 487.053C490.829 485.987 491.722 485.144 492.33 484.575C492.634 484.29 492.866 484.074 493.018 483.933L493.185 483.779L493.222 483.745L493.226 483.741L493.227 483.74C499.477 477.995 499.887 468.271 494.142 462.02C488.397 455.768 478.672 455.358 472.421 461.103L482.823 472.422C472.421 461.103 472.419 461.105 472.419 461.105L472.391 461.13L472.329 461.188L472.241 461.269L472.109 461.391C472.023 461.471 471.921 461.566 471.802 461.677C471.66 461.809 471.494 461.964 471.307 462.139C470.621 462.782 469.641 463.707 468.435 464.864C466.027 467.174 462.699 470.425 459.006 474.206C451.797 481.587 442.53 491.656 436.202 500.871C427.431 513.643 423.9 527.149 423.565 540ZM605.231 414.005C598.782 419.527 589.077 418.776 583.555 412.326C578.032 405.877 578.784 396.173 585.233 390.65C586.275 389.758 587.316 388.832 588.358 387.87H518.367C512.706 387.87 508.118 383.281 508.118 377.621C508.118 371.961 512.706 367.372 518.367 367.372H606.4C611.143 360.349 615.764 351.501 619.693 343.032H495.307C489.647 343.032 485.058 338.443 485.058 332.783C485.058 327.122 489.647 322.534 495.307 322.534H628.303C628.474 322.079 628.603 321.731 628.688 321.5L628.747 321.337L628.784 321.235L628.805 321.18L628.806 321.177L628.807 321.174C631.68 313.186 640.484 309.039 648.473 311.911C656.463 314.783 660.611 323.588 657.739 331.578L643.272 326.377C657.739 331.578 657.738 331.581 657.738 331.581L657.732 331.597L657.682 331.734L657.639 331.853L657.581 332.013L657.548 332.101C657.488 332.265 657.414 332.465 657.327 332.701C657.247 332.914 657.157 333.156 657.056 333.425C656.631 334.556 656.014 336.17 655.227 338.157C653.655 342.124 651.39 347.618 648.603 353.75C643.191 365.659 635.224 381.313 625.984 392.523C619.13 400.839 612.393 407.871 605.231 414.005Z" fill="url(#paint0_linear_4003_31)"/>
<path d="M423.565 540C423.017 561.034 431.028 580.313 438.637 591.751C447.977 605.793 461.572 617.018 474.974 625.476C475.597 625.96 476.265 626.401 476.976 626.795L478.402 627.583C480.184 628.651 481.957 629.669 483.709 630.638L528.51 655.422L528.53 655.433L528.569 655.455L528.622 655.484L528.653 655.501L528.667 655.509L528.681 655.517L528.695 655.524L528.707 655.531L528.719 655.538L528.731 655.544L528.761 655.561L528.77 655.566L528.779 655.571L528.787 655.575L528.794 655.579L528.801 655.583L528.808 655.587L528.814 655.59L528.82 655.593L528.825 655.596L528.83 655.599L528.834 655.601L528.842 655.606L528.845 655.608L528.848 655.609L528.851 655.611L528.854 655.612L528.856 655.613L528.858 655.614L528.859 655.615L528.861 655.616L528.862 655.617L528.864 655.618L528.865 655.619L528.867 655.619L528.868 655.62L528.87 655.621L528.872 655.622L528.873 655.623L528.874 655.624L528.876 655.624L528.878 655.626L528.88 655.627L528.883 655.628L528.885 655.63L528.888 655.631L528.9 655.638L528.904 655.64L528.909 655.643L528.926 655.652L528.932 655.656L528.94 655.66L528.955 655.668L528.964 655.673L528.992 655.689L529.003 655.695L529.015 655.701L529.026 655.708L529.081 655.738L529.146 655.774L529.165 655.784L571.713 679.322C576.939 682.505 581.781 686.024 586.55 690.209H518.367C512.706 690.209 508.118 694.797 508.118 700.457C508.118 706.117 512.706 710.706 518.367 710.706H605.393C610.239 717.49 615.016 726.378 619.119 735.047H495.307C489.647 735.047 485.058 739.635 485.058 745.296C485.058 750.956 489.647 755.544 495.307 755.544H627.898C628.179 756.273 628.415 756.894 628.603 757.395C628.787 757.885 628.925 758.258 629.015 758.5L629.06 758.625L629.111 758.765L629.131 758.82L629.133 758.823L629.133 758.826L629.134 758.828C632.008 766.815 640.812 770.961 648.8 768.089C656.789 765.217 660.938 756.412 658.066 748.422L643.599 753.623C658.066 748.422 658.065 748.419 658.065 748.419L658.063 748.414L658.047 748.371L658.009 748.266L657.92 748.021L657.875 747.899C657.825 747.763 657.765 747.6 657.696 747.413L657.489 746.859L657.383 746.575C656.958 745.444 656.341 743.83 655.553 741.843C653.982 737.876 651.717 732.383 648.93 726.25C643.518 714.341 635.551 698.687 626.311 687.477C614.899 673.632 604.01 663.593 591.284 655.315C590.557 654.713 589.764 654.17 588.908 653.697L587.115 652.705C585.501 651.732 583.856 650.783 582.176 649.853L537.114 624.926L537.098 624.916L537.09 624.912L537.077 624.905L537.071 624.901L537.06 624.895L537.046 624.888L537.042 624.886L537.039 624.884L537.036 624.882L537.033 624.881L537.029 624.878L537.027 624.877L537.025 624.876L537.023 624.875L537.02 624.874L537.019 624.873L537.017 624.872L537.016 624.871L537.015 624.871L537.013 624.87L537.012 624.869L537.01 624.868L537.007 624.866L537.004 624.865L537.002 624.863L536.999 624.862L536.993 624.858L536.975 624.849L536.97 624.846L536.965 624.843L536.952 624.836L536.945 624.832L536.929 624.823L536.921 624.819L536.912 624.814L536.881 624.797L536.87 624.79L493.77 600.948C481.745 593.689 470.883 584.715 464.236 574.723C463.999 574.365 463.763 574 463.529 573.629H590.107C595.768 573.629 600.356 569.04 600.356 563.38C600.356 557.72 595.768 553.131 590.107 553.131H455.423C454.575 548.879 454.178 544.448 454.401 540H423.565Z" fill="url(#paint1_linear_4003_31)"/>
<path d="M628.091 540H658.914C659.584 554.526 656.43 570.195 646.337 584.894C640.009 594.109 630.741 604.178 623.533 611.559C619.839 615.34 616.511 618.591 614.104 620.901C612.898 622.058 611.917 622.983 611.231 623.626C611.054 623.792 610.897 623.939 610.76 624.067C610.631 624.187 610.521 624.289 610.43 624.374L610.333 624.463L610.209 624.577L610.12 624.66C610.12 624.66 610.118 624.662 599.715 613.343L610.118 624.662C603.867 630.407 594.142 629.997 588.397 623.745C582.652 617.495 583.062 607.77 589.312 602.025L589.313 602.024L589.353 601.987L589.52 601.832C589.673 601.691 589.905 601.475 590.208 601.19C590.816 600.621 591.709 599.778 592.82 598.712C595.047 596.576 598.129 593.565 601.538 590.075C608.534 582.913 616.241 574.407 620.992 567.488C626.853 558.953 628.688 549.283 628.091 540Z" fill="url(#paint2_linear_4003_31)"/>
<path d="M496.095 667.399C490.573 660.95 480.868 660.198 474.419 665.721C467.257 671.854 460.52 678.886 453.666 687.202C444.426 698.412 436.458 714.066 431.046 725.975C428.259 732.107 425.994 737.601 424.423 741.568C423.636 743.555 423.019 745.169 422.594 746.3C422.519 746.498 422.451 746.681 422.388 746.849C422.272 747.162 422.176 747.421 422.101 747.624L422.055 747.749C422.019 747.847 421.99 747.928 421.967 747.991L421.929 748.096L421.913 748.139L421.912 748.143C421.912 748.143 421.911 748.147 436.377 753.348L421.911 748.147C419.038 756.137 423.187 764.942 431.177 767.814C439.165 770.686 447.97 766.539 450.843 758.551L450.844 758.548L450.865 758.49C450.885 758.435 450.917 758.346 450.962 758.225C451.051 757.982 451.189 757.609 451.373 757.12C451.742 756.139 452.294 754.694 453.008 752.891C454.44 749.277 456.507 744.264 459.038 738.695C463.638 728.571 469.313 717.644 475.057 709.775C475.835 708.71 476.614 707.701 477.391 706.757C483.359 699.517 488.867 693.827 494.417 689.075C500.866 683.552 501.617 673.848 496.095 667.399Z" fill="url(#paint3_linear_4003_31)"/>
<path fill-rule="evenodd" clip-rule="evenodd" d="M540 1080C838.234 1080 1080 838.234 1080 540C1080 241.766 838.234 6.10352e-05 540 6.10352e-05C241.766 6.10352e-05 0 241.766 0 540C0 838.234 241.766 1080 540 1080ZM810 703V379C810 229.883 689.117 109 540 109C390.883 109 270 229.883 270 379V703C270 852.117 390.883 973 540 973C689.117 973 810 852.117 810 703Z" fill="url(#paint4_linear_4003_31)"/>
<defs>
<linearGradient id="paint0_linear_4003_31" x1="162.277" y1="539.999" x2="943.151" y2="539.999" gradientUnits="userSpaceOnUse">
<stop stop-color="#35BC88"/>
<stop offset="1" stop-color="#0B7E7F"/>
</linearGradient>
<linearGradient id="paint1_linear_4003_31" x1="162.277" y1="539.999" x2="943.151" y2="539.999" gradientUnits="userSpaceOnUse">
<stop stop-color="#35BC88"/>
<stop offset="1" stop-color="#0B7E7F"/>
</linearGradient>
<linearGradient id="paint2_linear_4003_31" x1="162.277" y1="539.999" x2="943.151" y2="539.999" gradientUnits="userSpaceOnUse">
<stop stop-color="#35BC88"/>
<stop offset="1" stop-color="#0B7E7F"/>
</linearGradient>
<linearGradient id="paint3_linear_4003_31" x1="162.277" y1="539.999" x2="943.151" y2="539.999" gradientUnits="userSpaceOnUse">
<stop stop-color="#35BC88"/>
<stop offset="1" stop-color="#0B7E7F"/>
</linearGradient>
<linearGradient id="paint4_linear_4003_31" x1="162.277" y1="539.999" x2="943.151" y2="539.999" gradientUnits="userSpaceOnUse">
<stop stop-color="#35BC88"/>
<stop offset="1" stop-color="#0B7E7F"/>
</linearGradient>
</defs>
</svg>
